<svg width="102" height="101" viewBox="0 0 102 101" fill="none" xmlns="http://www.w3.org/2000/svg">
<circle cx="51" cy="50.5" r="50.5" fill="#FFF4E4"/>
<path d="M66.5167 48.7V56.1833C66.5167 63.6666 63.5333 66.6667 56.0333 66.6667H47.05C46.0834 66.6667 45.2 66.6167 44.3833 66.5" stroke="#F0B357" stroke-width="2.5" stroke-linecap="round" stroke-linejoin="round"/>
<path d="M36.5668 55.8667V48.7" stroke="#F0B357" stroke-width="2.5" stroke-linecap="round" stroke-linejoin="round"/>
<path d="M51.5501 50C54.6001 50 56.8501 47.5168 56.5501 44.4668L55.4333 33.3333H47.65L46.5334 44.4668C46.2334 47.5168 48.5001 50 51.5501 50Z" stroke="#F0B357" stroke-width="2.5" stroke-linecap="round" stroke-linejoin="round"/>
<path d="M62.0502 50C65.4168 50 67.8835 47.2666 67.5502 43.9166L67.0834 39.3333C66.4834 35 64.8168 33.3333 60.4501 33.3333H55.3668L56.5335 45.0167C56.8335 47.7667 59.3002 50 62.0502 50Z" stroke="#F0B357" stroke-width="2.5" stroke-linecap="round" stroke-linejoin="round"/>
<path d="M40.9501 50C43.7001 50 46.1834 47.7667 46.4501 45.0167L46.8168 41.3334L47.6168 33.3333H42.5335C38.1668 33.3333 36.5002 35 35.9002 39.3333L35.4334 43.9166C35.1001 47.2666 37.5834 50 40.9501 50Z" stroke="#F0B357" stroke-width="2.5" stroke-linecap="round" stroke-linejoin="round"/>
<path d="M46.5 61.6667C46.5 62.9167 46.1499 64.1001 45.5333 65.1001C45.2166 65.6334 44.8333 66.1167 44.3833 66.5C44.3333 66.5667 44.2833 66.6167 44.2166 66.6667C43.05 67.7167 41.5166 68.3333 39.8333 68.3333C37.8 68.3333 35.9832 67.4166 34.7832 65.9833C34.7499 65.9333 34.7 65.9 34.6667 65.85C34.4667 65.6167 34.2833 65.3668 34.1333 65.1001C33.5167 64.1001 33.1666 62.9167 33.1666 61.6667C33.1666 59.5667 34.1333 57.6833 35.6666 56.4667C35.95 56.2333 36.2499 56.0334 36.5666 55.8667C37.5333 55.3167 38.65 55 39.8333 55C41.5 55 42.9999 55.6 44.1666 56.6166C44.3666 56.7666 44.5499 56.95 44.7166 57.1334C45.8166 58.3334 46.5 59.9167 46.5 61.6667Z" stroke="#F0B357" stroke-width="2.5" stroke-miterlimit="10" stroke-linecap="round" stroke-linejoin="round"/>
<path d="M41.8569 62.7613C41.8569 61.7461 40.9785 61.4797 40.1793 61.2925V60.0685C40.5393 60.1117 40.9137 60.2341 41.2809 60.4429L41.6409 59.5573C41.2449 59.3053 40.7193 59.1613 40.1793 59.1181V58.3333H39.4593V59.1325C38.3217 59.2621 37.7673 59.9173 37.7673 60.6805C37.7673 61.7101 38.6601 61.9765 39.4593 62.1709V63.3733C38.9409 63.3229 38.4225 63.1285 38.0625 62.8621L37.6665 63.7405C38.0625 64.0501 38.7465 64.2733 39.4593 64.3165V65.1013H40.1793V64.2949C41.3097 64.1581 41.8569 63.5101 41.8569 62.7613ZM38.9265 60.6229C38.9265 60.3853 39.0777 60.1765 39.4593 60.0901V61.1125C39.1425 61.0117 38.9265 60.8749 38.9265 60.6229ZM40.1793 63.3445V62.3509C40.4889 62.4589 40.6977 62.5957 40.6977 62.8477C40.6977 63.0781 40.5393 63.2653 40.1793 63.3445Z" fill="#F0B357"/>
</svg>
