<svg width="102" height="101" viewBox="0 0 102 101" fill="none" xmlns="http://www.w3.org/2000/svg">
<circle cx="51" cy="50.5" r="50.5" fill="#FFF4E4"/>
<path d="M63.6666 43.2V51.7833C63.6666 56.9167 60.7333 59.1166 56.3333 59.1166H41.6833C40.9333 59.1166 40.2166 59.05 39.55 58.9C39.1333 58.8334 38.7333 58.7167 38.3666 58.5834C35.8666 57.65 34.35 55.4833 34.35 51.7833V43.2C34.35 38.0666 37.2833 35.8667 41.6833 35.8667H56.3333C60.0666 35.8667 62.75 37.45 63.4666 41.0667C63.5833 41.7334 63.6666 42.4166 63.6666 43.2Z" stroke="#F0B357" stroke-width="2.55" stroke-miterlimit="10" stroke-linecap="round" stroke-linejoin="round"/>
<path d="M68.6684 48.2002V56.7835C68.6684 61.9169 65.7351 64.1168 61.3351 64.1168H46.6851C45.4518 64.1168 44.3351 63.9502 43.3684 63.5836C41.3851 62.8502 40.0351 61.3336 39.5518 58.9002C40.2184 59.0502 40.9351 59.1168 41.6851 59.1168H56.3351C60.7351 59.1168 63.6684 56.9169 63.6684 51.7835V43.2002C63.6684 42.4168 63.6018 41.7169 63.4684 41.0669C66.6351 41.7336 68.6684 43.9668 68.6684 48.2002Z" stroke="#F0B357" stroke-width="2.55" stroke-miterlimit="10" stroke-linecap="round" stroke-linejoin="round"/>
<path d="M48.9974 51.8998C51.4275 51.8998 53.3975 49.9298 53.3975 47.4998C53.3975 45.0697 51.4275 43.0998 48.9974 43.0998C46.5674 43.0998 44.5974 45.0697 44.5974 47.4998C44.5974 49.9298 46.5674 51.8998 48.9974 51.8998Z" stroke="#F0B357" stroke-width="2.55" stroke-miterlimit="10" stroke-linecap="round" stroke-linejoin="round"/>
<path d="M39.4667 43.8333V51.1667" stroke="#F0B357" stroke-width="1.5" stroke-miterlimit="10" stroke-linecap="round" stroke-linejoin="round"/>
<path d="M58.5361 43.8338V51.1672" stroke="#F0B357" stroke-width="2.55" stroke-miterlimit="10" stroke-linecap="round" stroke-linejoin="round"/>
</svg>
