<svg width="205" height="45" viewBox="0 0 205 45" fill="none" xmlns="http://www.w3.org/2000/svg">
<path d="M15.3598 30.883C7.93208 24.0902 7.45065 20.223 8.1384 19.1384C4.80547 21.3339 -1.40013 26.5344 0.440917 29.7721C2.28197 33.0098 5.96935 35.4063 7.58291 36.1999L15.3598 30.883Z" fill="#F0B357"/>
<path d="M0.361782 24.614C3.1551 19.8527 20.042 8.92805 28.1362 4.06091C28.1362 3.9551 28.0727 3.74349 27.8188 3.74349C24.4065 2.79122 20.6768 0.093136 17.2645 1.28347C9.80509 3.74349 4.40891 8.98095 2.18695 11.441C0.409391 13.409 0.07081 15.5939 0.123715 16.4404C0.0972631 19.2443 0.107844 24.8044 0.361782 24.614Z" fill="#F0B357"/>
<path d="M16.2157 13.4446C23.6434 20.2374 24.1248 24.1047 23.4371 25.1892C26.77 22.9937 32.9756 17.7933 31.1346 14.5556C29.2935 11.3179 25.6062 8.92133 23.9926 8.12777L16.2157 13.4446Z" fill="white"/>
<path d="M31.2137 19.7136C28.4204 24.475 11.5335 35.3996 3.43928 40.2667C3.43928 40.3725 3.50277 40.5841 3.75671 40.5841C7.169 41.5364 10.8987 44.2345 14.311 43.0442C21.7704 40.5841 27.1666 35.3467 29.3885 32.8867C31.1661 30.9186 31.5047 28.7337 31.4518 27.8873C31.4782 25.0834 31.4677 19.5232 31.2137 19.7136Z" fill="white"/>
<path d="M49.6959 32.0045C48.4553 32.0045 47.289 31.7599 46.1969 31.2707C45.1049 30.7727 44.1438 30.0869 43.3139 29.2132C42.4927 28.3396 41.8462 27.3305 41.3744 26.186C40.9114 25.0328 40.6798 23.801 40.6798 22.4905C40.6798 21.1713 40.9114 19.9395 41.3744 18.795C41.8462 17.6418 42.4927 16.6327 43.3139 15.7678C44.1438 14.8942 45.1049 14.2127 46.1969 13.7235C47.289 13.2255 48.4553 12.9765 49.6959 12.9765C51.1811 12.9765 52.5483 13.3216 53.7977 14.0118C55.047 14.6932 56.0822 15.6062 56.9035 16.7507L53.6797 18.4936C53.1905 17.917 52.6008 17.4583 51.9106 17.1176C51.2204 16.7681 50.4822 16.5934 49.6959 16.5934C48.9533 16.5934 48.2544 16.7463 47.5991 17.0521C46.9439 17.3578 46.3673 17.7816 45.8693 18.3232C45.3801 18.8649 44.9957 19.4895 44.7161 20.1972C44.4365 20.9048 44.2967 21.6693 44.2967 22.4905C44.2967 23.303 44.4365 24.0675 44.7161 24.7838C44.9957 25.4915 45.3801 26.1162 45.8693 26.6578C46.3673 27.1907 46.9439 27.6145 47.5991 27.929C48.2544 28.2348 48.9533 28.3876 49.6959 28.3876C50.4909 28.3876 51.2291 28.2129 51.9106 27.8635C52.6008 27.514 53.1905 27.051 53.6797 26.4744L56.9035 28.2304C56.0822 29.3661 55.047 30.2791 53.7977 30.9693C52.5483 31.6595 51.1811 32.0045 49.6959 32.0045ZM59.6238 31.6638V15.2829H69.9905V18.5123H62.8531V21.2737H68.4226V24.503H62.8531V28.4344H69.9905V31.6638H59.6238ZM72.6164 31.6638V15.2829H76.1032L82.4917 25.8252V15.2829H85.7211V31.6638H82.2343L75.8458 21.1215V31.6638H72.6164ZM100.958 15.2829V18.5123H96.1374V31.6638H92.908V18.5123H88.0874V15.2829H100.958ZM103.295 31.6638V15.2829H113.662V18.5123H106.525V21.2737H112.094V24.503H106.525V28.4344H113.662V31.6638H103.295ZM116.288 31.6638V15.2829H122.794C123.683 15.2829 124.486 15.5091 125.204 15.9616C125.929 16.4062 126.503 17.0068 126.924 17.7635C127.353 18.5123 127.568 19.343 127.568 20.2557C127.568 20.9733 127.443 21.6403 127.193 22.2565C126.943 22.8649 126.592 23.3993 126.14 23.8595C125.688 24.3197 125.161 24.6785 124.56 24.936L128.457 31.6638H124.736L121.003 25.2285H119.517V31.6638H116.288ZM119.517 21.9991H122.408C122.759 21.9991 123.078 21.9133 123.367 21.7417C123.663 21.5623 123.897 21.3244 124.069 21.0279C124.248 20.7237 124.338 20.3883 124.338 20.0217C124.338 19.6629 124.248 19.3352 124.069 19.0388C123.897 18.7346 123.663 18.4928 123.367 18.3134C123.078 18.134 122.759 18.0443 122.408 18.0443H119.517V21.9991ZM136.56 31.968C135.64 31.968 134.758 31.8237 133.916 31.5351C133.081 31.2465 132.348 30.8292 131.716 30.2831C131.092 29.7371 130.644 29.0897 130.371 28.3408L133.401 27.2176C133.495 27.4828 133.69 27.7324 133.986 27.9664C134.282 28.1926 134.653 28.3798 135.098 28.528C135.542 28.6685 136.03 28.7387 136.56 28.7387C137.067 28.7387 137.543 28.6646 137.988 28.5163C138.44 28.3603 138.803 28.1458 139.076 27.8728C139.357 27.5998 139.497 27.28 139.497 26.9134C139.497 26.5467 139.353 26.2425 139.064 26.0007C138.776 25.7589 138.405 25.5678 137.953 25.4274C137.5 25.2792 137.036 25.1661 136.56 25.0881C135.382 24.9165 134.325 24.6395 133.389 24.2573C132.461 23.8673 131.728 23.333 131.19 22.6543C130.651 21.9679 130.382 21.0981 130.382 20.0451C130.382 19.031 130.667 18.1457 131.236 17.389C131.814 16.6324 132.57 16.0435 133.506 15.6222C134.45 15.201 135.468 14.9904 136.56 14.9904C137.465 14.9904 138.339 15.1347 139.181 15.4233C140.024 15.712 140.757 16.1293 141.381 16.6753C142.013 17.2213 142.465 17.8766 142.738 18.641L139.708 19.7409C139.614 19.4757 139.419 19.2299 139.123 19.0037C138.826 18.7775 138.456 18.5942 138.011 18.4538C137.566 18.3134 137.083 18.2432 136.56 18.2432C136.061 18.2354 135.585 18.3095 135.133 18.4655C134.688 18.6215 134.321 18.836 134.033 19.109C133.752 19.382 133.612 19.6941 133.612 20.0451C133.612 20.5053 133.744 20.8524 134.009 21.0864C134.282 21.3205 134.641 21.4882 135.086 21.5896C135.531 21.691 136.022 21.7807 136.56 21.8587C137.668 22.0225 138.69 22.315 139.626 22.7362C140.562 23.1497 141.311 23.7035 141.872 24.3977C142.442 25.0842 142.726 25.9227 142.726 26.9134C142.726 27.9274 142.442 28.8128 141.872 29.5694C141.303 30.326 140.55 30.915 139.614 31.3362C138.678 31.7574 137.66 31.968 136.56 31.968ZM157.245 15.2829V18.5123H152.424V31.6638H149.195V18.5123H144.374V15.2829H157.245ZM166.25 31.968C165.143 31.968 164.101 31.7496 163.126 31.3128C162.151 30.8682 161.293 30.2558 160.552 29.4758C159.811 28.6958 159.23 27.7948 158.809 26.773C158.388 25.7433 158.177 24.6434 158.177 23.4734C158.177 22.3033 158.388 21.2073 158.809 20.1855C159.23 19.1558 159.811 18.251 160.552 17.4709C161.293 16.6909 162.151 16.0825 163.126 15.6456C164.101 15.201 165.143 14.9787 166.25 14.9787C167.366 14.9787 168.411 15.201 169.386 15.6456C170.361 16.0825 171.219 16.6909 171.96 17.4709C172.701 18.251 173.279 19.1558 173.692 20.1855C174.113 21.2073 174.324 22.3033 174.324 23.4734C174.324 24.6434 174.113 25.7433 173.692 26.773C173.279 27.7948 172.701 28.6958 171.96 29.4758C171.219 30.2558 170.361 30.8682 169.386 31.3128C168.411 31.7496 167.366 31.968 166.25 31.968ZM166.25 28.7387C166.913 28.7387 167.537 28.6022 168.122 28.3291C168.708 28.0483 169.222 27.6661 169.667 27.1825C170.112 26.6988 170.459 26.1411 170.708 25.5093C170.966 24.8774 171.094 24.1988 171.094 23.4734C171.094 22.7479 170.966 22.0693 170.708 21.4375C170.459 20.7978 170.112 20.2401 169.667 19.7643C169.222 19.2806 168.708 18.9023 168.122 18.6293C167.537 18.3485 166.913 18.2081 166.25 18.2081C165.587 18.2081 164.963 18.3485 164.378 18.6293C163.793 18.9023 163.278 19.2806 162.834 19.7643C162.389 20.2479 162.038 20.8056 161.781 21.4375C161.531 22.0693 161.406 22.7479 161.406 23.4734C161.406 24.1988 161.531 24.8813 161.781 25.521C162.038 26.1528 162.389 26.7105 162.834 27.1942C163.278 27.67 163.793 28.0483 164.378 28.3291C164.963 28.6022 165.587 28.7387 166.25 28.7387ZM176.939 31.6638V15.2829H180.426L186.815 25.8252V15.2829H190.044V31.6638H186.557L180.169 21.1215V31.6638H176.939ZM193.107 31.6638V15.2829H203.474V18.5123H196.336V21.2737H201.906V24.503H196.336V28.4344H203.474V31.6638H193.107Z" fill="white"/>
<path d="M155.429 41.8599C155.109 41.8599 154.799 41.8108 154.499 41.7127C154.199 41.6117 153.936 41.4702 153.711 41.2884C153.489 41.1037 153.333 40.8829 153.243 40.626L153.68 40.4615C153.75 40.6578 153.875 40.8266 154.057 40.9681C154.242 41.1066 154.454 41.2119 154.694 41.2841C154.936 41.3562 155.181 41.3923 155.429 41.3923C155.724 41.3923 156 41.3418 156.256 41.2408C156.513 41.1398 156.721 40.9998 156.88 40.8209C157.039 40.639 157.118 40.424 157.118 40.1758C157.118 39.9276 157.036 39.7241 156.871 39.5654C156.707 39.4038 156.494 39.2768 156.235 39.1844C155.978 39.0892 155.709 39.0156 155.429 38.9636C155.02 38.8915 154.653 38.7962 154.33 38.6779C154.007 38.5567 153.75 38.3864 153.559 38.167C153.372 37.9477 153.278 37.6533 153.278 37.2839C153.278 36.9404 153.377 36.6431 153.577 36.392C153.779 36.141 154.043 35.9461 154.369 35.8076C154.695 35.6691 155.049 35.5998 155.429 35.5998C155.738 35.5998 156.041 35.6489 156.339 35.747C156.636 35.8422 156.899 35.9822 157.127 36.1669C157.355 36.3516 157.519 36.5768 157.62 36.8423L157.174 37.0025C157.105 36.8033 156.979 36.6345 156.798 36.496C156.616 36.3574 156.404 36.2521 156.161 36.1799C155.922 36.1078 155.678 36.0717 155.429 36.0717C155.132 36.0688 154.855 36.1193 154.598 36.2232C154.344 36.3242 154.138 36.4656 153.979 36.6475C153.823 36.8293 153.745 37.0414 153.745 37.2839C153.745 37.5638 153.819 37.7803 153.966 37.9333C154.113 38.0862 154.314 38.2017 154.568 38.2796C154.822 38.3546 155.109 38.4225 155.429 38.4831C155.81 38.5495 156.164 38.6519 156.49 38.7904C156.819 38.9261 157.083 39.1079 157.282 39.3359C157.484 39.5611 157.585 39.841 157.585 40.1758C157.585 40.5164 157.484 40.8136 157.282 41.0676C157.083 41.3187 156.821 41.5135 156.494 41.6521C156.168 41.7906 155.813 41.8599 155.429 41.8599ZM158.64 41.7473V35.6864H160.934C161.266 35.6864 161.566 35.7557 161.835 35.8942C162.103 36.0298 162.315 36.2232 162.471 36.4743C162.63 36.7254 162.709 37.0198 162.709 37.3575C162.709 37.4845 162.693 37.6187 162.662 37.7601C162.63 37.8986 162.574 38.0285 162.493 38.1497C162.412 38.2709 162.297 38.3662 162.147 38.4354C162.34 38.4816 162.493 38.5682 162.605 38.6952C162.718 38.8222 162.802 38.9694 162.857 39.1368C162.914 39.3013 162.952 39.4687 162.969 39.639C162.986 39.8064 162.995 39.9579 162.995 40.0935C162.995 40.3995 162.913 40.678 162.748 40.9291C162.584 41.1773 162.363 41.3764 162.086 41.5265C161.809 41.6737 161.503 41.7473 161.168 41.7473H158.64ZM159.939 40.6477H161.03C161.18 40.6477 161.315 40.6131 161.437 40.5438C161.561 40.4716 161.659 40.3735 161.731 40.2494C161.806 40.1253 161.844 39.9839 161.844 39.8251C161.844 39.6924 161.806 39.5668 161.731 39.4485C161.659 39.3273 161.561 39.2291 161.437 39.1541C161.315 39.0791 161.18 39.0415 161.03 39.0415H159.939V40.6477ZM159.939 37.9592H160.779C160.952 37.9592 161.1 37.9015 161.224 37.7861C161.349 37.6706 161.411 37.5249 161.411 37.3488C161.411 37.1699 161.349 37.0328 161.224 36.9375C161.1 36.8423 160.952 36.7947 160.779 36.7947H159.939V37.9592ZM165.194 35.6864H165.809L168.017 41.7473H167.519L167.021 40.3793H163.986L163.488 41.7473H162.99L165.194 35.6864ZM164.155 39.9117H166.848L165.501 36.2189L164.155 39.9117ZM170.96 41.7473V35.6864H171.427V41.2798H174.293V41.7473H170.96ZM175.247 41.7473V35.6864H178.9V36.1539H175.714V38.2666H178.381V38.7342H175.714V41.2798H178.9V41.7473H175.247ZM180.026 41.7473V35.6864H180.537L183.931 40.9031V35.6864H184.399V41.7473H183.897L180.494 36.5306V41.7473H180.026ZM185.63 41.7473V35.6864H187.634C188.053 35.6864 188.445 35.7658 188.812 35.9245C189.178 36.0803 189.5 36.2982 189.777 36.5782C190.054 36.8553 190.271 37.1771 190.427 37.5436C190.585 37.9073 190.665 38.2984 190.665 38.7168C190.665 39.1353 190.585 39.5279 190.427 39.8944C190.271 40.2581 190.054 40.5799 189.777 40.8598C189.5 41.1369 189.178 41.3548 188.812 41.5135C188.445 41.6694 188.053 41.7473 187.634 41.7473H185.63ZM186.098 41.2798H187.634C187.989 41.2798 188.321 41.2134 188.63 41.0806C188.939 40.9478 189.21 40.7646 189.444 40.5308C189.681 40.2941 189.865 40.0214 189.998 39.7126C190.131 39.4038 190.197 39.0718 190.197 38.7168C190.197 38.3619 190.131 38.0299 189.998 37.7211C189.865 37.4123 189.681 37.141 189.444 36.9072C189.207 36.6706 188.935 36.4858 188.626 36.3531C188.317 36.2203 187.987 36.1539 187.634 36.1539H186.098V41.2798ZM191.729 41.7473V35.6864H192.197V41.7473H191.729ZM193.555 41.7473V35.6864H194.066L197.46 40.9031V35.6864H197.928V41.7473H197.426L194.023 36.5306V41.7473H193.555ZM201.797 41.8599C201.385 41.8599 200.996 41.7791 200.633 41.6174C200.272 41.4529 199.955 41.2264 199.68 40.9377C199.409 40.6462 199.197 40.3115 199.044 39.9334C198.891 39.5524 198.815 39.1454 198.815 38.7125C198.815 38.2767 198.892 37.8683 199.048 37.4873C199.207 37.1064 199.423 36.773 199.698 36.4873C199.975 36.2016 200.292 35.9793 200.65 35.8206C201.011 35.659 201.396 35.5782 201.806 35.5782C202.276 35.5782 202.719 35.6878 203.135 35.9072C203.551 36.1265 203.898 36.4325 204.178 36.825L203.763 37.0501C203.52 36.7268 203.226 36.4786 202.88 36.3055C202.533 36.1294 202.174 36.0414 201.802 36.0414C201.452 36.0414 201.125 36.1121 200.819 36.2535C200.516 36.392 200.249 36.5854 200.018 36.8336C199.787 37.079 199.607 37.3632 199.477 37.6865C199.347 38.0097 199.282 38.3546 199.282 38.7212C199.282 39.0877 199.347 39.4326 199.477 39.7559C199.61 40.0762 199.791 40.3591 200.022 40.6044C200.253 40.8497 200.52 41.0431 200.823 41.1845C201.129 41.323 201.457 41.3923 201.806 41.3923C202.103 41.3923 202.385 41.3404 202.65 41.2365C202.919 41.1297 203.161 40.981 203.378 40.7906C203.594 40.6001 203.776 40.3793 203.923 40.1282C204.07 39.8771 204.173 39.6058 204.23 39.3143H202.429V38.8814H204.772C204.757 39.2941 204.669 39.6808 204.507 40.0416C204.346 40.3995 204.128 40.7155 203.854 40.9897C203.582 41.261 203.271 41.4746 202.919 41.6304C202.569 41.7834 202.196 41.8599 201.797 41.8599Z" fill="white"/>
</svg>
