<svg width="270" height="58" viewBox="0 0 270 58" fill="none" xmlns="http://www.w3.org/2000/svg">
<path d="M20.4112 39.9748C10.6646 31.0613 10.0329 25.9867 10.9353 24.5636C6.56187 27.4445 -1.58109 34.2685 0.834725 38.517C3.25054 42.7655 8.08911 45.9102 10.2064 46.9515L20.4112 39.9748Z" fill="#F0B357"/>
<path d="M0.730878 31.7485C4.39625 25.5007 26.5551 11.1655 37.1764 4.77882C37.1764 4.63998 37.0931 4.3623 36.7598 4.3623C32.2822 3.11274 27.3881 -0.427673 22.9105 1.13428C13.1223 4.3623 6.0415 11.2349 3.12586 14.4629C0.793351 17.0453 0.349066 19.9124 0.418488 21.0231C0.383778 24.7024 0.397662 31.9984 0.730878 31.7485Z" fill="#F0B357"/>
<path d="M21.5342 17.0918C31.2807 26.0053 31.9124 31.0799 31.01 32.5031C35.3834 29.6221 43.5264 22.7981 41.1106 18.5496C38.6948 14.3011 33.8562 11.1564 31.7389 10.1151L21.5342 17.0918Z" fill="#2B2C30"/>
<path d="M41.2144 25.3182C37.5491 31.566 15.3902 45.9012 4.76896 52.2878C4.76896 52.4267 4.85226 52.7043 5.18548 52.7043C9.66307 53.9539 14.5572 57.4943 19.0348 55.9324C28.823 52.7043 35.9038 45.8318 38.8195 42.6037C41.152 40.0213 41.5962 37.1543 41.5268 36.0436C41.5615 32.3643 41.5477 25.0683 41.2144 25.3182Z" fill="#2B2C30"/>
<path d="M65.4666 41.4804C63.8387 41.4804 62.3082 41.1594 60.8753 40.5174C59.4423 39.864 58.1812 38.9641 57.0921 37.8177C56.0145 36.6713 55.1662 35.3472 54.5471 33.8454C53.9396 32.3322 53.6358 30.7158 53.6358 28.9962C53.6358 27.2651 53.9396 25.6487 54.5471 24.1469C55.1662 22.6337 56.0145 21.3096 57.0921 20.1746C58.1812 19.0283 59.4423 18.1341 60.8753 17.4921C62.3082 16.8386 63.8387 16.5119 65.4666 16.5119C67.4154 16.5119 69.2096 16.9647 70.8489 17.8704C72.4882 18.7646 73.8467 19.9626 74.9243 21.4643L70.6941 23.7514C70.0522 22.9948 69.2783 22.3929 68.3727 21.9458C67.467 21.4873 66.4983 21.258 65.4666 21.258C64.4921 21.258 63.575 21.4586 62.7152 21.8598C61.8554 22.2611 61.0988 22.8171 60.4454 23.5279C59.8034 24.2386 59.299 25.0583 58.9321 25.9869C58.5653 26.9155 58.3818 27.9186 58.3818 28.9962C58.3818 30.0623 58.5653 31.0654 58.9321 32.0055C59.299 32.934 59.8034 33.7537 60.4454 34.4645C61.0988 35.1638 61.8554 35.7198 62.7152 36.1325C63.575 36.5337 64.4921 36.7343 65.4666 36.7343C66.5098 36.7343 67.4785 36.5051 68.3727 36.0465C69.2783 35.5879 70.0522 34.9804 70.6941 34.2237L74.9243 36.528C73.8467 38.0183 72.4882 39.2163 70.8489 40.1219C69.2096 41.0276 67.4154 41.4804 65.4666 41.4804ZM78.4939 41.0333V19.5384H92.0971V23.776H82.7314V27.3994H90.0397V31.637H82.7314V36.7958H92.0971V41.0333H78.4939ZM95.5428 41.0333V19.5384H100.118L108.501 33.3719V19.5384H112.739V41.0333H108.163L99.7803 27.1998V41.0333H95.5428ZM132.733 19.5384V23.776H126.407V41.0333H122.169V23.776H115.844V19.5384H132.733ZM135.8 41.0333V19.5384H149.403V23.776H140.037V27.3994H147.346V31.637H140.037V36.7958H149.403V41.0333H135.8ZM152.849 41.0333V19.5384H161.385C162.552 19.5384 163.606 19.8352 164.548 20.4289C165.5 21.0123 166.252 21.8005 166.805 22.7933C167.368 23.776 167.649 24.8661 167.649 26.0636C167.649 27.0053 167.486 27.8805 167.158 28.6891C166.831 29.4875 166.37 30.1886 165.776 30.7925C165.183 31.3964 164.492 31.8673 163.704 32.2051L168.816 41.0333H163.934L159.036 32.5889H157.086V41.0333H152.849ZM157.086 28.3513H160.878C161.339 28.3513 161.759 28.2387 162.137 28.0135C162.526 27.7781 162.833 27.4659 163.059 27.077C163.294 26.6778 163.412 26.2377 163.412 25.7566C163.412 25.2857 163.294 24.8558 163.059 24.4669C162.833 24.0677 162.526 23.7504 162.137 23.515C161.759 23.2795 161.339 23.1618 160.878 23.1618H157.086V28.3513ZM179.45 41.4325C178.242 41.4325 177.085 41.2432 175.98 40.8644C174.884 40.4857 173.922 39.9381 173.093 39.2216C172.274 38.5051 171.686 37.6556 171.327 36.6729L175.304 35.199C175.427 35.547 175.683 35.8745 176.072 36.1816C176.461 36.4784 176.947 36.7241 177.53 36.9186C178.114 37.1028 178.753 37.1949 179.45 37.1949C180.115 37.1949 180.739 37.0977 181.323 36.9032C181.916 36.6985 182.392 36.417 182.751 36.0588C183.119 35.7005 183.303 35.2809 183.303 34.7998C183.303 34.3187 183.114 33.9195 182.735 33.6022C182.356 33.2849 181.87 33.0341 181.277 32.8499C180.683 32.6554 180.074 32.507 179.45 32.4046C177.904 32.1795 176.517 31.8161 175.289 31.3145C174.071 30.8028 173.108 30.1016 172.402 29.2111C171.696 28.3104 171.343 27.1691 171.343 25.7873C171.343 24.4566 171.716 23.2949 172.464 22.302C173.221 21.3092 174.214 20.5364 175.442 19.9837C176.681 19.4309 178.017 19.1546 179.45 19.1546C180.637 19.1546 181.783 19.3439 182.889 19.7226C183.994 20.1014 184.956 20.649 185.775 21.3655C186.604 22.082 187.198 22.9418 187.556 23.9449L183.58 25.3881C183.457 25.0401 183.201 24.7177 182.812 24.4208C182.423 24.124 181.937 23.8834 181.353 23.6992C180.77 23.515 180.135 23.4228 179.45 23.4228C178.794 23.4126 178.17 23.5098 177.576 23.7146C176.993 23.9193 176.512 24.2008 176.133 24.559C175.765 24.9172 175.58 25.3267 175.58 25.7873C175.58 26.3912 175.754 26.8467 176.102 27.1537C176.461 27.4608 176.932 27.6809 177.515 27.8139C178.098 27.947 178.743 28.0647 179.45 28.1671C180.903 28.382 182.244 28.7659 183.472 29.3186C184.7 29.8611 185.683 30.5878 186.42 31.4988C187.167 32.3995 187.541 33.4999 187.541 34.7998C187.541 36.1304 187.167 37.2922 186.42 38.285C185.673 39.2779 184.685 40.0507 183.457 40.6034C182.228 41.1562 180.893 41.4325 179.45 41.4325ZM206.591 19.5384V23.776H200.266V41.0333H196.028V23.776H189.703V19.5384H206.591ZM218.409 41.4325C216.955 41.4325 215.589 41.1459 214.309 40.5727C213.03 39.9893 211.904 39.1858 210.932 38.1622C209.959 37.1386 209.197 35.9564 208.644 34.6156C208.091 33.2644 207.815 31.8212 207.815 30.2859C207.815 28.7505 208.091 27.3124 208.644 25.9715C209.197 24.6204 209.959 23.4331 210.932 22.4095C211.904 21.3859 213.03 20.5876 214.309 20.0144C215.589 19.4309 216.955 19.1392 218.409 19.1392C219.873 19.1392 221.244 19.4309 222.524 20.0144C223.803 20.5876 224.929 21.3859 225.901 22.4095C226.874 23.4331 227.631 24.6204 228.174 25.9715C228.726 27.3124 229.003 28.7505 229.003 30.2859C229.003 31.8212 228.726 33.2644 228.174 34.6156C227.631 35.9564 226.874 37.1386 225.901 38.1622C224.929 39.1858 223.803 39.9893 222.524 40.5727C221.244 41.1459 219.873 41.4325 218.409 41.4325ZM218.409 37.1949C219.279 37.1949 220.098 37.0158 220.865 36.6576C221.633 36.2891 222.309 35.7875 222.892 35.1529C223.475 34.5183 223.931 33.7865 224.259 32.9574C224.596 32.1283 224.765 31.2378 224.765 30.2859C224.765 29.3339 224.596 28.4434 224.259 27.6143C223.931 26.775 223.475 26.0432 222.892 25.4188C222.309 24.7842 221.633 24.2878 220.865 23.9295C220.098 23.561 219.279 23.3768 218.409 23.3768C217.539 23.3768 216.72 23.561 215.952 23.9295C215.185 24.2878 214.509 24.7842 213.926 25.4188C213.342 26.0534 212.882 26.7853 212.544 27.6143C212.216 28.4434 212.052 29.3339 212.052 30.2859C212.052 31.2378 212.216 32.1334 212.544 32.9727C212.882 33.8018 213.342 34.5337 213.926 35.1683C214.509 35.7927 215.185 36.2891 215.952 36.6576C216.72 37.0158 217.539 37.1949 218.409 37.1949ZM232.435 41.0333V19.5384H237.01L245.393 33.3719V19.5384H249.631V41.0333H245.056L236.673 27.1998V41.0333H232.435ZM253.65 41.0333V19.5384H267.253V23.776H257.888V27.3994H265.196V31.637H257.888V36.7958H267.253V41.0333H253.65Z" fill="#515151"/>
<path d="M204.454 55.0782C204.033 55.0782 203.626 55.0139 203.232 54.8851C202.838 54.7525 202.494 54.567 202.198 54.3284C201.907 54.086 201.702 53.7963 201.585 53.4592L202.159 53.2433C202.25 53.5009 202.414 53.7224 202.653 53.908C202.895 54.0898 203.174 54.228 203.488 54.3227C203.806 54.4174 204.128 54.4647 204.454 54.4647C204.84 54.4647 205.202 54.3984 205.539 54.2659C205.876 54.1333 206.149 53.9497 206.357 53.7149C206.565 53.4763 206.669 53.1941 206.669 52.8684C206.669 52.5427 206.561 52.2757 206.345 52.0674C206.13 51.8553 205.851 51.6887 205.51 51.5675C205.173 51.4425 204.821 51.346 204.454 51.2778C203.916 51.1831 203.435 51.0581 203.011 50.9029C202.587 50.7438 202.25 50.5203 202 50.2325C201.753 49.9447 201.63 49.5584 201.63 49.0736C201.63 48.623 201.761 48.2329 202.022 47.9034C202.287 47.5739 202.634 47.3183 203.062 47.1365C203.49 46.9547 203.954 46.8638 204.454 46.8638C204.859 46.8638 205.257 46.9282 205.647 47.057C206.037 47.1819 206.381 47.3656 206.681 47.608C206.98 47.8504 207.196 48.1458 207.328 48.4942L206.743 48.7044C206.652 48.4431 206.487 48.2215 206.249 48.0397C206.01 47.8579 205.732 47.7197 205.414 47.625C205.099 47.5304 204.779 47.483 204.454 47.483C204.064 47.4792 203.7 47.5455 203.363 47.6818C203.03 47.8144 202.759 48 202.551 48.2386C202.346 48.4772 202.244 48.7555 202.244 49.0736C202.244 49.441 202.34 49.725 202.534 49.9258C202.727 50.1265 202.99 50.278 203.323 50.3802C203.657 50.4787 204.033 50.5677 204.454 50.6472C204.954 50.7343 205.418 50.8688 205.846 51.0506C206.277 51.2286 206.624 51.4671 206.885 51.7663C207.15 52.0617 207.283 52.4291 207.283 52.8684C207.283 53.3153 207.15 53.7054 206.885 54.0387C206.624 54.3681 206.279 54.6238 205.851 54.8056C205.423 54.9874 204.957 55.0782 204.454 55.0782ZM208.666 54.9305V46.9774H211.677C212.113 46.9774 212.507 47.0683 212.859 47.2501C213.211 47.4281 213.489 47.6818 213.694 48.0113C213.902 48.3408 214.006 48.7271 214.006 49.1702C214.006 49.3368 213.986 49.513 213.944 49.6985C213.902 49.8803 213.828 50.0507 213.722 50.2098C213.616 50.3689 213.465 50.4938 213.268 50.5847C213.522 50.6453 213.722 50.7589 213.87 50.9256C214.018 51.0922 214.128 51.2854 214.2 51.505C214.275 51.7209 214.324 51.9405 214.347 52.164C214.37 52.3836 214.381 52.5825 214.381 52.7605C214.381 53.1619 214.273 53.5274 214.057 53.8569C213.842 54.1826 213.552 54.4439 213.188 54.6408C212.825 54.834 212.423 54.9305 211.984 54.9305H208.666ZM210.371 53.4876H211.802C211.999 53.4876 212.177 53.4422 212.336 53.3513C212.499 53.2566 212.628 53.1278 212.722 52.965C212.821 52.8021 212.87 52.6166 212.87 52.4083C212.87 52.2341 212.821 52.0693 212.722 51.914C212.628 51.755 212.499 51.6262 212.336 51.5277C212.177 51.4293 211.999 51.38 211.802 51.38H210.371V53.4876ZM210.371 49.9598H211.473C211.7 49.9598 211.895 49.8841 212.058 49.7326C212.221 49.5811 212.302 49.3899 212.302 49.1588C212.302 48.924 212.221 48.7441 212.058 48.6192C211.895 48.4942 211.7 48.4317 211.473 48.4317H210.371V49.9598ZM217.267 46.9774H218.073L220.971 54.9305H220.317L219.664 53.1354H215.682L215.028 54.9305H214.375L217.267 46.9774ZM215.903 52.5219H219.437L217.67 47.6762L215.903 52.5219ZM224.832 54.9305V46.9774H225.446V54.317H229.206V54.9305H224.832ZM230.458 54.9305V46.9774H235.252V47.5909H231.071V50.3632H234.571V50.9767H231.071V54.317H235.252V54.9305H230.458ZM236.73 54.9305V46.9774H237.4L241.854 53.8228V46.9774H242.467V54.9305H241.808L237.343 48.0852V54.9305H236.73ZM244.083 54.9305V46.9774H246.713C247.262 46.9774 247.777 47.0816 248.258 47.2899C248.739 47.4944 249.161 47.7803 249.525 48.1477C249.888 48.5112 250.172 48.9335 250.377 49.4145C250.585 49.8917 250.689 50.4048 250.689 50.954C250.689 51.5031 250.585 52.0182 250.377 52.4992C250.172 52.9763 249.888 53.3986 249.525 53.766C249.161 54.1295 248.739 54.4155 248.258 54.6238C247.777 54.8283 247.262 54.9305 246.713 54.9305H244.083ZM244.696 54.317H246.713C247.179 54.317 247.614 54.2299 248.019 54.0557C248.425 53.8815 248.781 53.641 249.087 53.3342C249.398 53.0237 249.64 52.6658 249.815 52.2606C249.989 51.8553 250.076 51.4198 250.076 50.954C250.076 50.4882 249.989 50.0526 249.815 49.6474C249.64 49.2422 249.398 48.8862 249.087 48.5794C248.777 48.2689 248.419 48.0265 248.014 47.8523C247.609 47.6781 247.175 47.5909 246.713 47.5909H244.696V54.317ZM252.086 54.9305V46.9774H252.7V54.9305H252.086ZM254.482 54.9305V46.9774H255.152L259.606 53.8228V46.9774H260.22V54.9305H259.561L255.096 48.0852V54.9305H254.482ZM265.297 55.0782C264.756 55.0782 264.246 54.9722 263.769 54.7601C263.296 54.5442 262.879 54.247 262.52 53.8682C262.164 53.4857 261.885 53.0464 261.684 52.5503C261.484 52.0504 261.383 51.5164 261.383 50.9483C261.383 50.3764 261.486 49.8405 261.69 49.3406C261.898 48.8407 262.182 48.4033 262.542 48.0284C262.906 47.6534 263.322 47.3618 263.792 47.1535C264.265 46.9414 264.771 46.8354 265.309 46.8354C265.926 46.8354 266.507 46.9793 267.053 47.2671C267.598 47.555 268.055 47.9564 268.422 48.4715L267.877 48.7669C267.558 48.3427 267.172 48.017 266.718 47.7898C266.263 47.5588 265.792 47.4432 265.303 47.4432C264.845 47.4432 264.415 47.536 264.014 47.7216C263.616 47.9034 263.266 48.1571 262.963 48.4828C262.66 48.8047 262.423 49.1778 262.253 49.6019C262.082 50.0261 261.997 50.4787 261.997 50.9597C261.997 51.4406 262.082 51.8932 262.253 52.3174C262.427 52.7378 262.665 53.1089 262.968 53.4308C263.271 53.7527 263.622 54.0065 264.019 54.192C264.421 54.3738 264.851 54.4647 265.309 54.4647C265.699 54.4647 266.068 54.3965 266.417 54.2602C266.769 54.1201 267.087 53.925 267.371 53.6751C267.655 53.4251 267.894 53.1354 268.087 52.8059C268.28 52.4764 268.414 52.1204 268.49 51.7379H266.127V51.1699H269.2C269.181 51.7114 269.066 52.2189 268.854 52.6923C268.642 53.1619 268.356 53.5766 267.996 53.9364C267.64 54.2924 267.231 54.5727 266.769 54.7772C266.311 54.9779 265.82 55.0782 265.297 55.0782Z" fill="#555555"/>
</svg>
