<svg width="56" height="56" viewBox="0 0 56 56" fill="none" xmlns="http://www.w3.org/2000/svg">
<path d="M33.4831 4.66666H22.5164C20.0898 4.66666 18.1064 6.62666 18.1064 9.05333V11.2467C18.1064 13.6733 20.0664 15.6333 22.4931 15.6333H33.4831C35.9098 15.6333 37.8698 13.6733 37.8698 11.2467V9.05333C37.8931 6.62666 35.9098 4.66666 33.4831 4.66666Z" fill="#F0B357"/>
<path d="M40.2268 11.2467C40.2268 14.9567 37.1934 17.99 33.4834 17.99H22.5168C18.8068 17.99 15.7734 14.9567 15.7734 11.2467C15.7734 9.94 14.3734 9.12333 13.2068 9.73C9.91676 11.48 7.67676 14.9567 7.67676 18.9467V40.9033C7.67676 46.6433 12.3668 51.3333 18.1068 51.3333H37.8934C43.6334 51.3333 48.3234 46.6433 48.3234 40.9033V18.9467C48.3234 14.9567 46.0834 11.48 42.7934 9.73C41.6268 9.12333 40.2268 9.94 40.2268 11.2467ZM35.7934 29.7033L26.4601 39.0367C26.1101 39.3867 25.6668 39.55 25.2234 39.55C24.7801 39.55 24.3368 39.3867 23.9868 39.0367L20.4868 35.5367C19.8101 34.86 19.8101 33.74 20.4868 33.0633C21.1634 32.3867 22.2834 32.3867 22.9601 33.0633L25.2234 35.3267L33.3201 27.23C33.9968 26.5533 35.1168 26.5533 35.7934 27.23C36.4701 27.9067 36.4701 29.0267 35.7934 29.7033Z" fill="#F0B357"/>
</svg>
