<svg width="777" height="762" viewBox="0 0 777 762" fill="none" xmlns="http://www.w3.org/2000/svg">
<path d="M545.264 760.855C541.478 761.544 537.559 760.668 534.247 758.709L-534.651 126.367C-557.686 112.74 -568.31 84.8536 -558.951 59.7805C-523.39 -35.4815 -475.289 -121.684 -402.544 -179.953C-283.401 -275.395 -100.59 -270.822 -22.5628 -153.407C-21.624 -151.962 -20.7052 -150.502 -19.8064 -149.03C2.94207 -111.755 54.8991 -85.1928 96.4067 -98.7568C168.004 -122.154 243.128 -120.76 305.186 -83.9802C376.774 -41.5526 415.426 38.7332 423.143 126.734C427.698 178.679 495.141 230.342 547.063 225.533C612.883 219.436 676.796 237.048 721.644 285.217C850.633 423.755 738.703 725.59 545.264 760.855Z" fill="url(#paint0_linear_315_2058)" fill-opacity="0.6"/>
<defs>
<linearGradient id="paint0_linear_315_2058" x1="321.517" y1="-74.3188" x2="11.6175" y2="449.53" gradientUnits="userSpaceOnUse">
<stop stop-color="#F2F2F2"/>
<stop offset="1" stop-color="#F2F2F2" stop-opacity="0"/>
</linearGradient>
</defs>
</svg>
