<svg width="841" height="739" viewBox="0 0 841 739" fill="none" xmlns="http://www.w3.org/2000/svg">
<path d="M231.87 737.855C235.656 738.544 239.576 737.668 242.887 735.709L1311.79 103.367C1334.82 89.7402 1345.44 61.8536 1336.09 36.7805C1300.52 -58.4815 1252.42 -144.684 1179.68 -202.953C1060.53 -298.395 877.724 -293.822 799.697 -176.407C798.758 -174.962 797.839 -173.502 796.941 -172.03C774.192 -134.755 722.235 -108.193 680.728 -121.757C609.13 -145.154 534.006 -143.76 471.949 -106.98C400.361 -64.5526 361.708 15.7332 353.991 103.734C349.436 155.679 281.994 207.342 230.071 202.533C164.251 196.436 100.339 214.048 55.4903 262.217C-73.4992 400.755 38.4315 702.59 231.87 737.855Z" fill="url(#paint0_linear_315_2456)" fill-opacity="0.6"/>
<defs>
<linearGradient id="paint0_linear_315_2456" x1="455.617" y1="-97.3188" x2="765.517" y2="426.53" gradientUnits="userSpaceOnUse">
<stop stop-color="#F2F2F2"/>
<stop offset="1" stop-color="#F2F2F2" stop-opacity="0"/>
</linearGradient>
</defs>
</svg>
