<svg width="67" height="49" viewBox="0 0 67 49" fill="none" xmlns="http://www.w3.org/2000/svg">
<path d="M23.7769 20.2966L29.751 0H13.0235L4.6598 17.8946C0.477928 26.902 0 29.7843 0 33.6274C0 42.9951 6.69099 49 15.7716 49C24.8522 49 31.5432 42.9951 31.5432 33.6274C31.5432 27.2623 28.5562 22.5784 23.7769 20.2966ZM58.4267 20.2966L64.4008 0H47.6733L39.3096 17.8946C35.1277 26.902 34.6498 29.7843 34.6498 33.6274C34.6498 42.9951 41.3408 49 50.4214 49C59.502 49 66.193 42.9951 66.193 33.6274C66.193 27.2623 63.2059 22.5784 58.4267 20.2966Z" fill="#F9A826"/>
</svg>
