<svg width="56" height="56" viewBox="0 0 56 56" fill="none" xmlns="http://www.w3.org/2000/svg">
<path d="M37.777 4.66666H18.2237C9.73032 4.66666 4.66699 9.73 4.66699 18.2233V37.7533C4.66699 46.27 9.73032 51.3333 18.2237 51.3333H37.7537C46.247 51.3333 51.3103 46.27 51.3103 37.7767V18.2233C51.3337 9.73 46.2703 4.66666 37.777 4.66666ZM25.5503 40.8567C24.8737 41.5333 23.5903 42.1867 22.657 42.3267L16.917 43.1433C16.707 43.1667 16.497 43.19 16.287 43.19C15.3303 43.19 14.4437 42.8633 13.8137 42.2333C13.0437 41.4633 12.717 40.3433 12.9037 39.1067L13.7203 33.3667C13.8603 32.41 14.4903 31.15 15.1903 30.4733L25.597 20.0667C25.7837 20.5567 25.9703 21.0467 26.227 21.6067C26.4603 22.0967 26.717 22.61 26.997 23.0767C27.2303 23.4733 27.487 23.8467 27.697 24.1267C27.9537 24.5233 28.257 24.8967 28.4437 25.1067C28.5603 25.27 28.6537 25.3867 28.7003 25.4333C29.2837 26.1333 29.9603 26.7867 30.5437 27.2767C30.707 27.44 30.8003 27.5333 30.847 27.5567C31.197 27.8367 31.547 28.1167 31.8503 28.3267C32.2237 28.6067 32.597 28.8633 32.9937 29.0733C33.4603 29.3533 33.9737 29.61 34.487 29.8667C35.0237 30.1 35.5137 30.31 36.0037 30.4733L25.5503 40.8567ZM40.5303 25.8767L38.3837 28.0467C38.2437 28.1867 38.057 28.2567 37.8703 28.2567C37.8003 28.2567 37.707 28.2567 37.6603 28.2333C32.9237 26.88 29.1437 23.1 27.7903 18.3633C27.7203 18.1067 27.7903 17.8267 27.977 17.6633L30.147 15.4933C33.6937 11.9467 37.077 12.0167 40.5537 15.4933C42.327 17.2667 43.1903 18.97 43.1903 20.7433C43.167 22.4233 42.3037 24.1033 40.5303 25.8767Z" fill="#F0B357"/>
</svg>
