<svg width="483" height="387" viewBox="0 0 483 387" fill="none" xmlns="http://www.w3.org/2000/svg">
<circle cx="226.862" cy="185.048" r="185.048" fill="url(#paint0_linear_315_2167)" fill-opacity="0.1"/>
<path d="M132.376 220.015C132.376 269.936 102.743 287.367 66.1881 287.367C29.6334 287.367 -0.00012207 269.936 -0.00012207 220.015C-0.00012207 170.094 66.1881 106.587 66.1881 106.587C66.1881 106.587 132.376 170.094 132.376 220.015Z" fill="#F2F2F2"/>
<path d="M63.7769 279.73L64.4546 237.951L92.6656 186.264L64.561 231.397L64.8655 212.611L84.3087 175.216L64.9465 207.64L65.4942 173.853L86.3144 144.082L65.5806 168.54L65.9229 106.587L63.7711 188.602L63.9477 185.218L42.7799 152.77L63.6084 191.713L61.6359 229.447L61.5773 228.446L37.1745 194.298L61.5033 231.984L61.2566 236.703L61.2127 236.774L61.2327 237.162L56.2287 332.896H62.9146L63.7168 283.447L87.9858 245.854L63.7769 279.73Z" fill="#3F3D56"/>
<path d="M429.704 339.129C429.704 356.399 340.993 387 231.564 387C122.134 387 33.4238 356.399 33.4238 339.129C33.4238 321.859 122.134 324.459 231.564 324.459C340.993 324.459 429.704 321.859 429.704 339.129Z" fill="#3F3D56"/>
<path opacity="0.1" d="M429.704 339.129C429.704 356.399 340.993 387 231.564 387C122.134 387 33.4238 356.399 33.4238 339.129C33.4238 321.859 122.134 324.459 231.564 324.459C340.993 324.459 429.704 321.859 429.704 339.129Z" fill="black"/>
<path d="M231.564 370.4C340.993 370.4 429.704 356.399 429.704 339.129C429.704 321.859 340.993 307.859 231.564 307.859C122.134 307.859 33.4238 321.859 33.4238 339.129C33.4238 356.399 122.134 370.4 231.564 370.4Z" fill="#7F88A6"/>
<path opacity="0.1" d="M238.771 353.413C264.744 353.413 285.8 349.005 285.8 343.569C285.8 338.132 264.744 333.724 238.771 333.724C212.797 333.724 191.741 338.132 191.741 343.569C191.741 349.005 212.797 353.413 238.771 353.413Z" fill="black"/>
<path d="M185.186 146.575C195.524 146.575 203.903 138.183 203.903 127.83C203.903 117.478 195.524 109.086 185.186 109.086C174.849 109.086 166.469 117.478 166.469 127.83C166.469 138.183 174.849 146.575 185.186 146.575Z" fill="#2F2E41"/>
<path opacity="0.3" d="M149.014 128.775C152.313 128.775 154.987 126.096 154.987 122.792C154.987 119.488 152.313 116.81 149.014 116.81C145.715 116.81 143.04 119.488 143.04 122.792C143.04 126.096 145.715 128.775 149.014 128.775Z" fill="#2F2E41"/>
<path opacity="0.5" d="M157.492 115.742C160.791 115.742 163.466 113.064 163.466 109.76C163.466 106.456 160.791 103.778 157.492 103.778C154.193 103.778 151.519 106.456 151.519 109.76C151.519 113.064 154.193 115.742 157.492 115.742Z" fill="#2F2E41"/>
<path d="M165.97 102.71C169.269 102.71 171.944 100.032 171.944 96.7279C171.944 93.4239 169.269 90.7455 165.97 90.7455C162.671 90.7455 159.997 93.4239 159.997 96.7279C159.997 100.032 162.671 102.71 165.97 102.71Z" fill="#2F2E41"/>
<path opacity="0.3" d="M165.97 102.71C169.269 102.71 171.944 100.032 171.944 96.7279C171.944 93.4239 169.269 90.7455 165.97 90.7455C162.671 90.7455 159.997 93.4239 159.997 96.7279C159.997 100.032 162.671 102.71 165.97 102.71Z" fill="white"/>
<path d="M184.735 236.71C195.072 236.71 203.452 228.318 203.452 217.965C203.452 207.613 195.072 199.221 184.735 199.221C174.398 199.221 166.018 207.613 166.018 217.965C166.018 228.318 174.398 236.71 184.735 236.71Z" fill="#F9A826"/>
<path opacity="0.3" d="M170.854 257.778C174.154 257.778 176.828 255.099 176.828 251.795C176.828 248.491 174.154 245.813 170.854 245.813C167.555 245.813 164.881 248.491 164.881 251.795C164.881 255.099 167.555 257.778 170.854 257.778Z" fill="#F9A826"/>
<path opacity="0.5" d="M160.363 246.309C163.662 246.309 166.336 243.63 166.336 240.326C166.336 237.023 163.662 234.344 160.363 234.344C157.064 234.344 154.389 237.023 154.389 240.326C154.389 243.63 157.064 246.309 160.363 246.309Z" fill="#F9A826"/>
<path d="M149.871 234.84C153.171 234.84 155.845 232.162 155.845 228.858C155.845 225.554 153.171 222.875 149.871 222.875C146.572 222.875 143.898 225.554 143.898 228.858C143.898 232.162 146.572 234.84 149.871 234.84Z" fill="#F9A826"/>
<path opacity="0.3" d="M149.871 234.84C153.171 234.84 155.845 232.162 155.845 228.858C155.845 225.554 153.171 222.875 149.871 222.875C146.572 222.875 143.898 225.554 143.898 228.858C143.898 232.162 146.572 234.84 149.871 234.84Z" fill="white"/>
<path d="M214.904 320.536C214.904 320.536 214.789 327.227 214.218 329C213.647 330.772 214.218 333.003 214.218 333.003L212.048 338.721H219.757C219.757 338.721 221.584 330.372 221.584 329.629C221.584 328.885 220.499 322.595 220.499 322.595L214.904 320.536Z" fill="#FFB9B9"/>
<path d="M220.842 338.264C220.842 338.264 218.901 332.945 210.678 338.264C210.678 338.264 207.423 343.067 209.25 344.554C211.078 346.041 214.218 348.042 216.845 346.899C219.472 345.755 220.499 344.497 220.842 342.152C221.057 340.865 221.057 339.551 220.842 338.264Z" fill="#2F2E41"/>
<path d="M256.473 320.536C256.473 320.536 256.587 327.227 257.158 329C257.729 330.772 257.158 333.003 257.158 333.003L259.328 338.721H251.619C251.619 338.721 249.792 330.372 249.792 329.629C249.792 328.885 250.877 322.595 250.877 322.595L256.473 320.536Z" fill="#FFB9B9"/>
<path d="M250.534 338.264C250.534 338.264 252.476 332.945 260.698 338.264C260.698 338.264 263.953 343.067 262.126 344.554C260.299 346.041 257.158 348.042 254.531 346.899C251.905 345.755 250.877 344.497 250.534 342.152C250.319 340.865 250.319 339.551 250.534 338.264Z" fill="#2F2E41"/>
<path d="M212.962 194.5C212.962 194.5 218.558 202.22 219.243 204.679C219.928 207.138 224.211 206.909 223.925 204.679C223.64 202.449 216.16 190.497 216.16 190.497L212.962 194.5Z" fill="#FFB9B9"/>
<path d="M258.186 191.984C258.186 191.984 250.306 205.365 252.305 206.852C254.303 208.339 261.898 195.186 261.898 195.186L258.186 191.984Z" fill="#FFB9B9"/>
<path d="M250.82 202.449H237.801C235.403 202.449 227.523 203.078 226.267 202.449C225.01 201.82 220.328 201.877 220.328 201.877C220.328 201.877 210.792 223.722 213.362 241.163C215.931 258.604 207.937 318.935 211.706 320.765C215.474 322.595 218.843 324.882 222.098 324.997C225.353 325.111 231.406 323.681 232.091 322.709C232.776 321.737 236.145 236.988 236.145 236.988C236.145 236.988 237.344 320.593 239.571 322.48C241.798 324.367 248.193 325.626 252.19 324.997C256.187 324.367 260.299 322.137 261.098 320.65C261.898 319.164 258.3 277.19 258.3 277.19C258.3 277.19 263.839 212.742 254.703 204.679L250.82 202.449Z" fill="#515066"/>
<path d="M231.691 136.057C231.691 136.057 234.546 145.435 228.893 148.123C223.24 150.81 233.747 172.712 233.747 172.712C233.747 172.712 248.422 153.898 248.422 149.781L245.966 147.322C245.966 147.322 241.17 139.259 242.655 136.743C244.139 134.227 231.691 136.057 231.691 136.057Z" fill="#FFB9B9"/>
<path opacity="0.1" d="M231.691 136.057C231.691 136.057 234.546 145.435 228.893 148.123C223.24 150.81 233.747 172.712 233.747 172.712C233.747 172.712 248.422 153.898 248.422 149.781L245.966 147.322C245.966 147.322 241.17 139.259 242.655 136.743C244.139 134.227 231.691 136.057 231.691 136.057Z" fill="black"/>
<path d="M235.86 168.023L235.444 168.182L235.841 169.222L236.27 168.195L235.86 168.023ZM235.86 168.023C236.27 168.195 236.27 168.195 236.27 168.194L236.27 168.194L236.271 168.191L236.275 168.182L236.291 168.143L236.354 167.993L236.592 167.423C236.797 166.932 237.091 166.229 237.443 165.381C238.149 163.687 239.093 161.417 240.046 159.115C240.999 156.813 241.962 154.478 242.703 152.654C243.074 151.742 243.391 150.957 243.623 150.367C243.85 149.791 244.01 149.371 244.054 149.214C244.072 149.147 244.187 148.99 244.552 148.796C244.888 148.616 245.341 148.455 245.837 148.324C246.843 148.058 247.911 147.944 248.375 147.993C248.465 148.003 248.695 148.057 249.076 148.165C249.441 148.27 249.911 148.415 250.459 148.589C251.554 148.939 252.944 149.402 254.398 149.888C254.583 149.951 254.77 150.013 254.957 150.076C257.691 150.991 260.548 151.948 261.953 152.326C263.333 152.698 264.71 153.711 265.767 154.671C266.289 155.145 266.722 155.596 267.023 155.928C267.174 156.093 267.291 156.228 267.37 156.321L265.173 173.47L265.159 173.514L265.076 173.762C265.003 173.98 264.895 174.299 264.759 174.706C264.485 175.519 264.093 176.683 263.62 178.082C262.674 180.881 261.402 184.624 260.1 188.401C258.797 192.178 257.465 195.987 256.398 198.918C255.865 200.384 255.399 201.628 255.037 202.537C254.856 202.992 254.702 203.359 254.58 203.627C254.519 203.761 254.469 203.865 254.428 203.941C254.412 203.97 254.4 203.991 254.391 204.007C254.389 204.007 254.388 204.008 254.386 204.008C254.331 204.027 254.243 204.049 254.116 204.071C253.864 204.114 253.507 204.151 253.05 204.181C252.14 204.239 250.879 204.263 249.373 204.26C246.363 204.254 242.403 204.138 238.369 203.97C234.336 203.802 230.233 203.582 226.94 203.369C223.632 203.155 221.175 202.949 220.406 202.811C220.152 202.766 219.88 202.592 219.596 202.235C219.313 201.88 219.047 201.38 218.804 200.763C218.318 199.531 217.953 197.919 217.683 196.3C217.415 194.685 217.245 193.086 217.142 191.889C217.09 191.29 217.056 190.793 217.034 190.446C217.023 190.273 217.016 190.137 217.011 190.045L217.005 189.94L217.004 189.914L217.004 189.907L217.004 189.906L217.004 189.905L216.559 189.925L217.004 189.905L217 189.823L216.968 189.748L210.273 174.293L210.281 174.166C210.291 174.012 210.307 173.787 210.327 173.501C210.368 172.927 210.427 172.107 210.503 171.119C210.656 169.142 210.875 166.497 211.142 163.821C211.409 161.143 211.724 158.442 212.067 156.349C212.239 155.301 212.416 154.417 212.595 153.769C212.684 153.444 212.771 153.191 212.852 153.011C212.921 152.859 212.968 152.8 212.98 152.784C212.984 152.779 212.985 152.779 212.981 152.782C213.131 152.681 213.494 152.507 214.063 152.272C214.618 152.043 215.332 151.769 216.156 151.468C217.802 150.867 219.871 150.163 221.94 149.495C224.009 148.827 226.072 148.197 227.708 147.744C228.526 147.518 229.233 147.337 229.777 147.218C230.049 147.159 230.275 147.116 230.452 147.09C230.64 147.063 230.737 147.061 230.769 147.065C230.812 147.069 230.897 147.099 231.02 147.226C231.142 147.354 231.274 147.551 231.407 147.824C231.673 148.368 231.907 149.138 232.089 150.03C232.452 151.813 232.585 153.987 232.391 155.619C232.283 156.537 232.435 157.789 232.701 159.112C232.97 160.448 233.365 161.901 233.771 163.241C234.176 164.582 234.594 165.817 234.911 166.715C235.069 167.165 235.202 167.531 235.296 167.785C235.343 167.912 235.379 168.01 235.405 168.078L235.434 168.155L235.441 168.175L235.443 168.18L235.444 168.181L235.444 168.182C235.444 168.182 235.444 168.182 235.86 168.023ZM254.428 203.992C254.428 203.992 254.427 203.992 254.425 203.993C254.427 203.992 254.428 203.992 254.428 203.992Z" fill="white" stroke="black" stroke-width="0.889655"/>
<path d="M237.829 142.032C244.294 142.032 249.535 136.784 249.535 130.31C249.535 123.835 244.294 118.587 237.829 118.587C231.365 118.587 226.124 123.835 226.124 130.31C226.124 136.784 231.365 142.032 237.829 142.032Z" fill="#FFB9B9"/>
<path d="M241.861 108.638C239.67 105.99 235.191 105.704 232.681 108.051C232.004 108.684 231.471 109.462 230.765 110.062C230.078 110.604 229.316 111.043 228.504 111.365C225.827 112.539 222.985 113.373 220.488 114.893C217.992 116.413 215.804 118.819 215.495 121.728C215.331 123.267 215.702 124.84 215.421 126.362C214.98 128.747 213.066 130.527 211.464 132.346C209.943 134.075 208.574 136.538 209.662 138.569C210.588 140.295 212.857 140.808 214.132 142.295C215.604 144.012 215.416 146.61 214.687 148.752C213.958 150.894 212.773 152.907 212.473 155.15C211.979 158.841 214.005 162.46 216.643 165.086C217.85 166.287 219.238 167.37 220.868 167.863C222.097 168.206 223.394 168.222 224.632 167.909C225.869 167.595 227.003 166.963 227.921 166.075C228.82 165.169 229.493 164.063 229.884 162.847C230.275 161.63 230.373 160.339 230.171 159.077C229.949 157.691 229.38 156.33 229.528 154.934C229.831 152.065 232.955 150.256 233.696 147.468C234.453 144.616 232.541 141.838 231.416 139.111C229.997 135.67 229.797 131.861 229.763 128.139C229.744 126.009 229.963 123.516 231.755 122.369C232.926 121.62 234.416 121.702 235.802 121.599C237.418 121.48 239.026 121.074 240.64 121.224C242.253 121.373 243.957 122.268 244.395 123.83C244.886 125.579 243.646 127.355 243.658 129.172C243.663 130.062 243.972 130.93 243.978 131.821C243.994 134.408 241.6 136.258 240.258 138.468C239.339 140.047 238.922 141.868 239.059 143.689C239.197 145.511 239.884 147.248 241.028 148.67C242.396 150.305 244.458 151.641 244.694 153.761C244.827 154.949 244.328 156.103 244.027 157.261C243.727 158.419 243.678 159.801 244.518 160.652C245.088 161.228 245.934 161.418 246.737 161.525C248.805 161.799 250.906 161.697 252.938 161.224C253.462 161.141 253.954 160.918 254.362 160.579C255.371 159.6 254.74 157.865 255.206 156.537C255.661 155.24 257.078 154.564 258.406 154.216C259.735 153.869 261.17 153.687 262.254 152.842C263.458 151.904 263.986 150.284 263.918 148.757C263.85 147.23 263.262 145.775 262.577 144.41C262.416 144.161 262.338 143.867 262.354 143.571C262.487 142.784 263.609 142.852 264.406 142.842C266.509 142.817 268.122 140.659 268.181 138.554C268.239 136.448 267.119 134.483 265.782 132.858C264.445 131.232 262.854 129.811 261.682 128.062C259.677 125.073 258.98 121.258 256.545 118.609C255.359 117.341 253.841 116.433 252.164 115.986C250.873 115.635 248.935 116.075 247.928 115.154C247.535 114.794 247.367 114.214 246.982 113.831C246.357 113.21 245.502 113.027 244.8 112.524C243.451 111.558 242.891 109.882 241.861 108.638Z" fill="#2F2E41"/>
<path d="M196.346 179.403L195.982 179.146L195.687 179.564L196.142 179.798L216.688 190.395L212.821 197.261C212.701 197.214 212.552 197.155 212.376 197.085C211.858 196.879 211.109 196.581 210.187 196.209C208.343 195.464 205.806 194.425 203.036 193.247C197.487 190.887 191.033 187.981 187.323 185.769C183.604 183.551 182.834 181.949 182.928 180.709C182.977 180.056 183.266 179.424 183.657 178.751C183.781 178.539 183.919 178.318 184.06 178.09C184.345 177.631 184.645 177.149 184.87 176.679C184.923 176.567 185.069 176.363 185.337 176.057C185.596 175.762 185.944 175.401 186.372 174.982C187.226 174.144 188.38 173.092 189.733 171.901C192.439 169.52 195.926 166.6 199.376 163.763C202.825 160.927 206.234 158.176 208.78 156.134C210.053 155.113 211.111 154.27 211.85 153.682C212.22 153.387 212.51 153.157 212.707 153L212.846 152.89L214.393 153.216L210.94 173.583C205.986 172.932 202.284 174.26 199.803 175.786C198.529 176.569 197.579 177.402 196.946 178.042C196.629 178.362 196.391 178.634 196.231 178.828C196.151 178.925 196.09 179.002 196.049 179.057C196.028 179.084 196.012 179.105 196.001 179.12L195.988 179.138L195.984 179.143L195.983 179.145L195.983 179.146C195.983 179.146 195.982 179.146 196.346 179.403Z" fill="white" stroke="black" stroke-width="0.889655"/>
<path d="M262.238 198.682L257.86 191.77C258.015 191.696 258.206 191.604 258.431 191.497C260.476 190.518 265.229 188.227 269.361 186.106C271.425 185.046 273.343 184.024 274.691 183.228C275.361 182.832 275.908 182.483 276.262 182.207C276.432 182.074 276.593 181.933 276.694 181.792C276.741 181.726 276.814 181.607 276.826 181.455C276.84 181.256 276.745 181.08 276.591 180.977C276.367 180.828 275.703 180.278 274.751 179.49L274.649 179.406C273.658 178.587 272.406 177.553 271.109 176.53C269.814 175.509 268.468 174.494 267.291 173.715C266.703 173.325 266.15 172.99 265.662 172.741C265.184 172.498 264.73 172.316 264.349 172.271C264.343 172.27 264.339 172.269 264.332 172.264C264.323 172.259 264.305 172.244 264.28 172.209C264.225 172.134 264.164 171.999 264.111 171.78C264.006 171.342 263.966 170.698 263.988 169.887C264.03 168.276 264.307 166.136 264.663 163.986C265.019 161.84 265.449 159.701 265.791 158.097C265.962 157.295 266.11 156.628 266.216 156.162C266.233 156.089 266.248 156.021 266.262 155.958L267.611 156.572L267.656 156.605C267.709 156.643 267.788 156.701 267.891 156.776C268.097 156.928 268.4 157.15 268.784 157.435C269.551 158.005 270.645 158.826 271.947 159.827C274.551 161.829 277.985 164.55 281.313 167.43C284.645 170.314 287.854 173.343 290.017 175.962C291.1 177.274 291.901 178.46 292.33 179.457C292.767 180.471 292.769 181.168 292.474 181.618C292.096 182.196 291.349 182.913 290.285 183.734C289.23 184.548 287.898 185.439 286.383 186.371C283.355 188.232 279.625 190.238 275.992 192.088C272.362 193.936 268.835 195.624 266.216 196.851C264.906 197.464 263.824 197.961 263.069 198.306C262.718 198.466 262.438 198.592 262.238 198.682Z" fill="white" stroke="black" stroke-width="0.889655"/>
<path d="M292.767 241.573C303.104 241.573 311.484 233.181 311.484 222.828C311.484 212.476 303.104 204.084 292.767 204.084C282.43 204.084 274.05 212.476 274.05 222.828C274.05 233.181 282.43 241.573 292.767 241.573Z" fill="#FF6584"/>
<path d="M306.634 262.646C309.933 262.646 312.608 259.968 312.608 256.664C312.608 253.36 309.933 250.682 306.634 250.682C303.335 250.682 300.661 253.36 300.661 256.664C300.661 259.968 303.335 262.646 306.634 262.646Z" fill="#FF6584"/>
<path opacity="0.3" d="M306.634 262.646C309.933 262.646 312.608 259.968 312.608 256.664C312.608 253.36 309.933 250.682 306.634 250.682C303.335 250.682 300.661 253.36 300.661 256.664C300.661 259.968 303.335 262.646 306.634 262.646Z" fill="white"/>
<path opacity="0.5" d="M317.13 251.182C320.43 251.182 323.104 248.503 323.104 245.199C323.104 241.895 320.43 239.217 317.13 239.217C313.831 239.217 311.157 241.895 311.157 245.199C311.157 248.503 313.831 251.182 317.13 251.182Z" fill="#FF6584"/>
<path opacity="0.3" d="M327.627 239.717C330.926 239.717 333.6 237.038 333.6 233.735C333.6 230.431 330.926 227.752 327.627 227.752C324.328 227.752 321.653 230.431 321.653 233.735C321.653 237.038 324.328 239.717 327.627 239.717Z" fill="#FF6584"/>
<path d="M406.072 305.73C406.072 328.819 392.368 336.877 375.46 336.877C375.069 336.877 374.678 336.873 374.292 336.865C373.506 336.849 372.733 336.812 371.963 336.754C356.705 335.679 344.853 327.204 344.853 305.73C344.853 283.503 373.23 255.446 375.337 253.394L375.341 253.39C375.419 253.312 375.46 253.275 375.46 253.275C375.46 253.275 406.072 282.646 406.072 305.73Z" fill="#F9A826"/>
<path d="M374.345 333.347L385.543 317.683L374.32 335.065L374.292 336.865C373.506 336.849 372.732 336.812 371.963 336.754L373.168 313.661L373.16 313.48L373.181 313.447L373.296 311.268L362.044 293.84L373.329 309.632L373.358 310.093L374.267 292.641L364.636 274.633L374.386 289.576L375.337 253.394L375.341 253.275V253.39L375.18 281.925L384.77 270.616L375.139 284.385L374.888 300.008L383.84 285.015L374.851 302.307L374.711 310.996L387.707 290.124L374.662 314.024L374.345 333.347Z" fill="#3F3D56"/>
<path d="M87.66 336.904C87.66 348.071 81.0322 351.969 72.8544 351.969C72.6654 351.969 72.4763 351.967 72.2893 351.963C71.9093 351.955 71.5352 351.937 71.1631 351.909C63.7832 351.389 58.0508 347.29 58.0508 336.904C58.0508 326.154 71.7759 312.584 72.7947 311.592L72.7967 311.59C72.8345 311.552 72.8544 311.534 72.8544 311.534C72.8544 311.534 87.66 325.74 87.66 336.904Z" fill="#F9A826"/>
<path d="M72.3151 350.261L77.7312 342.685L72.3032 351.092L72.2893 351.963C71.9093 351.955 71.5352 351.937 71.1631 351.909L71.7461 340.74L71.7421 340.653L71.7521 340.637L71.8078 339.583L66.3658 331.154L71.8237 338.791L71.8376 339.015L72.2773 330.574L67.6194 321.864L72.335 329.091L72.7947 311.592L72.7967 311.534V311.59L72.719 325.391L77.3571 319.921L72.6992 326.58L72.5778 334.137L76.9074 326.885L72.5599 335.249L72.4922 339.451L78.7778 329.356L72.4684 340.916L72.3151 350.261Z" fill="#3F3D56"/>
<path d="M344.779 344.24C344.779 355.406 338.151 359.304 329.974 359.304C329.785 359.304 329.596 359.302 329.409 359.298C329.029 359.29 328.654 359.272 328.282 359.244C320.902 358.724 315.17 354.625 315.17 344.24C315.17 333.489 328.895 319.919 329.914 318.927L329.916 318.925C329.954 318.887 329.974 318.869 329.974 318.869C329.974 318.869 344.779 333.075 344.779 344.24Z" fill="#F9A826"/>
<path d="M329.434 357.596L334.85 350.02L329.422 358.427L329.408 359.298C329.028 359.29 328.654 359.272 328.282 359.244L328.865 348.075L328.861 347.988L328.871 347.972L328.927 346.918L323.485 338.489L328.943 346.127L328.957 346.35L329.396 337.909L324.739 329.199L329.454 336.426L329.914 318.927L329.916 318.869V318.925L329.838 332.726L334.476 327.256L329.818 333.916L329.697 341.472L334.027 334.22L329.679 342.584L329.611 346.786L335.897 336.691L329.588 348.251L329.434 357.596Z" fill="#3F3D56"/>
<g filter="url(#filter0_bd_315_2167)">
<path d="M362.09 179.71C398.94 179.71 428.814 149.837 428.814 112.986C428.814 76.1355 398.94 46.2621 362.09 46.2621C325.239 46.2621 295.365 76.1355 295.365 112.986C295.365 149.837 325.239 179.71 362.09 179.71Z" fill="white" fill-opacity="0.6" shape-rendering="crispEdges"/>
<path d="M428.369 112.986C428.369 149.591 398.695 179.266 362.09 179.266C325.485 179.266 295.81 149.591 295.81 112.986C295.81 76.3812 325.485 46.7069 362.09 46.7069C398.695 46.7069 428.369 76.3812 428.369 112.986Z" stroke="url(#paint1_linear_315_2167)" stroke-opacity="0.07" stroke-width="0.889655" shape-rendering="crispEdges"/>
</g>
<path d="M362.007 159.344C387.743 159.344 408.607 138.513 408.607 112.817C408.607 87.1217 387.743 66.2912 362.007 66.2912C336.27 66.2912 315.407 87.1217 315.407 112.817C315.407 138.513 336.27 159.344 362.007 159.344Z" fill="#F0B357"/>
<path d="M408.162 112.817C408.162 138.267 387.498 158.899 362.007 158.899C336.515 158.899 315.852 138.267 315.852 112.817C315.852 87.368 336.515 66.736 362.007 66.736C387.498 66.736 408.162 87.368 408.162 112.817Z" stroke="url(#paint2_linear_315_2167)" stroke-opacity="0.6" stroke-width="0.889655"/>
<path d="M358.342 118.081H365.65C365.65 112.951 373.781 112.08 373.781 104.336C373.781 98.6251 368.747 95.3825 361.488 95.3825C354.954 95.3825 350.405 97.8992 347.791 101.868L353.647 105.304C355.196 103.078 357.568 101.723 360.665 101.723C363.811 101.723 365.892 103.223 365.892 105.594C365.892 109.805 358.342 111.305 358.342 118.081ZM362.02 130.229C364.73 130.229 366.666 128.244 366.666 125.824C366.666 123.356 364.73 121.517 362.02 121.517C359.31 121.517 357.374 123.356 357.374 125.824C357.374 128.244 359.31 130.229 362.02 130.229Z" fill="white"/>
<defs>
<filter id="filter0_bd_315_2167" x="241.986" y="4.44829" width="240.207" height="240.207" filterUnits="userSpaceOnUse" color-interpolation-filters="sRGB">
<feFlood flood-opacity="0" result="BackgroundImageFix"/>
<feGaussianBlur in="BackgroundImage" stdDeviation="20.0172"/>
<feComposite in2="SourceAlpha" operator="in" result="effect1_backgroundBlur_315_2167"/>
<feColorMatrix in="SourceAlpha" type="matrix" values="0 0 0 0 0 0 0 0 0 0 0 0 0 0 0 0 0 0 127 0" result="hardAlpha"/>
<feOffset dy="11.5655"/>
<feGaussianBlur stdDeviation="26.6897"/>
<feComposite in2="hardAlpha" operator="out"/>
<feColorMatrix type="matrix" values="0 0 0 0 0 0 0 0 0 0 0 0 0 0 0 0 0 0 0.12 0"/>
<feBlend mode="normal" in2="effect1_backgroundBlur_315_2167" result="effect2_dropShadow_315_2167"/>
<feBlend mode="normal" in="SourceGraphic" in2="effect2_dropShadow_315_2167" result="shape"/>
</filter>
<linearGradient id="paint0_linear_315_2167" x1="226.862" y1="0" x2="226.862" y2="370.097" gradientUnits="userSpaceOnUse">
<stop stop-color="#F0B357"/>
<stop offset="1" stop-color="#F0B357" stop-opacity="0"/>
</linearGradient>
<linearGradient id="paint1_linear_315_2167" x1="302.25" y1="65.3261" x2="386.449" y2="179.71" gradientUnits="userSpaceOnUse">
<stop/>
<stop offset="1" stop-opacity="0"/>
</linearGradient>
<linearGradient id="paint2_linear_315_2167" x1="345.631" y1="73.8414" x2="418.583" y2="154.8" gradientUnits="userSpaceOnUse">
<stop stop-color="white"/>
<stop offset="1" stop-color="white" stop-opacity="0"/>
</linearGradient>
</defs>
</svg>
