<svg width="52" height="53" viewBox="0 0 52 53" fill="none" xmlns="http://www.w3.org/2000/svg">
<rect y="0.0439453" width="52" height="52" rx="26" fill="white" fill-opacity="0.07"/>
<g clip-path="url(#clip0_800_733)">
<path d="M26.0004 16.0225C23.2788 16.0225 22.9373 16.0344 21.8683 16.083C20.8015 16.1319 20.0733 16.3008 19.4361 16.5486C18.777 16.8046 18.2179 17.147 17.6609 17.7042C17.1035 18.2612 16.7611 18.8203 16.5043 19.4792C16.2559 20.1167 16.0867 20.8451 16.0387 21.9115C15.9909 22.9805 15.9784 23.3223 15.9784 26.0439C15.9784 28.7656 15.9905 29.1061 16.0389 30.1751C16.088 31.2419 16.2569 31.9702 16.5045 32.6074C16.7607 33.2665 17.1031 33.8256 17.6603 34.3826C18.2171 34.9401 18.7762 35.2833 19.4349 35.5393C20.0725 35.7871 20.8009 35.956 21.8675 36.0049C22.9364 36.0535 23.2778 36.0654 25.9992 36.0654C28.7209 36.0654 29.0615 36.0535 30.1304 36.0049C31.1972 35.956 31.9263 35.7871 32.5639 35.5393C33.2227 35.2833 33.781 34.9401 34.3378 34.3826C34.8952 33.8256 35.2376 33.2665 35.4944 32.6076C35.7408 31.9702 35.9099 31.2417 35.96 30.1753C36.008 29.1063 36.0205 28.7656 36.0205 26.0439C36.0205 23.3223 36.008 22.9807 35.96 21.9117C35.9099 20.8449 35.7408 20.1167 35.4944 19.4795C35.2376 18.8203 34.8952 18.2612 34.3378 17.7042C33.7804 17.1467 33.223 16.8043 32.5632 16.5486C31.9244 16.3008 31.1958 16.1319 30.1289 16.083C29.06 16.0344 28.7197 16.0225 25.9973 16.0225H26.0004ZM25.1014 17.8284C25.3682 17.828 25.6659 17.8284 26.0004 17.8284C28.6761 17.8284 28.9932 17.838 30.0498 17.886C31.0269 17.9307 31.5571 18.094 31.9104 18.2312C32.378 18.4128 32.7115 18.6299 33.062 18.9807C33.4127 19.3314 33.6299 19.6655 33.8119 20.1331C33.9491 20.486 34.1125 21.0163 34.157 21.9934C34.205 23.0498 34.2155 23.3672 34.2155 26.0416C34.2155 28.7161 34.205 29.0335 34.157 30.0899C34.1123 31.067 33.9491 31.5973 33.8119 31.9501C33.6303 32.4178 33.4127 32.7508 33.062 33.1013C32.7113 33.4521 32.3783 33.6692 31.9104 33.8509C31.5576 33.9887 31.0269 34.1515 30.0498 34.1962C28.9934 34.2442 28.6761 34.2547 26.0004 34.2547C23.3245 34.2547 23.0074 34.2442 21.951 34.1962C20.9739 34.1511 20.4437 33.9878 20.0902 33.8507C19.6226 33.669 19.2885 33.4519 18.9378 33.1011C18.587 32.7504 18.3699 32.4172 18.1879 31.9493C18.0507 31.5965 17.8872 31.0662 17.8427 30.0891C17.7947 29.0326 17.7851 28.7153 17.7851 26.0391C17.7851 23.363 17.7947 23.0473 17.8427 21.9909C17.8874 21.0138 18.0507 20.4835 18.1879 20.1302C18.3695 19.6626 18.587 19.3285 18.9378 18.9778C19.2885 18.627 19.6226 18.4099 20.0902 18.2278C20.4435 18.09 20.9739 17.9272 21.951 17.8823C22.8755 17.8405 23.2337 17.828 25.1014 17.8259V17.8284ZM31.3496 19.4924C30.6857 19.4924 30.1471 20.0304 30.1471 20.6946C30.1471 21.3585 30.6857 21.8971 31.3496 21.8971C32.0135 21.8971 32.5522 21.3585 32.5522 20.6946C32.5522 20.0306 32.0135 19.492 31.3496 19.492V19.4924ZM26.0004 20.8975C23.1584 20.8975 20.8541 23.2018 20.8541 26.0439C20.8541 28.8861 23.1584 31.1893 26.0004 31.1893C28.8424 31.1893 31.1459 28.8861 31.1459 26.0439C31.1459 23.2018 28.8422 20.8975 26.0002 20.8975H26.0004ZM26.0004 22.7034C27.8451 22.7034 29.3408 24.1989 29.3408 26.0439C29.3408 27.8887 27.8451 29.3844 26.0004 29.3844C24.1555 29.3844 22.66 27.8887 22.66 26.0439C22.66 24.1989 24.1555 22.7034 26.0004 22.7034Z" fill="white"/>
</g>
<defs>
<clipPath id="clip0_800_733">
<rect width="20" height="20" fill="white" transform="translate(16 16.0439)"/>
</clipPath>
</defs>
</svg>
