<svg width="351" height="242" viewBox="0 0 351 242" fill="none" xmlns="http://www.w3.org/2000/svg">
<g clip-path="url(#clip0_502_2705)">
<path d="M29.5068 181.918C15.3151 164.292 5.50715 141.752 8.22536 118.754C9.43884 108.499 13.7477 98.3396 21.5292 91.5294C26.6116 87.0786 32.8763 84.2532 38.795 80.9872C56.4593 71.2407 69.0017 56.4787 83.8628 43.2917C137.783 -4.55573 227.155 -9.85352 283.136 38.6776C319.67 70.3523 340.831 124.722 342.882 172.221C343.258 180.945 343.025 189.845 340.319 198.15C330.23 229.116 286.553 234.78 258.953 237.413C226.127 240.544 191.954 242.401 159.091 240.658C127.048 238.957 94.7315 232.303 67.2047 215.163C52.9109 206.26 40.0621 195.028 29.5068 181.918Z" fill="#F5F6F4"/>
<path d="M21.6163 43.8543C15.6742 49.86 11.5393 57.9266 11.4169 66.3633C11.3886 68.3377 11.602 70.3967 12.6486 72.0725C15.0493 75.9203 20.5626 76.1472 25.0312 75.3214C40.3231 72.498 64.2965 57.486 62.4287 39.1999C60.203 17.4098 29.427 35.9641 21.6163 43.8543Z" fill="#F5F6F4"/>
<path d="M-2.89934 206.305C-5.08665 206.549 -7.2153 207.957 -5.38496 210.338C-1.21159 215.765 13.0701 216.328 19.2983 217.231C28.7645 218.604 38.3287 219.175 47.8839 219.438C88.6539 220.558 129.502 221.288 170.284 220.079C183.712 219.682 197.956 218.755 208.93 211.027C211.622 209.13 204.898 206.058 204.046 205.793C200.222 204.601 195.78 205.064 191.764 205.043C181.862 204.989 171.961 205.202 162.062 205.407C107.044 206.542 52.0391 200.277 -2.8589 206.304L-2.89934 206.305Z" fill="#DACDB9"/>
<path d="M270.477 225.665L260.487 226.24C256.308 226.48 251.783 226.222 247.819 227.533C243.788 228.867 240.002 230.079 236.58 232.716C236.259 232.963 235.927 233.244 235.815 233.632C235.527 234.631 236.775 235.335 237.777 235.623C242.217 236.899 246.702 238.061 251.276 238.718C254.239 239.143 257.227 239.355 260.213 239.56C272.591 240.406 285.049 241.395 297.466 241.896C307.461 242.299 317.759 241.619 326.875 237.513C328.325 236.859 329.834 236.027 330.509 234.589C331.678 232.105 329.053 230.455 327.229 229.419C315.845 222.951 302.039 223.848 289.432 224.573L270.477 225.665Z" fill="#F9A826"/>
<path d="M222.457 100.599C222.457 100.599 219.515 95.3853 212.762 91.8017C206.009 88.2181 200.889 80.9389 204.483 78.9837C208.078 77.0286 220.606 91.1533 222.674 95.6031C224.743 100.053 222.457 100.599 222.457 100.599Z" fill="#001D4F"/>
<path d="M220.496 100.274L219.951 101.794C219.951 101.794 218.695 100.815 216.041 100.292C214.274 99.9429 211.886 99.7957 208.84 100.274C201.215 101.469 196.857 105.053 199.031 99.9479C201.073 95.1634 211.058 93.6217 218.941 99.0828C219.471 99.4478 219.99 99.8448 220.496 100.274Z" fill="#263F72"/>
<path d="M249.472 100.925C244.679 106.03 241.738 102.663 236.832 99.0787C231.925 95.4941 229.315 95.8198 229.207 102.229C229.099 108.638 224.849 101.251 224.849 101.251C224.849 101.164 223.182 99.7624 222.511 97.653C222.33 97.0959 222.237 96.5143 222.234 95.9287C222.234 92.8876 228.439 91.2501 223.974 86.5795C219.508 81.9089 219.285 82.3193 225.603 81.559C231.921 80.7987 236.505 87.5646 236.726 90.8235C236.948 94.0825 256.008 85.067 259.712 92.9955C263.416 100.924 254.265 95.8198 249.472 100.925Z" fill="#263F72"/>
<path d="M218.946 99.0828C219.473 99.4478 219.99 99.8448 220.496 100.274L219.951 101.794C219.951 101.794 218.695 100.815 216.041 100.292C216.966 99.9026 217.952 99.4902 218.946 99.0828Z" fill="#001D4F"/>
<path d="M249.472 100.925C244.679 106.03 241.738 102.663 236.831 99.0788C231.925 95.4942 229.315 95.8199 229.207 102.229C229.098 108.638 224.849 101.251 224.849 101.251C224.849 101.164 223.182 99.7624 222.511 97.653C223.158 97.4019 223.779 97.166 224.358 96.9532C229.523 95.0566 232.187 93.539 237.384 96.321C242.582 99.103 244.213 103.431 249.472 100.925Z" fill="#001D4F"/>
<path d="M249.799 129.71C249.752 130.699 249.677 131.58 249.582 132.365C249.011 137.092 247.73 138.291 247.73 138.291C248.819 138.182 248.927 140.355 248.274 142.526C247.621 144.697 242.937 148.173 242.937 148.173C242.937 148.173 236.836 151.105 231.611 153.495C226.386 155.884 213.092 154.147 206.883 152.626C200.674 151.106 195.337 142.958 192.726 138.611C190.621 135.114 190.846 129.364 192.321 123.911C192.675 122.597 193.101 121.304 193.596 120.037C196.102 113.628 210.154 108.844 215.927 103.198C221.701 97.5511 222.9 99.0707 224.751 100.048C226.603 101.025 228.02 99.831 231.07 101.459C234.12 103.088 234.665 106.565 234.665 106.565C235.1 106.999 240.983 111.126 245.122 114.934C249.261 118.741 250.125 122.758 249.799 129.71Z" fill="#263F72"/>
<path d="M229.538 121.341C228.779 120.924 227.986 120.573 227.167 120.29C226.442 120.027 225.678 119.887 224.906 119.875C224.037 119.875 223.353 120.05 222.854 120.4C222.355 120.75 222.106 121.276 222.105 121.977C222.107 122.219 222.159 122.457 222.256 122.678C222.354 122.9 222.497 123.098 222.674 123.263C223.105 123.677 223.602 124.018 224.144 124.271C224.753 124.572 225.378 124.841 226.016 125.078C226.619 125.304 227.207 125.567 227.777 125.866C228.352 126.166 228.881 126.548 229.344 127.001C229.827 127.481 230.206 128.055 230.457 128.687C230.734 129.36 230.872 130.185 230.872 131.162C230.877 132.177 230.599 133.173 230.068 134.039C229.529 134.924 228.743 135.639 227.711 136.182C226.679 136.726 225.403 136.998 223.884 136.998C223.087 136.996 222.293 136.917 221.512 136.762C219.854 136.438 218.282 135.775 216.894 134.813L218.669 131.687C219.161 132.044 219.686 132.354 220.236 132.613C220.783 132.875 221.355 133.083 221.942 133.235C222.457 133.375 222.989 133.45 223.523 133.457C224.015 133.455 224.505 133.385 224.979 133.249C225.442 133.127 225.863 132.883 226.199 132.543C226.523 132.212 226.685 131.751 226.685 131.16C226.685 130.754 226.542 130.361 226.28 130.051C225.974 129.689 225.608 129.382 225.198 129.143C224.727 128.858 224.23 128.618 223.715 128.424C223.086 128.186 222.439 127.909 221.773 127.594C221.109 127.282 220.481 126.897 219.901 126.447C219.315 125.991 218.832 125.416 218.486 124.76C218.125 124.088 217.945 123.263 217.945 122.285C217.945 121.105 218.208 120.082 218.735 119.215C219.276 118.337 220.048 117.624 220.968 117.154C221.929 116.648 223.038 116.367 224.296 116.311C225.941 116.311 227.277 116.505 228.304 116.892C229.272 117.25 230.198 117.713 231.063 118.274L229.538 121.341ZM222.438 138.653V126.647L223.55 125.347V114.538H225.876V126.125L224.763 127.812V138.653H222.438Z" fill="#001D4F"/>
<path d="M228.023 120.437C227.264 120.021 226.471 119.67 225.652 119.387C224.927 119.125 224.162 118.984 223.391 118.972C222.522 118.972 221.838 119.147 221.339 119.498C220.84 119.848 220.59 120.373 220.59 121.074C220.591 121.315 220.643 121.554 220.741 121.775C220.838 121.996 220.98 122.195 221.158 122.359C221.59 122.773 222.087 123.113 222.628 123.367C223.238 123.668 223.863 123.937 224.5 124.174C225.103 124.4 225.692 124.664 226.262 124.963C226.837 125.262 227.366 125.643 227.829 126.096C228.311 126.577 228.69 127.151 228.942 127.783C229.219 128.455 229.357 129.28 229.357 130.258C229.362 131.273 229.084 132.269 228.553 133.134C228.014 134.02 227.228 134.734 226.195 135.278C225.162 135.822 223.886 136.094 222.368 136.094C221.571 136.092 220.777 136.013 219.996 135.859C218.338 135.535 216.766 134.871 215.379 133.909L217.154 130.783C217.646 131.14 218.17 131.451 218.721 131.709C219.268 131.971 219.84 132.179 220.427 132.332C220.942 132.472 221.473 132.546 222.008 132.552C222.5 132.552 222.99 132.485 223.464 132.351C223.926 132.228 224.348 131.984 224.684 131.645C225.007 131.314 225.169 130.853 225.17 130.262C225.17 129.857 225.027 129.464 224.765 129.153C224.459 128.791 224.093 128.484 223.683 128.246C223.212 127.961 222.716 127.72 222.2 127.527C221.571 127.287 220.924 127.01 220.258 126.697C219.594 126.384 218.966 125.999 218.386 125.55C217.8 125.094 217.317 124.519 216.971 123.863C216.61 123.19 216.43 122.365 216.43 121.387C216.43 120.207 216.693 119.184 217.22 118.317C217.76 117.438 218.533 116.725 219.453 116.257C220.414 115.749 221.523 115.468 222.781 115.413C224.427 115.413 225.763 115.606 226.789 115.994C227.757 116.35 228.683 116.811 229.55 117.37L228.023 120.437ZM220.922 137.75V125.751L222.035 124.451V113.639H224.361V125.227L223.248 126.914V137.755L220.922 137.75Z" fill="white"/>
<path d="M236.85 91.239C235.416 90.639 233.69 90.4021 232.14 90.387C230.643 90.3718 229.05 90.4747 227.727 91.24C225.64 92.45 223.598 94.8004 223.304 97.2597C223.271 97.534 223.693 97.5622 223.77 97.3223C224.505 94.991 225.832 92.7747 228.25 91.8843C229.576 91.3963 230.939 91.3116 232.339 91.2894C233.027 91.2793 233.717 91.2229 234.405 91.236C235.197 91.2693 235.984 91.3915 236.75 91.6C236.991 91.6605 237.066 91.3297 236.851 91.239H236.85Z" fill="#001D4F"/>
<path d="M247.2 137.963C244.344 139.811 241.051 140.934 237.877 142.123C236.235 142.751 234.556 143.283 232.85 143.714C231.965 143.93 231.073 144.084 230.173 144.218C229.302 144.349 228.404 144.407 227.543 144.598C227.133 144.689 227.139 145.319 227.543 145.416C229.3 145.84 231.285 145.439 233.015 145.044C234.826 144.628 236.586 144.018 238.318 143.354C239.989 142.711 241.688 142.064 243.297 141.28C244.807 140.544 246.378 139.611 247.476 138.321C247.635 138.135 247.43 137.811 247.198 137.961L247.2 137.963Z" fill="#001D4F"/>
<path d="M191.89 136.854C193.793 138.763 196.385 139.576 198.96 140.134C200.437 140.457 201.93 140.73 203.426 140.951C204.191 141.064 204.957 141.168 205.724 141.262C206.533 141.363 207.378 141.526 208.19 141.474C208.749 141.438 208.921 140.609 208.328 140.466C207.62 140.289 206.86 140.272 206.134 140.195C205.381 140.115 204.629 140.026 203.878 139.926C202.378 139.725 200.878 139.518 199.388 139.246C196.836 138.78 194.277 138.044 192.108 136.577C191.936 136.461 191.748 136.717 191.889 136.859L191.89 136.854Z" fill="#001D4F"/>
<path d="M234 106.459C232.511 107.595 230.59 107.942 228.764 108.087C227.759 108.168 226.753 108.218 225.748 108.304C225.195 108.35 224.644 108.402 224.092 108.459C223.57 108.513 223.039 108.514 222.575 108.781C222.161 109.021 222.261 109.645 222.707 109.779C223.224 109.934 223.77 109.804 224.298 109.75C224.884 109.689 225.47 109.635 226.057 109.587C227.154 109.495 228.255 109.441 229.349 109.308C231.257 109.075 233.136 108.517 234.431 107.017C234.675 106.734 234.341 106.198 233.999 106.459H234Z" fill="#001D4F"/>
<g opacity="0.37">
<path opacity="0.37" d="M248.274 142.527C247.621 144.7 242.937 148.174 242.937 148.174C242.937 148.174 236.836 151.106 231.611 153.495C226.386 155.885 213.092 154.148 206.883 152.627C200.674 151.107 195.337 142.959 192.726 138.611C190.621 135.115 190.846 129.365 192.321 123.912C196.252 130.022 205.467 141.054 220.503 141.58C236.936 142.155 246.42 135.201 249.59 132.36C249.018 137.087 247.737 138.286 247.737 138.286C248.819 138.182 248.927 140.36 248.274 142.527Z" fill="#001D4F"/>
</g>
<path d="M256.879 145.46C256.117 147.197 244.026 153.606 244.026 153.606C244.026 153.606 246.313 153.932 244.788 156.322C243.263 158.712 233.895 165.012 230.3 165.881C227.736 166.5 209.617 165.795 198.872 164.748C194.545 164.326 191.413 163.849 190.975 163.382C189.449 161.753 189.341 144.156 189.341 144.156C189.341 144.156 190.181 143.848 191.575 143.369C193.27 142.786 195.787 141.95 198.6 141.115C203.72 139.595 220.168 130.47 222.783 131.234C225.399 131.997 224.744 134.709 222.457 136.664C220.169 138.62 209.058 146.764 209.933 147.741C210.807 148.718 225.837 149.914 230.304 148.936C234.771 147.958 244.139 144.047 249.585 143.94C255.032 143.832 257.642 143.722 256.879 145.46Z" fill="#FCD2CD"/>
<path d="M198.872 164.748C194.545 164.326 191.413 163.849 190.975 163.382C189.449 161.753 189.341 144.156 189.341 144.156C189.341 144.156 190.181 143.848 191.575 143.369C192.438 148.174 194.723 158.864 198.872 164.748Z" fill="#F9A826"/>
<path d="M179.537 143.07C179.755 142.961 191.479 141.23 191.172 143.508C190.866 145.786 191.519 153.498 192.936 158.06C194.353 162.623 194.788 163.404 195.878 164.424C196.968 165.443 195.878 167.836 184.984 166.75C174.09 165.664 170.713 164.686 170.927 160.559C171.142 156.432 179.537 143.07 179.537 143.07Z" fill="#F4590F"/>
<path d="M169.95 168.053C169.95 168.053 177.576 169.14 177.14 167.402C176.704 165.663 178.448 161.427 179.972 157.52C181.496 153.613 182.803 142.53 180.516 140.249C178.228 137.968 176.158 142.204 172.237 142.857C168.315 143.509 127.465 143.725 127.465 143.725C127.465 143.725 123.108 152.307 122.019 158.606C120.93 164.905 126.266 168.165 126.266 168.165C126.266 168.165 165.919 167.727 169.95 168.053Z" fill="#3A58A3"/>
<path d="M98.8719 46.0717L21.2383 111.461H176.505L98.8719 46.0717Z" fill="#F2D6A8"/>
<path d="M178.441 112.168H19.3027L98.8718 45.1471L178.441 112.168ZM23.1737 110.756H174.57L98.8718 46.9964L23.1737 110.756Z" fill="#F0B357"/>
<path d="M48.7074 111.462H31.8228V186.411H48.7074V111.462Z" fill="#F9A826"/>
<path d="M87.8148 111.462H70.9302V186.411H87.8148V111.462Z" fill="#F9A826"/>
<path d="M126.921 111.462H110.037V186.411H126.921V111.462Z" fill="#F9A826"/>
<path d="M166.029 111.462H149.144V186.411H166.029V111.462Z" fill="#F9A826"/>
<path d="M49.9592 111.462H31.0066C29.893 111.462 28.9902 112.362 28.9902 113.473V113.796C28.9902 114.907 29.893 115.807 31.0066 115.807H49.9592C51.0729 115.807 51.9756 114.907 51.9756 113.796V113.473C51.9756 112.362 51.0729 111.462 49.9592 111.462Z" fill="#F0B357"/>
<path d="M88.3044 111.462H69.3519C68.2382 111.462 67.3354 112.362 67.3354 113.473V113.796C67.3354 114.907 68.2382 115.807 69.3519 115.807H88.3044C89.418 115.807 90.3208 114.907 90.3208 113.796V113.473C90.3208 112.362 89.418 111.462 88.3044 111.462Z" fill="#F0B357"/>
<path d="M127.956 111.462H109.003C107.89 111.462 106.987 112.362 106.987 113.473V113.796C106.987 114.907 107.89 115.807 109.003 115.807H127.956C129.069 115.807 129.972 114.907 129.972 113.796V113.473C129.972 112.362 129.069 111.462 127.956 111.462Z" fill="#F0B357"/>
<path d="M167.063 111.462H148.111C146.997 111.462 146.094 112.362 146.094 113.473V113.796C146.094 114.907 146.997 115.807 148.111 115.807H167.063C168.177 115.807 169.08 114.907 169.08 113.796V113.473C169.08 112.362 168.177 111.462 167.063 111.462Z" fill="#F0B357"/>
<path d="M49.9592 182.066H31.0066C29.893 182.066 28.9902 182.966 28.9902 184.076V184.4C28.9902 185.51 29.893 186.411 31.0066 186.411H49.9592C51.0729 186.411 51.9756 185.51 51.9756 184.4V184.076C51.9756 182.966 51.0729 182.066 49.9592 182.066Z" fill="#F0B357"/>
<path d="M88.3044 182.066H69.3519C68.2382 182.066 67.3354 182.966 67.3354 184.076V184.4C67.3354 185.51 68.2382 186.411 69.3519 186.411H88.3044C89.418 186.411 90.3208 185.51 90.3208 184.4V184.076C90.3208 182.966 89.418 182.066 88.3044 182.066Z" fill="#F0B357"/>
<path d="M127.956 182.066H109.003C107.89 182.066 106.987 182.966 106.987 184.076V184.4C106.987 185.51 107.89 186.411 109.003 186.411H127.956C129.069 186.411 129.972 185.51 129.972 184.4V184.076C129.972 182.966 129.069 182.066 127.956 182.066Z" fill="#F0B357"/>
<path d="M167.063 182.066H148.111C146.997 182.066 146.094 182.966 146.094 184.076V184.4C146.094 185.51 146.997 186.411 148.111 186.411H167.063C168.177 186.411 169.08 185.51 169.08 184.4V184.076C169.08 182.966 168.177 182.066 167.063 182.066Z" fill="#F0B357"/>
<path d="M184.874 196.838V191.624H176.487V186.411H23.3252V191.624H14.938V196.838H6.22314V207.917H193.589V196.838H184.874Z" fill="#F2D6A8"/>
<path d="M107.149 80.1466C106.271 79.6664 105.354 79.2608 104.407 78.9342C103.569 78.6317 102.686 78.47 101.795 78.456C100.79 78.456 99.9989 78.6578 99.422 79.0615C98.8451 79.4651 98.5566 80.0716 98.5566 80.8808C98.5587 81.1597 98.6181 81.4353 98.731 81.6905C98.8439 81.9458 99.0081 82.1754 99.2134 82.3652C99.7116 82.8455 100.286 83.2408 100.913 83.5353C101.618 83.8809 102.34 84.1899 103.077 84.461C103.774 84.7228 104.454 85.0266 105.114 85.3707C105.779 85.7187 106.39 86.1622 106.925 86.687C107.481 87.2422 107.917 87.9046 108.207 88.6335C108.529 89.4135 108.689 90.3656 108.688 91.4898C108.694 92.661 108.372 93.8106 107.758 94.8097C107.138 95.8305 106.23 96.6549 105.033 97.2828C103.836 97.9107 102.361 98.2247 100.608 98.2247C98.7256 98.218 96.8632 97.8439 95.1259 97.1234C94.2119 96.743 93.3412 96.267 92.5283 95.7033L94.5853 92.0968C95.1542 92.5087 95.7607 92.8666 96.3968 93.1658C97.0293 93.4678 97.6896 93.7083 98.3685 93.8839C98.9645 94.0458 99.5786 94.1318 100.196 94.1399C100.765 94.1377 101.332 94.057 101.879 93.9C102.413 93.7586 102.901 93.478 103.29 93.0869C103.664 92.7037 103.851 92.1713 103.852 91.4898C103.852 91.023 103.687 90.571 103.386 90.2131C103.032 89.7938 102.61 89.4377 102.136 89.1601C101.591 88.8312 101.016 88.5536 100.42 88.3308C99.6938 88.0549 98.9459 87.7356 98.1761 87.3729C97.4082 87.0147 96.6824 86.5733 96.0119 86.0566C95.3344 85.5298 94.777 84.8658 94.3766 84.1086C93.9594 83.3286 93.7507 82.3765 93.7507 81.2523C93.7507 79.8873 94.0554 78.7066 94.6646 77.7101C95.2887 76.6959 96.182 75.873 97.246 75.3321C98.4361 74.7216 99.7484 74.3843 101.087 74.3449C102.988 74.3449 104.532 74.5681 105.719 75.0147C106.839 75.4275 107.909 75.9627 108.91 76.6103L107.149 80.1466ZM98.9415 100.126V86.2745L100.224 84.7755V72.2974H102.917V85.6705L101.635 87.6171V100.127L98.9415 100.126Z" fill="#F0B357"/>
<path d="M105.424 79.1124C104.547 78.6333 103.63 78.2292 102.684 77.9044C101.846 77.603 100.963 77.4424 100.072 77.4294C99.0677 77.4294 98.277 77.631 97.7003 78.0341C97.1236 78.4373 96.8352 79.0415 96.8352 79.8468C96.8375 80.1244 96.897 80.3987 97.0099 80.6527C97.1227 80.9068 97.2867 81.1353 97.4917 81.3243C97.9898 81.8028 98.5639 82.1966 99.191 82.49C99.8956 82.8344 100.618 83.1422 101.354 83.4124C102.051 83.6723 102.73 83.975 103.389 84.3187C104.054 84.6619 104.664 85.1009 105.2 85.6214C105.756 86.1746 106.193 86.8352 106.482 87.5623C106.804 88.3394 106.964 89.288 106.963 90.4081C106.969 91.5744 106.647 92.7194 106.034 93.7143C105.414 94.7333 104.506 95.5551 103.309 96.1798C102.113 96.8044 100.638 97.1167 98.8855 97.1167C97.9659 97.1143 97.0486 97.024 96.1464 96.8471C94.2301 96.4739 92.4127 95.7103 90.8091 94.6046L92.8653 91.0113C93.4337 91.4227 94.04 91.7799 94.6762 92.0779C95.3085 92.3783 95.9686 92.6174 96.6472 92.7919C97.2429 92.9532 97.8569 93.0388 98.4743 93.0469C99.0433 93.0455 99.6094 92.965 100.156 92.808C100.691 92.6677 101.178 92.3879 101.567 91.9978C101.94 91.616 102.127 91.0861 102.127 90.4081C102.128 89.9431 101.963 89.4927 101.663 89.136C101.31 88.7179 100.887 88.363 100.413 88.0869C99.868 87.7593 99.2938 87.4823 98.6975 87.2592C97.972 86.9853 97.2244 86.6676 96.4548 86.3062C95.6869 85.9466 94.9613 85.5039 94.2914 84.9861C93.6142 84.4618 93.057 83.8007 92.6567 83.0466C92.2396 82.2695 92.0311 81.3209 92.0311 80.2009C92.0311 78.8409 92.3356 77.664 92.9446 76.6702C93.5689 75.6605 94.4618 74.8412 95.5251 74.3024C96.7183 73.6982 98.0326 73.3667 99.3717 73.332C101.272 73.332 102.816 73.5544 104.003 73.9993C105.121 74.4115 106.19 74.9446 107.191 75.5891L105.424 79.1124ZM97.22 99.0182V85.2178L98.5007 83.7227V71.2891H101.194V84.6131L99.9122 86.5525V99.0182H97.22Z" fill="white"/>
<path d="M23.8965 191.657H176.24C177.082 191.657 177.083 190.353 176.24 190.353H23.8965C23.0552 190.353 23.0542 191.657 23.8965 191.657Z" fill="#F0B357"/>
<path d="M15.0523 197.346H185.655C186.496 197.346 186.497 196.043 185.655 196.043H15.0523C14.2109 196.043 14.2099 197.346 15.0523 197.346Z" fill="#F0B357"/>
<path d="M40.4271 101.382C41.762 100.319 43.1575 99.3258 44.5055 98.2862C45.7725 97.3142 47.0042 96.2958 48.247 95.2915C50.7529 93.2657 53.2314 91.2037 55.6998 89.1315C60.6852 84.947 65.6787 80.7705 70.6216 76.5344L74.7677 72.9841C75.4331 72.4144 76.0823 71.8366 76.7275 71.2457C77.4121 70.6175 78.1371 70.0357 78.6862 69.2805C79.0907 68.733 78.3343 68.1713 77.8267 68.4234C77.0844 68.7965 76.4575 69.3713 75.8042 69.8825C75.151 70.3937 74.4805 70.92 73.8333 71.4625L70.1322 74.5672C67.6648 76.6356 65.2041 78.7131 62.7502 80.7997C57.8012 85.0165 52.8239 89.2122 47.9639 93.5309C46.6068 94.7409 45.2244 95.9196 43.8997 97.1609C42.575 98.4022 41.2917 99.6817 39.9458 100.899C39.6131 101.201 40.0934 101.649 40.4292 101.382H40.4271Z" fill="white"/>
<path d="M80.5328 67.6248C81.8363 66.3412 83.2025 65.104 84.6121 63.9384C85.3018 63.3687 85.9995 62.806 86.7104 62.2625C87.4213 61.7191 88.2415 61.233 88.7562 60.503C88.9726 60.2005 88.6166 59.8274 88.2951 59.9041C87.4143 60.1158 86.6427 60.7773 85.9338 61.3097C85.2249 61.8421 84.5029 62.4188 83.8203 63.0158C82.4194 64.2461 81.1085 65.5748 79.8977 66.9916C79.5256 67.4252 80.1162 68.0362 80.5328 67.6248Z" fill="white"/>
<path d="M34.4833 126.136C34.1182 127.579 34.1425 129.169 34.0788 130.653C34.0161 132.121 33.9847 133.59 33.9544 135.06C33.8937 138.033 33.8725 141.009 33.8472 143.98C33.7966 149.961 33.8017 155.943 33.7896 161.928C33.7896 163.607 33.7997 165.287 33.8067 166.97C33.8138 168.653 34.102 170.331 34.2891 172.012C34.373 172.764 35.3792 172.765 35.4631 172.012C35.634 170.477 35.9051 168.941 35.9435 167.394C35.9799 165.927 35.9556 164.455 35.9607 162.987C35.9728 160.014 35.9526 157.038 35.9465 154.067C35.9344 148.086 35.9465 142.102 35.8191 136.119C35.7847 134.44 35.7625 132.76 35.6917 131.082C35.6229 129.464 35.6684 127.721 35.27 126.141C35.1689 125.754 34.5803 125.753 34.4822 126.141L34.4833 126.136Z" fill="white"/>
<path d="M73.2823 127.274C72.9567 129.402 72.9921 131.595 72.9607 133.742C72.9284 135.939 72.8849 138.137 72.8798 140.334C72.8684 144.693 72.8593 149.052 72.8525 153.411V157.073C72.8525 158.336 72.9324 159.58 73.0265 160.839C73.0327 160.986 73.0956 161.125 73.2022 161.227C73.3088 161.329 73.4507 161.386 73.5983 161.386C73.746 161.386 73.8879 161.329 73.9944 161.227C74.101 161.125 74.164 160.986 74.1702 160.839C74.4938 156.461 74.3461 152.047 74.335 147.657C74.3239 143.297 74.3107 138.939 74.247 134.579C74.2116 132.159 74.2814 129.676 73.9133 127.274C73.8658 126.963 73.3309 126.963 73.2823 127.274Z" fill="white"/>
<path d="M112.06 130.191C111.984 130.454 111.865 130.695 111.813 130.96C111.766 131.211 111.75 131.472 111.718 131.727C111.651 132.28 111.617 132.844 111.599 133.4C111.561 134.481 111.559 135.563 111.539 136.644C111.499 138.841 111.493 141.038 111.481 143.235C111.456 147.629 111.444 152.023 111.444 156.418V160.184C111.444 160.776 111.436 161.371 111.453 161.962C111.472 162.6 111.472 163.311 111.687 163.916C111.729 164.051 111.814 164.168 111.928 164.252C112.042 164.336 112.18 164.381 112.322 164.381C112.464 164.381 112.602 164.336 112.716 164.252C112.83 164.168 112.915 164.051 112.957 163.916C113.315 162.907 113.198 161.66 113.2 160.602C113.2 159.521 113.2 158.44 113.2 157.359V150.768C113.2 146.376 113.205 141.977 113.125 137.586L113.056 133.819C113.045 133.226 113.013 132.632 112.961 132.041C112.934 131.727 112.894 131.412 112.852 131.099C112.806 130.772 112.678 130.508 112.587 130.192C112.57 130.136 112.535 130.088 112.488 130.053C112.441 130.019 112.384 130 112.326 130C112.268 130 112.211 130.019 112.164 130.053C112.117 130.088 112.082 130.136 112.065 130.192L112.06 130.191Z" fill="white"/>
<path d="M151.77 128.7C151.327 134.328 151.493 139.999 151.493 145.64V162.378C151.493 163.981 151.481 165.585 151.493 167.189C151.505 168.792 151.612 170.392 151.74 172C151.74 172.112 151.785 172.219 151.864 172.298C151.944 172.377 152.051 172.422 152.164 172.422C152.276 172.422 152.384 172.377 152.463 172.298C152.543 172.219 152.587 172.112 152.587 172C153.039 166.375 152.837 160.698 152.836 155.059V138.321C152.836 136.717 152.823 135.114 152.815 133.51C152.807 131.907 152.687 130.306 152.56 128.699C152.555 128.598 152.511 128.503 152.438 128.434C152.365 128.365 152.268 128.326 152.167 128.326C152.066 128.326 151.969 128.365 151.896 128.434C151.823 128.503 151.78 128.598 151.774 128.699L151.77 128.7Z" fill="white"/>
<path d="M8.01504 199.3C11.967 199.425 15.9219 199.422 19.8768 199.447C23.8318 199.472 27.7837 199.509 31.7376 199.509C33.9805 199.509 36.2235 199.577 38.4563 199.362C38.5478 199.357 38.634 199.317 38.697 199.251C38.7601 199.184 38.7952 199.097 38.7952 199.005C38.7952 198.914 38.7601 198.826 38.697 198.76C38.634 198.693 38.5478 198.654 38.4563 198.649C36.4985 198.458 34.5438 198.5 32.578 198.5C30.5825 198.5 28.588 198.507 26.5945 198.521C22.6405 198.545 18.6866 198.57 14.7327 198.596C12.4918 198.611 10.2549 198.639 8.01504 198.709C7.93646 198.709 7.8611 198.74 7.80553 198.796C7.74996 198.851 7.71875 198.926 7.71875 199.005C7.71875 199.083 7.74996 199.158 7.80553 199.214C7.8611 199.269 7.93646 199.3 8.01504 199.3Z" fill="white"/>
<path d="M16.2971 193.061C17.4095 193.131 18.5219 193.203 19.6393 193.236C20.1965 193.252 20.7516 193.257 21.3108 193.268C21.8266 193.278 22.2644 193.285 22.7337 193.045C22.7839 193.015 22.8255 192.973 22.8544 192.922C22.8833 192.871 22.8985 192.814 22.8985 192.755C22.8985 192.697 22.8833 192.64 22.8544 192.589C22.8255 192.538 22.7839 192.496 22.7337 192.466C22.2644 192.226 21.8235 192.234 21.3108 192.243C20.7536 192.254 20.1985 192.259 19.6393 192.275C18.5269 192.308 17.4095 192.376 16.2971 192.45C16.2159 192.45 16.1379 192.483 16.0805 192.54C16.023 192.597 15.9907 192.675 15.9907 192.756C15.9907 192.837 16.023 192.915 16.0805 192.972C16.1379 193.029 16.2159 193.061 16.2971 193.061Z" fill="white"/>
<path d="M25.6128 187.708C26.0597 187.781 26.4703 187.878 26.9335 187.896C27.3794 187.913 27.8264 187.915 28.2723 187.924C29.1481 187.942 30.1037 188.025 30.9582 187.806C31.3627 187.705 31.3627 187.094 30.9582 186.991C30.1057 186.774 29.146 186.856 28.2723 186.874C27.8264 186.883 27.3784 186.882 26.9335 186.902C26.4703 186.922 26.0597 187.018 25.6128 187.089C25.3094 187.14 25.3094 187.659 25.6128 187.708Z" fill="white"/>
<path d="M243.989 153.703C242.417 154.339 240.944 155.261 239.417 156.002C238.645 156.376 237.867 156.737 237.082 157.085C236.385 157.396 235.464 157.633 235.001 158.271C234.864 158.461 235.056 158.66 235.239 158.684C235.979 158.785 236.812 158.236 237.464 157.924C238.265 157.539 239.06 157.14 239.847 156.728C241.335 155.953 242.936 155.193 244.251 154.146C244.453 153.985 244.235 153.605 243.993 153.703H243.989Z" fill="#F9A826"/>
<path d="M315.649 45.7349C310.367 51.0791 303.217 54.218 295.978 56.2791C281.07 60.5211 265.256 60.6361 250.022 58.2262C249.011 58.0662 247.995 57.8964 246.975 57.717C243.86 57.1684 240.742 56.5281 237.658 55.7679C234.06 54.8915 230.513 53.8207 227.032 52.5603C221.363 50.4892 215.908 47.679 211.333 43.7515C208.563 41.3749 206.023 38.3691 205.55 34.7562C205.146 31.6647 206.359 28.4955 208.41 26.141C211.059 23.0908 214.847 21.4381 218.67 20.3814C222.692 19.2722 226.812 18.5664 230.833 17.4401C235.035 16.2583 239.179 14.8779 243.291 13.4179C250.504 10.8567 257.808 8.52239 265.245 6.69529C269.481 5.65268 273.788 4.86719 278.143 4.54149C286.425 3.92783 294.746 4.97668 302.615 7.62599C311.311 10.5602 320.008 16.3309 322.233 25.2103C324.054 32.4925 320.93 40.3847 315.649 45.7349Z" fill="#F2D6A8"/>
<path d="M272.766 221.082C272.224 221.082 272.397 228.896 271.907 232.304C271.806 233.035 271.667 233.563 271.487 233.769C271.215 234.081 268.735 234.204 268.339 234.204H260.908C256.086 234.204 252.421 234.362 247.618 234.304C247.922 233.632 248.239 232.949 248.709 232.376L248.716 232.368C249.02 232 249.463 231.707 249.965 231.461C250.902 231.008 252.046 230.734 252.888 230.486C256.793 229.334 259.512 229.42 263.415 228.006C263.92 227.823 264.503 226.52 265.007 225.074C265.7 223.09 266.247 220.839 266.247 220.839C268.395 220.843 270.626 220.912 272.766 221.082Z" fill="#AA350C"/>
<path d="M272.766 221.082C272.224 221.082 272.397 228.896 271.907 232.304C271.806 233.035 271.667 233.563 271.487 233.769C271.215 234.081 268.735 234.204 268.339 234.204H260.908C256.086 234.204 252.421 234.362 247.618 234.304C247.922 233.632 248.239 232.949 248.709 232.376L248.716 232.368C249.02 232 249.463 231.707 249.965 231.461C254.042 231.691 262.403 232.047 265.321 231.319C269.242 230.342 270.223 226.431 266.302 225.453C265.791 225.326 265.364 225.199 265.007 225.074C265.7 223.09 266.247 220.839 266.247 220.839C268.395 220.843 270.626 220.912 272.766 221.082Z" fill="#771C00"/>
<path d="M248.764 232.412L271.907 232.304C271.806 233.035 271.667 233.563 271.487 233.769C271.215 234.081 268.735 234.204 268.339 234.204H260.908C256.086 234.204 252.421 234.362 247.618 234.304C247.922 233.632 248.239 232.949 248.709 232.376L248.764 232.412Z" fill="black"/>
<path d="M304.592 233.987C297.986 235.727 294.237 235.253 293.091 234.252C292.797 233.997 292.673 233.707 292.716 233.412C292.759 233.176 292.874 232.959 293.046 232.792C294.571 231.162 306.117 228.229 307.534 226.818C307.982 226.371 308.147 225.761 308.161 225.135C308.189 224.025 307.749 222.87 307.59 222.492C307.554 222.409 307.534 222.364 307.534 222.364L307.63 222.317C308.374 221.963 313.249 219.757 313.852 222.364C314.439 224.899 315.289 226.647 315.693 228.706C315.739 228.941 315.779 229.18 315.813 229.424C316.14 231.816 314.07 231.488 304.592 233.987Z" fill="#AA350C"/>
<path d="M304.592 233.987C297.986 235.727 294.237 235.253 293.091 234.252C292.797 233.997 292.673 233.707 292.716 233.412C298.966 233.122 309.744 230.196 311.401 229.37C313.362 228.393 313.362 225.459 310.421 225.459C309.286 225.459 308.59 225.314 308.161 225.135C308.189 224.025 307.749 222.87 307.59 222.492C307.603 222.434 307.616 222.376 307.63 222.317C308.374 221.963 313.249 219.757 313.852 222.364C314.439 224.899 315.289 226.647 315.693 228.706C315.739 228.941 315.779 229.18 315.813 229.424C316.14 231.816 314.07 231.488 304.592 233.987Z" fill="#771C00"/>
<path d="M304.593 233.987C297.986 235.727 294.238 235.253 293.091 234.252C294.979 234.203 305.034 233.708 315.693 228.706C315.739 228.941 315.78 229.18 315.813 229.424C316.14 231.816 314.07 231.488 304.593 233.987Z" fill="black"/>
<path d="M316.139 223.015C315.675 223.71 314.797 223.954 314.004 223.969C312.144 224.004 307.5 225 306.006 223.666C305.028 222.791 304.917 217.798 302.631 212.263C301.334 209.121 296.535 199.309 292.62 191.223C290.838 187.542 289.242 184.219 288.242 182.047C287.565 180.576 287.162 179.628 287.162 179.461C287.162 179.461 289.969 172.045 293.034 165.778C295.914 159.889 299.02 155.017 300.234 158.28C300.614 159.304 301.024 160.682 301.447 162.297C301.997 164.403 302.568 166.909 303.128 169.557C304.962 178.246 306.675 188.472 307.1 191.083C307.751 195.099 317.664 220.734 316.139 223.015Z" fill="#3A58A3"/>
<path d="M303.126 169.555C300.007 177.415 295.812 187.108 292.621 191.222C290.839 187.541 289.243 184.218 288.243 182.046C287.566 180.575 287.163 179.626 287.163 179.46C287.163 179.46 289.97 172.044 293.035 165.777C295.915 159.888 299.021 155.016 300.235 158.279C300.615 159.303 301.025 160.681 301.448 162.296C301.995 164.4 302.562 166.906 303.126 169.555Z" fill="#2B4C8E"/>
<path d="M300.236 158.277C300.235 159.989 300.026 161.695 299.614 163.357C297.761 170.881 292.162 176.692 288.244 182.044C286.45 184.498 285.008 186.853 284.44 189.234C282.371 197.924 275.182 223.233 273.438 224.644C271.695 226.056 264.397 224.102 264.179 222.907C263.962 221.712 266.467 195.534 268.21 189.452C269.378 185.372 274.126 173.767 277.125 166.562C278.596 163.027 279.647 160.554 279.647 160.554C279.647 160.554 285.403 156.03 290.827 153.821C293.126 152.884 295.367 152.363 297.084 152.78C298.978 153.242 300.236 154.841 300.236 158.277Z" fill="#3A58A3"/>
<g opacity="0.37">
<path opacity="0.37" d="M301.45 162.294C300.854 162.678 300.241 163.031 299.617 163.357C297.532 164.428 295.323 165.241 293.039 165.777C287.138 167.202 281.107 167.004 277.128 166.569C278.6 163.033 279.65 160.56 279.65 160.56C279.65 160.56 285.406 156.037 290.831 153.827C292.721 153.453 294.799 153.104 297.087 152.786C298.981 153.244 300.238 154.843 300.238 158.279C300.615 159.3 301.025 160.679 301.45 162.294Z" fill="#001D4F"/>
</g>
<path d="M285.258 162.543C285.662 164.365 286.343 166.181 287.43 167.712C287.905 168.406 288.496 169.013 289.177 169.507C289.804 169.946 290.776 170.499 291.565 170.328C291.975 170.239 292.004 169.674 291.677 169.472C291.35 169.269 290.964 169.242 290.615 169.099C290.295 168.964 289.99 168.795 289.705 168.595C289.037 168.125 288.459 167.538 287.999 166.863C287.055 165.487 286.334 163.972 285.864 162.372C285.746 161.981 285.167 162.143 285.258 162.539V162.543Z" fill="#001D4F"/>
<path d="M284.44 105.488C284.238 105.629 275.616 112.983 262.218 117.653C248.819 122.324 249.324 121.862 249.324 121.862C249.324 121.862 249.55 123.364 249.783 124.962C250.017 126.56 249.609 128.257 249.851 128.188C251.356 127.778 280.627 119.171 284.44 114.066C288.254 108.96 287.494 103.315 284.44 105.488Z" fill="#992902"/>
<path d="M292.688 104.943C290.281 105.506 287.962 106.396 285.798 107.588L282.928 109.138C282.965 108.366 282.982 107.593 282.978 106.819C282.978 106.276 282.966 105.734 282.941 105.191C282.924 104.757 282.9 104.323 282.869 103.889C282.817 103.144 282.746 102.4 282.657 101.658C281.599 102.751 279.75 102.969 278.469 102.147C277.549 101.559 277.021 100.579 276.768 99.5426C276.677 99.1685 276.719 98.6432 276.432 98.3588C276.039 97.9716 275.461 97.7962 275.065 97.3677C274.986 97.2985 274.935 97.2026 274.923 97.0984C274.93 97.0118 274.965 96.9299 275.024 96.8655C275.211 96.6512 275.414 96.451 275.631 96.2665C276.453 95.479 276.972 94.2922 276.905 93.1488C276.884 92.6728 276.839 92.1982 276.767 91.727C276.751 91.6191 276.732 91.5112 276.709 91.4064C276.646 91.1079 276.557 90.8153 276.444 90.5321C276.386 90.391 276.081 89.9725 276.098 89.8445L276.255 88.6758C277.309 87.2843 279.053 86.5452 280.789 86.3324C282.525 86.1197 284.281 86.3718 286.012 86.6238C287.036 86.7721 288.116 86.9455 288.918 87.5989C289.858 88.3673 290.212 89.6347 290.373 90.8357C290.694 93.2426 290.442 95.6878 290.534 98.1148C290.566 99.3013 290.732 100.48 291.029 101.63C291.357 102.85 291.88 103.984 292.688 104.943Z" fill="#FCD2CD"/>
<g opacity="0.5">
<path opacity="0.5" d="M292.688 104.943C290.281 105.506 287.962 106.396 285.798 107.588L282.928 109.138C282.965 108.366 282.982 107.592 282.978 106.819C282.978 106.276 282.966 105.734 282.941 105.191C285.192 103.847 288.98 101.914 289.1 100.616C289.25 98.982 286.737 94.3648 285.34 93.7669C283.942 93.1689 284.809 89.8495 283.338 89.2646C281.868 88.6798 280.832 89.7053 279.53 91.2188C278.822 92.0436 277.668 91.97 276.766 91.732C276.75 91.6241 276.731 91.5162 276.708 91.4114C276.645 91.1129 276.556 90.8204 276.443 90.5372C276.385 90.396 276.08 89.9775 276.097 89.8495L276.254 88.6808C277.308 87.2893 279.052 86.5502 280.788 86.3374C282.524 86.1247 284.28 86.3768 286.011 86.6288C287.035 86.7771 288.115 86.9505 288.917 87.6039C289.857 88.3723 290.211 89.6397 290.371 90.8407C290.693 93.2476 290.441 95.6928 290.533 98.1198C290.565 99.3063 290.731 100.485 291.028 101.635C291.357 102.85 291.88 103.984 292.688 104.943Z" fill="#F9A826"/>
</g>
<path d="M292.688 104.943C290.281 105.506 287.962 106.396 285.798 107.588L282.928 109.138C282.965 108.366 282.982 107.592 282.978 106.819C283.802 105.527 284.894 104.427 286.181 103.592C287.822 102.522 289.771 101.929 291.028 101.632C291.357 102.85 291.88 103.984 292.688 104.943Z" fill="#F9A826"/>
<path d="M296.471 87.6655C296.396 88.4123 296.233 89.1478 295.986 89.8566C295.913 90.0794 295.834 90.3003 295.753 90.5191C295.114 92.2468 294.298 93.9045 293.319 95.466L292.828 95.3772L293.644 99.1232C293.768 99.6979 292.41 98.9669 291.327 98.2157C290.731 97.8023 290.215 97.3818 290.081 97.168C289.206 95.8158 289.549 94.0986 288.846 92.814C288.442 92.0699 287.251 91.9267 286.678 92.5539C286.516 92.7324 286.4 92.9572 286.215 93.1075C286.03 93.2577 285.728 93.3232 285.56 93.1498C285.999 91.5798 284.675 87.363 282.547 87.5737C281.624 87.6655 281.031 88.5508 280.493 89.3061C279.981 90.031 279.38 90.7369 278.56 91.0878C278.051 91.2972 277.494 91.3598 276.952 91.2683C276.409 91.1769 275.903 90.935 275.492 90.5705C275.42 90.5076 275.353 90.4403 275.29 90.3688C274.961 89.9904 274.735 89.5345 274.633 89.0444C274.531 88.5543 274.556 88.0463 274.706 87.5687L274.033 88.5569C273.249 87.7421 273.245 86.4061 273.737 85.3887C274.23 84.3713 275.118 83.611 276.01 82.9152C276.706 82.3728 277.435 81.8434 278.268 81.5469C279.101 81.2505 280.064 81.2122 280.842 81.6316L281.738 81.0125C284.564 79.2268 288.228 78.6197 291.333 79.859C294.437 81.0982 296.758 84.343 296.471 87.6655Z" fill="#39383A"/>
<path d="M253.394 131.556C252.966 131.833 252.298 132.045 251.508 132.205C248.887 132.734 244.921 132.676 243.916 132.425C242.61 132.1 242.937 131.556 242.937 131.556C242.391 131.339 240.213 131.014 239.995 129.927C239.776 128.84 240.976 128.515 240.976 128.515C240.976 128.515 240.648 128.189 241.193 127.755C241.738 127.32 246.856 126.777 247.294 126.669C247.732 126.561 247.947 126.343 246.531 125.474C245.116 124.605 245.006 123.084 246.096 123.736C247.186 124.387 249.036 125.256 250.017 125.582C250.349 125.693 250.817 125.853 251.293 126.016C252.223 126.336 253.176 126.669 253.176 126.669C253.176 126.669 255.245 130.361 253.394 131.556Z" fill="#FCD2CD"/>
<path d="M253.393 131.556C252.966 131.833 252.297 132.045 251.507 132.205C251.566 129.968 251.374 127.088 251.293 126.016C252.222 126.336 253.176 126.669 253.176 126.669C253.176 126.669 255.245 130.361 253.393 131.556Z" fill="#F9A826"/>
<path d="M312.858 43.4592C307.577 48.8034 300.427 51.9423 293.188 54.0033C278.28 58.2454 262.466 58.3613 247.231 55.9504C246.22 55.7898 245.204 55.62 244.184 55.4412C241.07 54.8927 237.952 54.2524 234.868 53.4921C231.27 52.6157 227.722 51.545 224.241 50.2846C218.572 48.2135 213.117 45.4033 208.542 41.4758C205.773 39.0992 203.233 36.0933 202.759 32.4805C202.355 29.3899 203.568 26.2197 205.619 23.8652C208.269 20.815 212.057 19.1624 215.88 18.1056C219.902 16.9965 224.022 16.2906 228.043 15.1643C232.245 13.9826 236.389 12.6022 240.5 11.1421C247.714 8.58093 255.017 6.24664 262.455 4.41954C266.69 3.37692 270.997 2.59143 275.352 2.26574C283.634 1.65207 291.955 2.70092 299.823 5.35023C308.52 8.28448 317.217 14.0552 319.441 22.9356C321.263 30.2127 318.14 38.1059 312.858 43.4592Z" fill="white"/>
<path d="M288.362 14.2456L285.094 31.6252L279.102 27.3902C279.102 27.3902 257.967 52.3727 257.967 52.047C257.967 51.7213 250.126 44.7699 250.126 44.7699L244.184 55.439C241.07 54.8905 237.952 54.2502 234.868 53.4899C234.868 53.4597 248.165 36.19 248.165 36.19L258.076 43.0335L273.547 23.2641L268.101 18.7024L288.362 14.2456Z" fill="#FD893D"/>
<path d="M241.104 128.668C242.051 128.818 243.007 128.898 243.966 128.907C244.914 128.927 245.904 128.96 246.842 128.8C246.999 128.774 246.952 128.539 246.805 128.534C245.863 128.498 244.911 128.59 243.966 128.578C243.02 128.565 242.076 128.502 241.134 128.477C241.026 128.477 240.997 128.651 241.108 128.67L241.104 128.668Z" fill="#F9A826"/>
<path d="M240.248 129.797C242.388 130.36 244.784 130.641 246.977 130.2C247.01 130.19 247.038 130.169 247.057 130.14C247.075 130.112 247.083 130.077 247.078 130.043C247.074 130.01 247.057 129.979 247.032 129.956C247.006 129.933 246.973 129.92 246.939 129.92C245.849 129.987 244.784 130.103 243.687 130.053C242.546 130.006 241.411 129.865 240.293 129.63C240.272 129.627 240.251 129.631 240.233 129.643C240.215 129.654 240.202 129.672 240.196 129.692C240.19 129.712 240.192 129.734 240.202 129.753C240.211 129.772 240.228 129.787 240.248 129.795V129.797Z" fill="#F9A826"/>
<path d="M242.979 131.653C244.353 131.832 245.804 131.71 247.156 131.407C247.307 131.373 247.277 131.118 247.119 131.134C245.729 131.272 244.388 131.564 242.979 131.463C242.853 131.454 242.86 131.638 242.979 131.653Z" fill="#F9A826"/>
<path d="M275.943 164.577H275.995C275.995 164.579 275.995 164.581 275.995 164.583L275.943 164.577Z" fill="#DD4A10"/>
<path d="M275.998 164.585L276.523 164.661C276.565 164.914 276.154 164.801 275.998 164.585Z" fill="#DD4A10"/>
<path d="M311.461 152.846C306.317 163.837 284.598 164.634 277.914 164.612C276.863 164.612 276.185 164.586 276 164.579C275.99 164.566 275.981 164.552 275.973 164.537C274.511 161.686 274.325 158.371 274.277 155.168C274.141 146.26 275.154 136.936 275.851 128.053C275.326 128.277 274.799 128.498 274.272 128.717C272.152 129.606 269.988 130.386 267.788 131.055C265.187 131.827 262.494 132.309 259.842 132.885C258.316 133.217 256.797 133.591 255.238 133.734C255.009 133.756 252.076 134.003 252.075 133.968C252.083 133.682 252.087 133.396 252.088 133.111C252.094 131.777 252.079 130.443 252.033 129.11C252.012 128.443 251.983 127.777 251.945 127.11C251.912 126.491 251.93 125.831 251.728 125.238C255.09 124.922 258.332 123.664 261.494 122.549C263.679 121.777 265.842 120.935 267.941 119.961C271.11 118.498 274.149 116.735 276.868 114.538C279.705 112.246 282.147 109.507 284.099 106.431C285.467 104.274 288.078 103.314 290.502 102.498L293.94 101.336C294.064 101.28 294.203 101.264 294.337 101.289C294.469 101.345 294.576 101.445 294.641 101.572C295.293 102.598 295.357 103.877 295.4 105.091C295.406 105.345 298.307 107.572 298.755 108.302C300.122 110.529 300.693 113.269 301.113 115.809C302.638 125.042 304.489 134.709 306.342 142.204C308.194 149.699 311.461 152.846 311.461 152.846Z" fill="#DD4A10"/>
<g opacity="0.65">
<path opacity="0.65" d="M297.577 135.591C297.644 136.422 297.633 137.26 297.722 138.091C298.044 141.102 299.627 143.812 301.176 146.417C301.346 146.705 301.693 147.033 301.958 146.826C302.044 146.743 302.102 146.636 302.125 146.519C302.48 145.333 302.677 144.105 302.712 142.868C302.731 142.674 302.705 142.478 302.638 142.295C302.546 142.128 302.425 141.979 302.28 141.855C301.465 141.039 300.97 139.967 300.492 138.919L298.646 134.876C298.521 134.602 298.116 133.824 297.694 133.996C297.287 134.163 297.55 135.259 297.577 135.591Z" fill="#AA350C"/>
</g>
<g opacity="0.65">
<path opacity="0.65" d="M287.306 125.023C286.126 127.837 279.124 141.921 278.531 153.268C278.221 159.194 278.025 162.657 277.909 164.612C276.858 164.612 276.18 164.586 275.995 164.579C275.985 164.566 275.976 164.552 275.968 164.537C274.506 161.686 274.32 158.371 274.272 155.168C274.136 146.26 275.149 136.936 275.846 128.053C275.846 128.053 280.482 126.524 283.099 124.494C285.716 122.464 288.487 122.21 287.306 125.023Z" fill="#AA350C"/>
</g>
<path d="M297.719 133.672C297.727 134.632 297.596 135.588 297.588 136.543C297.583 137.336 297.634 138.128 297.739 138.913C297.934 140.404 298.339 141.86 298.941 143.239C299.255 143.951 299.651 144.624 300.123 145.244C300.561 145.828 301.012 146.461 301.635 146.867C302.062 147.145 302.628 147.175 302.997 146.772C303.324 146.414 303.241 145.974 303.199 145.536C303.153 145.062 303.098 144.589 303.048 144.115C302.993 143.618 303.018 143.107 302.909 142.623C302.848 142.354 302.474 142.389 302.397 142.623C302.222 143.154 302.195 143.732 302.07 144.282C302.014 144.542 301.955 144.8 301.906 145.06C301.873 145.228 301.833 145.659 301.764 145.714L302.333 145.479L302.18 145.471L302.584 145.58C300.816 144.535 299.579 142.485 298.977 140.576C298.656 139.546 298.444 138.486 298.346 137.413C298.23 136.167 298.264 134.913 298.11 133.672C298.081 133.432 297.721 133.416 297.722 133.672H297.719Z" fill="#6B1C00"/>
<path d="M276.387 145.853C276.601 146.257 277.112 146.489 277.504 146.694C277.987 146.949 278.487 147.172 278.999 147.361C280.008 147.734 281.046 148.023 282.104 148.225C283.128 148.422 284.167 148.54 285.21 148.577C286.304 148.611 287.316 148.577 288.296 148.06C288.515 147.946 288.454 147.611 288.23 147.547C287.287 147.283 286.369 147.305 285.398 147.266C284.382 147.227 283.371 147.112 282.373 146.92C281.407 146.735 280.455 146.48 279.526 146.16C279.064 146 278.603 145.834 278.142 145.663C277.719 145.504 277.191 145.204 276.735 145.259C276.437 145.294 276.236 145.571 276.391 145.857L276.387 145.853Z" fill="#6B1C00"/>
<path d="M277.205 127.622C279.379 127.449 281.345 126.554 283.207 125.468C284.17 124.906 285.096 124.289 286.03 123.681C286.497 123.379 286.968 123.081 287.439 122.783C287.909 122.484 288.478 122.279 288.705 121.723C288.806 121.472 288.59 121.084 288.319 121.046C287.737 120.966 287.323 121.312 286.849 121.612C286.401 121.895 285.969 122.203 285.54 122.513C284.655 123.153 283.787 123.816 282.902 124.457C281.164 125.715 279.288 126.82 277.149 127.211C276.919 127.254 276.969 127.64 277.205 127.622Z" fill="#6B1C00"/>
<path d="M275.943 164.577H275.995C275.995 164.579 275.995 164.581 275.995 164.583L275.943 164.577Z" fill="#F9A826"/>
<path d="M275.998 164.585L276.523 164.661C276.565 164.914 276.154 164.801 275.998 164.585Z" fill="#F9A826"/>
<path d="M289.687 105.976C291.512 105.828 293.259 105.405 295.062 105.131C295.466 105.068 295.299 104.372 294.888 104.503C293.201 105.042 291.377 105.28 289.637 105.606C289.43 105.644 289.475 105.993 289.687 105.976Z" fill="#6B1C00"/>
<path d="M285.218 100.209C285.246 100.343 285.135 100.565 285.11 100.67C285.055 100.911 284.987 101.149 284.908 101.384C284.752 101.852 284.531 102.296 284.25 102.703C283.898 103.208 283.424 103.616 282.872 103.889C282.939 103.857 282.785 102.829 282.771 102.712C282.751 102.505 282.729 102.298 282.706 102.093C282.691 101.949 282.605 101.689 282.69 101.568C282.791 101.45 282.921 101.361 283.067 101.309C283.261 101.219 283.444 101.107 283.628 101.007C284.018 100.786 284.39 100.535 284.74 100.255C284.799 100.201 284.865 100.156 284.937 100.121C284.974 100.105 285.013 100.097 285.053 100.098C285.093 100.1 285.132 100.111 285.167 100.131C285.193 100.15 285.212 100.178 285.218 100.209Z" fill="#F9A826"/>
<path d="M287.174 94.4888C287.241 94.5613 287.322 94.6192 287.413 94.6591C287.503 94.699 287.601 94.72 287.7 94.7208C287.834 94.7245 287.967 94.6918 288.085 94.6261C288.202 94.5605 288.299 94.4644 288.366 94.348C288.433 94.2317 288.467 94.0994 288.465 93.9653C288.462 93.8312 288.423 93.7002 288.352 93.5864C288.28 93.4711 288.176 93.3798 288.052 93.3239C287.928 93.2681 287.79 93.2503 287.656 93.2728C287.485 93.2963 287.326 93.3749 287.203 93.4966C286.959 93.7326 286.94 94.0714 287.001 94.382C287.021 94.479 287.06 94.5712 287.116 94.6529C287.172 94.7346 287.244 94.8042 287.328 94.8575C287.412 94.9109 287.505 94.9469 287.603 94.9634C287.701 94.9799 287.801 94.9766 287.898 94.9537C288.036 94.9172 288.16 94.8432 288.258 94.7399C288.396 94.5862 288.474 94.3877 288.476 94.1813C288.494 94.0102 288.451 93.8383 288.357 93.6942C288.263 93.5501 288.123 93.4423 287.959 93.3888C287.864 93.3604 287.765 93.3516 287.668 93.3629C287.57 93.3742 287.476 93.4053 287.39 93.4543C287.285 93.5162 287.197 93.6046 287.137 93.7108C287.076 93.817 287.045 93.9372 287.045 94.0593C287.045 94.1449 287.062 94.2296 287.095 94.3087C287.128 94.3878 287.176 94.4596 287.237 94.5201C287.36 94.6411 287.526 94.7095 287.699 94.7107C287.872 94.7104 288.038 94.6419 288.161 94.5201L288.262 94.388C288.321 94.2884 288.352 94.1749 288.352 94.0593V94.0442L288.263 94.3729L288.271 94.3608L288.037 94.5937L288.049 94.5846L287.893 94.6512L287.907 94.6451L287.734 94.6683C287.745 94.6653 287.757 94.6653 287.768 94.6683L287.594 94.6451L287.61 94.6502L287.453 94.5846L287.466 94.5947L287.233 94.3608L287.245 94.3789L287.179 94.2236C287.186 94.2365 287.19 94.2505 287.192 94.265L287.169 94.0916C287.172 94.1318 287.172 94.1723 287.169 94.2126L287.192 94.0391C287.189 94.056 287.185 94.0725 287.179 94.0885L287.245 93.9332L287.233 93.9554L287.334 93.8233C287.326 93.8358 287.316 93.8465 287.303 93.8546L287.436 93.7538L287.417 93.7639L287.572 93.6973L287.552 93.7034L287.726 93.6792H287.705L287.879 93.7024L287.859 93.6953L288.148 93.8627L288.131 93.8496L288.232 93.9817C288.222 93.9709 288.214 93.9582 288.209 93.9444L288.276 94.0996C288.264 94.0564 288.254 94.0122 288.249 93.9675L288.272 94.141C288.269 94.1115 288.269 94.0817 288.272 94.0522L288.249 94.2257C288.251 94.2085 288.256 94.1918 288.264 94.1763L288.198 94.3315L288.21 94.3114L288.109 94.4435C288.118 94.4303 288.129 94.4185 288.141 94.4082L288.008 94.509C288.02 94.499 288.033 94.4912 288.048 94.4858L287.892 94.5514L287.913 94.5453L287.739 94.5685H287.761L287.588 94.5453H287.61L287.219 94.2428L287.231 94.259L287.165 94.1037C287.171 94.1149 287.174 94.1273 287.175 94.14L287.152 93.9675V93.9867L287.175 93.8133C287.174 93.8263 287.17 93.839 287.164 93.8506L287.23 93.6943L287.219 93.7104L287.321 93.5783L287.306 93.5924L287.439 93.4916L287.422 93.5007L287.577 93.4351L287.559 93.4412L287.733 93.418C287.72 93.42 287.707 93.42 287.695 93.418L287.869 93.4412L287.849 93.4351L288.005 93.5017L287.988 93.4926L288.12 93.5934C288.109 93.5865 288.1 93.5772 288.093 93.5662C288.032 93.5057 287.96 93.4577 287.881 93.425C287.802 93.3923 287.717 93.3755 287.631 93.3757C287.458 93.3768 287.292 93.4452 287.169 93.5662C287.047 93.6887 286.978 93.8543 286.978 94.027L287.001 94.2005C287.031 94.3091 287.089 94.4081 287.169 94.4878L287.174 94.4888Z" fill="#F9A826"/>
<path d="M292.91 95.473C292.44 94.7173 292.072 93.9038 291.814 93.053C291.701 92.6628 291.612 92.2665 291.529 91.8682C291.446 91.4699 291.435 90.998 291.236 90.628C291.146 90.4596 290.831 90.4787 290.8 90.6844C290.735 91.1019 290.867 91.5264 290.949 91.9378C291.042 92.4222 291.161 92.9014 291.304 93.3737C291.574 94.2398 291.952 95.0626 292.618 95.6989C292.651 95.7299 292.693 95.7483 292.738 95.7506C292.783 95.753 292.828 95.7391 292.863 95.7117C292.899 95.6842 292.923 95.6449 292.933 95.601C292.942 95.557 292.934 95.5112 292.913 95.472L292.91 95.473Z" fill="black"/>
<path d="M274.961 87.1774C274.99 86.8567 275.436 86.5502 275.649 86.3394C275.893 86.0995 276.13 85.8534 276.376 85.6155C276.601 85.3977 276.825 85.1809 277.058 84.9721C277.152 84.8884 277.647 84.346 277.756 84.346C278.434 84.346 278.434 83.3094 277.756 83.2973C277.357 83.2892 277.091 83.5474 276.813 83.8015C276.423 84.1628 276.061 84.5524 275.729 84.9671C275.242 85.5721 274.569 86.3515 274.587 87.1753C274.587 87.4184 274.941 87.4113 274.961 87.1753V87.1774Z" fill="black"/>
<g opacity="0.4">
<path opacity="0.4" d="M293.319 95.4659L292.828 95.3772L293.644 99.1231C293.768 99.6979 292.41 98.9668 291.327 98.2156C290.732 97.8022 290.215 97.3817 290.081 97.168C289.207 95.8158 289.549 94.0986 288.847 92.814C288.442 92.0698 287.251 91.9267 286.679 92.5538C286.517 92.7323 286.4 92.9572 286.215 93.1074C286.03 93.2576 285.728 93.3232 285.56 93.1498C285.999 91.5798 284.675 87.3629 282.548 87.5737C281.624 87.6654 281.031 88.5508 280.493 89.306C279.981 90.031 279.38 90.7368 278.56 91.0877C278.052 91.2972 277.494 91.3598 276.952 91.2683C276.409 91.1768 275.904 90.935 275.492 90.5704C275.421 90.5076 275.353 90.4402 275.29 90.3688C275.37 90.4454 277.414 91.242 278.452 90.0945C279.491 88.947 281.945 85.0529 284.805 87.7915C287.42 90.2982 294.746 89.9402 295.983 89.8596C295.91 90.0824 295.831 90.3032 295.75 90.522C295.112 92.2486 294.297 93.9053 293.319 95.4659Z" fill="black"/>
</g>
<path d="M293.372 82.3072C293.965 81.7389 294.666 81.2955 295.435 81.0034C295.835 80.8527 296.243 80.7238 296.657 80.6172C297.03 80.5163 297.388 80.48 297.568 80.113C297.608 80.039 297.619 79.9524 297.598 79.8708C297.576 79.7892 297.524 79.7189 297.452 79.6744C297.058 79.4152 296.623 79.628 296.211 79.7641C295.735 79.9156 295.269 80.1006 294.819 80.3177C294.035 80.7049 293.403 81.2393 292.967 82.0026C292.826 82.2527 293.161 82.5179 293.372 82.3112V82.3072Z" fill="#39383A"/>
<path d="M293.056 81.5419C293.48 80.5658 294.033 79.3235 293.641 78.2477C293.615 78.1639 293.562 78.0907 293.491 78.0387C293.421 77.9868 293.335 77.9587 293.247 77.9587C293.159 77.9587 293.073 77.9868 293.002 78.0387C292.931 78.0907 292.879 78.1639 292.853 78.2477C292.699 78.7075 292.727 79.2247 292.684 79.7047C292.636 80.2421 292.641 80.7957 292.543 81.3261C292.491 81.6125 292.921 81.8545 293.056 81.5419Z" fill="#39383A"/>
<path d="M277.989 93.5833C277.908 93.6477 277.841 93.7283 277.793 93.82C277.745 93.9118 277.717 94.0125 277.711 94.1157C277.714 94.1811 277.734 94.2444 277.77 94.2996C277.805 94.3548 277.854 94.3998 277.912 94.4303C277.97 94.4608 278.035 94.4758 278.101 94.4736C278.166 94.4715 278.23 94.4524 278.286 94.4182C278.46 94.3174 278.548 94.0845 278.578 93.8949C278.591 93.8254 278.594 93.7544 278.587 93.6842C278.576 93.5833 278.587 93.663 278.587 93.6842C278.584 93.6479 278.578 93.6118 278.57 93.5763C278.543 93.4863 278.488 93.4074 278.413 93.351C278.337 93.2946 278.246 93.2637 278.152 93.2627C277.82 93.2627 277.657 93.5854 277.619 93.8677C277.58 94.15 277.612 94.4102 277.848 94.5927C277.916 94.6402 277.992 94.673 278.073 94.6891C278.154 94.7051 278.237 94.704 278.318 94.6859C278.398 94.6677 278.474 94.6329 278.54 94.5836C278.606 94.5344 278.661 94.4719 278.701 94.4001C278.77 94.2743 278.808 94.1344 278.814 93.9913C278.819 93.8482 278.791 93.7058 278.732 93.5753C278.537 93.2062 277.985 93.2335 277.793 93.5894C277.726 93.7286 277.691 93.8808 277.691 94.0351C277.691 94.1893 277.726 94.3416 277.793 94.4807C277.894 94.7056 278.222 94.756 278.419 94.6441C278.67 94.4989 278.753 94.1692 278.762 93.8979C278.768 93.7726 278.752 93.6473 278.713 93.5279C278.68 93.4243 278.617 93.3333 278.53 93.2675C278.443 93.2018 278.338 93.1645 278.23 93.1609C278.027 93.1377 277.858 93.3161 277.802 93.4855C277.779 93.5622 277.779 93.6438 277.802 93.7205C277.815 93.7648 277.848 93.8072 277.858 93.8526L277.839 93.8021C277.849 93.8516 277.851 93.8596 277.847 93.8274C277.843 93.7951 277.847 93.8667 277.847 93.8758C277.847 93.8848 277.84 93.9705 277.847 93.9242C277.854 93.8778 277.837 93.9625 277.834 93.9705C277.794 94.1137 277.782 93.9604 277.958 93.8576L278.583 94.0209C278.598 94.0403 278.606 94.0635 278.607 94.0875C278.605 94.059 278.605 94.0303 278.607 94.0018C278.6 94.0472 278.601 94.0482 278.607 94.0018C278.627 93.9262 278.607 93.9554 278.553 94.0895L278.351 94.2065L278.294 94.2125L278.065 94.15L278.092 94.1662L277.929 94.0028C277.902 93.8657 277.893 93.8415 277.902 93.9282C277.902 93.9786 277.902 93.9897 277.902 93.9605C277.902 93.9312 277.902 93.9413 277.902 93.9816C277.951 93.8546 278.066 93.7941 278.247 93.8021L278.449 93.9181C278.457 93.9252 278.514 94.031 278.5 94.0411C278.502 94.0025 278.502 93.9638 278.5 93.9252C278.5 93.8243 278.506 93.9635 278.482 93.9564C278.482 93.9564 278.53 93.8768 278.534 93.8717L278.391 94.0129L278.405 94.0079L278.113 94.0452H278.132L277.881 93.7941C277.892 93.8213 277.889 93.8243 277.881 93.7941C277.881 93.8112 277.881 93.8768 277.881 93.8727C277.874 93.8907 277.868 93.9092 277.865 93.9282C277.865 93.9655 277.854 93.91 277.922 93.8747L278.083 93.8314H278.055L278.214 93.8747L278.189 93.8637L278.301 93.9756C278.32 94.0562 278.32 94.0482 278.301 93.9504C278.297 93.944 278.293 93.9364 278.292 93.9285C278.291 93.9205 278.292 93.9124 278.295 93.905C278.299 93.8592 278.311 93.8142 278.329 93.7719C278.407 93.5632 278.126 93.4533 277.985 93.5702L277.989 93.5833Z" fill="#39383A"/>
<path d="M277.878 93.0459C277.946 93.0133 278.021 92.9964 278.097 92.9964C278.174 92.9964 278.249 93.0133 278.317 93.0459C278.436 93.0913 278.529 93.17 278.655 93.1871C278.672 93.187 278.688 93.1826 278.702 93.1743C278.716 93.1661 278.728 93.1543 278.736 93.1401C278.744 93.126 278.748 93.1099 278.748 93.0936C278.748 93.0772 278.744 93.0612 278.736 93.047C278.534 92.7878 278.058 92.7212 277.781 92.8826C277.76 92.896 277.744 92.9174 277.738 92.9423C277.732 92.9672 277.736 92.9934 277.75 93.0152C277.763 93.037 277.785 93.0526 277.81 93.0585C277.834 93.0645 277.861 93.0603 277.883 93.047L277.878 93.0459Z" fill="#39383A"/>
<path d="M278.082 93.6217C278.048 93.6838 278.029 93.7527 278.025 93.8233C278.02 93.8984 278.038 93.9733 278.076 94.0381C278.099 94.0778 278.135 94.1088 278.178 94.1262C278.221 94.1436 278.268 94.1465 278.313 94.1345C278.358 94.1225 278.397 94.0962 278.425 94.0596C278.454 94.0231 278.469 93.9784 278.469 93.9322C278.471 93.9006 278.467 93.8689 278.458 93.8385C278.458 93.8324 278.442 93.7679 278.448 93.7951C278.445 93.7707 278.441 93.7465 278.436 93.7225C278.436 93.7023 278.427 93.6832 278.424 93.663C278.414 93.628 278.393 93.5967 278.366 93.5729C278.338 93.5492 278.304 93.534 278.267 93.5293C278.231 93.5246 278.194 93.5306 278.161 93.5464C278.128 93.5623 278.101 93.5874 278.082 93.6186V93.6217Z" fill="white"/>
<path d="M277.865 99.1342C278.296 99.4781 278.892 99.4579 279.408 99.3308C279.827 99.23 280.564 98.9961 280.676 98.5242C280.682 98.4839 280.677 98.4425 280.659 98.4055C280.642 98.3686 280.613 98.3378 280.578 98.3172C280.542 98.2967 280.502 98.2873 280.461 98.2904C280.42 98.2935 280.381 98.3089 280.349 98.3346C280.02 98.621 279.628 98.8259 279.205 98.9326C278.763 99.0445 278.385 98.9608 277.943 98.9437C277.922 98.9444 277.901 98.9513 277.883 98.9636C277.865 98.9759 277.852 98.993 277.843 99.0129C277.835 99.0328 277.833 99.0546 277.837 99.0758C277.841 99.0969 277.851 99.1165 277.865 99.1322V99.1342Z" fill="#39383A"/>
<path d="M279.97 94.7732C279.923 95.2441 279.889 95.714 279.851 96.1849C279.835 96.3654 280.129 96.3694 280.136 96.1849C280.158 95.7141 280.146 95.2424 280.102 94.7732C280.1 94.7571 280.093 94.7423 280.08 94.7315C280.068 94.7208 280.053 94.7148 280.036 94.7148C280.02 94.7148 280.004 94.7208 279.992 94.7315C279.98 94.7423 279.972 94.7571 279.97 94.7732Z" fill="#ED7B7A"/>
<path d="M280.508 94.7832C280.493 94.994 280.49 95.2054 280.498 95.4165C280.498 95.6081 280.451 95.8117 280.506 95.9963C280.514 96.0208 280.528 96.0427 280.548 96.0593C280.568 96.0758 280.592 96.0864 280.617 96.0897C280.643 96.093 280.669 96.0889 280.692 96.0779C280.716 96.0668 280.735 96.0494 280.749 96.0275C280.84 95.839 280.821 95.6242 280.809 95.4165C280.81 95.1922 280.771 94.9695 280.696 94.758C280.687 94.7398 280.671 94.725 280.653 94.7155C280.635 94.7061 280.614 94.7025 280.593 94.7052C280.573 94.708 280.554 94.7169 280.538 94.7309C280.523 94.7448 280.513 94.7631 280.508 94.7832Z" fill="#ED7B7A"/>
<path d="M281.172 94.6673C281.157 95.0767 281.086 95.5476 281.172 95.9519C281.21 96.1183 281.448 96.0437 281.424 95.8824C281.363 95.4861 281.377 95.0686 281.352 94.6673C281.352 94.643 281.342 94.6197 281.325 94.6024C281.308 94.5852 281.285 94.5756 281.26 94.5756C281.236 94.5756 281.212 94.5852 281.195 94.6024C281.178 94.6197 281.168 94.643 281.168 94.6673H281.172Z" fill="#ED7B7A"/>
<g opacity="0.22">
<path opacity="0.22" d="M281.536 94.5816C281.159 94.4655 280.76 94.4381 280.37 94.5014C279.981 94.5647 279.611 94.7171 279.29 94.9466C278.547 95.5022 278.922 96.4591 279.753 96.6608C280.118 96.7339 280.495 96.724 280.856 96.6319C281.217 96.5397 281.553 96.3676 281.838 96.1284C282.15 95.8471 282.385 95.4145 282.219 94.995C282.146 94.8105 282.006 94.6605 281.826 94.5753C281.646 94.4901 281.441 94.4762 281.251 94.5362C280.454 94.7944 280.795 96.0487 281.598 95.7926L281.672 95.7694L281.166 95.7029L281.055 95.5748L280.966 95.2461L280.955 95.3701L281.045 95.0414C280.933 95.2431 280.726 95.3127 280.511 95.3631C280.399 95.3883 280.287 95.3832 280.176 95.4044H280.098C279.971 95.354 279.988 95.3893 280.149 95.5053V95.8521L280.179 95.7654L280.011 96.0528C280.285 95.7261 280.815 95.7311 281.187 95.839C281.996 96.076 282.341 94.8186 281.534 94.5826L281.536 94.5816Z" fill="#F9A826"/>
</g>
<path d="M226.887 16.3703C233.258 14.9157 239.514 12.9999 245.606 10.6379C251.481 8.34294 257.155 5.47625 263.178 3.56849C266.206 2.60956 269.31 1.96725 272.487 1.81499C275.723 1.66072 278.979 1.90474 282.18 2.36756C287.825 3.18431 293.422 4.69479 298.643 6.99984C303.832 9.29179 308.712 12.3632 312.836 16.2654C314.836 18.1581 316.648 20.2746 317.879 22.752C319.066 25.1627 319.52 27.8666 319.186 30.5313C318.534 36.0045 314.995 40.7256 310.671 43.9542C305.969 47.4663 300.371 49.7542 294.81 51.5258C282.925 55.3121 270.298 56.3416 257.879 56.026C256.35 55.9867 254.823 55.9343 253.294 55.899C252.495 55.8798 252.551 57.0021 253.294 57.0999C259.65 57.9398 266.146 58.0296 272.542 57.6928C278.953 57.355 285.351 56.4001 291.553 54.7515C297.51 53.1684 303.497 51.0106 308.799 47.8373C313.883 44.7962 318.264 40.5501 320.339 34.9135C321.365 32.1729 321.685 29.2193 321.269 26.3235C320.845 23.4931 319.523 20.8453 317.805 18.5795C314.274 13.9241 309.337 10.2588 304.244 7.45863C299.032 4.59295 293.364 2.58032 287.541 1.37637C281.229 0.0715837 274.574 -0.565681 268.198 0.644319C261.857 1.84726 256.068 4.77848 250.265 7.47073C244.18 10.2941 237.872 12.588 231.491 14.642C229.936 15.1462 228.366 15.5999 226.791 16.0365C226.575 16.096 226.667 16.4207 226.884 16.3703H226.887Z" fill="#F9A826"/>
<path d="M220.241 17.5106C217.502 17.8797 214.824 18.9838 212.253 19.9488C209.958 20.8099 207.679 21.7396 205.814 23.3711C202.326 26.4233 200.454 30.9678 201.204 35.58C201.623 38.1603 203.226 40.3141 205.148 42.0162C207.069 43.7182 209.237 45.1652 211.475 46.4195C215.97 48.9404 220.85 50.6253 225.684 52.3687C227.138 52.9073 228.618 53.3708 230.12 53.7572C231.637 54.1323 233.185 54.3975 234.725 54.6798C237.913 55.2626 241.087 55.8505 244.312 56.1923C244.914 56.2558 245.009 55.3171 244.452 55.1628C241.788 54.4227 239.093 53.8681 236.384 53.3317C233.764 52.8134 231.125 52.3556 228.587 51.5036C226.236 50.714 223.923 49.7763 221.634 48.8274C219.393 47.8988 217.165 46.9237 214.989 45.8519C212.813 44.78 210.682 43.5609 208.708 42.1331C206.932 40.8495 205.094 39.3703 204.001 37.4403C201.882 33.6994 203.042 28.4016 205.59 25.1548C207.234 23.0585 209.49 21.8586 211.926 20.8885C213.276 20.3511 214.631 19.8227 216.003 19.3418C217.446 18.8376 218.92 18.4464 220.383 18.0057C220.708 17.9049 220.563 17.4723 220.246 17.5147L220.241 17.5106Z" fill="#F9A826"/>
<path d="M306.295 54.3693C304.302 53.6917 302.162 54.8331 300.756 56.1923C299.229 57.6685 298.663 59.8224 299.974 61.6374C300.641 62.562 301.592 63.1751 302.647 63.5865C303.701 63.9979 304.901 64.2852 306.034 64.0906C308.033 63.7438 309.408 61.833 309.687 59.9242C309.869 58.6789 309.663 57.4034 309.195 56.2387C308.892 55.4966 308.131 53.972 307.106 54.5982C307.062 54.6251 307.024 54.6616 306.996 54.7051C306.967 54.7485 306.949 54.7978 306.942 54.8492C306.936 54.9006 306.941 54.9528 306.957 55.0021C306.973 55.0513 307 55.0962 307.036 55.1336C307.239 55.3524 307.489 55.5198 307.658 55.7739C307.856 56.0996 308.012 56.4493 308.12 56.8145C308.407 57.6129 308.528 58.4608 308.476 59.3071C308.369 60.7329 307.475 62.0901 306.065 62.5227C305.29 62.7606 304.496 62.5801 303.739 62.3533C302.961 62.1203 302.176 61.7785 301.582 61.2128C300.396 60.0835 300.504 58.5841 301.42 57.3257C302.431 55.9433 304.334 54.3078 306.153 54.8805C306.48 54.9813 306.615 54.4772 306.294 54.3703L306.295 54.3693Z" fill="#F9A826"/>
<path d="M303.245 69.9047C302.436 69.6022 301.424 69.5598 300.809 70.1638C300.61 70.3683 300.459 70.6156 300.37 70.8868C299.926 72.1644 300.752 73.7253 302.055 74.0943C303.359 74.4634 304.877 73.575 305.204 72.2642C305.532 70.9534 304.619 69.4671 303.301 69.1505L300.455 67.6249C299.646 67.3224 298.634 67.28 298.018 67.884C297.818 68.0885 297.668 68.3362 297.58 68.608C297.136 69.8845 297.961 71.4464 299.265 71.8145C300.57 72.1825 302.087 71.2962 302.413 69.9844C302.74 68.6725 301.828 67.1882 300.51 66.8706L306.225 54.6244C304.793 54.1061 303.215 54.8815 302.035 55.8415C300.902 56.7621 299.866 58.0396 299.944 59.4947C299.995 60.4556 300.551 61.345 301.29 61.959C302.029 62.5731 302.952 62.9401 303.887 63.1852C304.421 63.3403 304.977 63.4084 305.533 63.3868C307.093 63.286 308.421 62.0155 308.89 60.5282C309.359 59.0409 309.08 57.4024 308.437 55.9776C308.207 55.4734 307.838 54.9178 307.279 54.8866L309.015 56.9032C307.583 56.385 306.005 57.1604 304.825 58.1203C303.693 59.0399 302.657 60.3185 302.735 61.7735C302.786 62.7344 303.342 63.6228 304.08 64.2379C304.818 64.8529 305.743 65.219 306.677 65.464C307.211 65.6192 307.768 65.6873 308.324 65.6657C309.883 65.5648 311.211 64.2943 311.68 62.807C312.149 61.3197 311.871 59.6812 311.227 58.2564C310.998 57.7523 310.629 57.1967 310.069 57.1654L303.245 69.9047Z" fill="white"/>
<path d="M300.54 67.3253C299.339 66.8585 297.849 66.9079 297.216 68.1986C296.678 69.2976 296.965 70.5984 297.761 71.4928C299.548 73.5024 303.111 72.0353 303.019 69.3662C302.978 68.1028 302.026 66.5741 300.644 66.4975C300.206 66.4723 300.125 67.0481 300.435 67.2618C301.261 67.8285 302.067 68.5162 301.922 69.6385C301.795 70.6317 300.788 71.3607 299.812 71.3294C298.835 71.2982 298.117 70.4391 297.991 69.5144C297.916 68.9457 298.104 68.3317 298.598 68.0019C299.134 67.644 299.787 67.7367 300.367 67.9192C300.756 68.0413 300.898 67.4625 300.533 67.3203L300.54 67.3253Z" fill="#F9A826"/>
<g opacity="0.51">
<path opacity="0.51" d="M214.872 46.8158C216.779 45.1883 218.512 43.3602 220.201 41.5079C221.021 40.6065 221.83 39.6929 222.628 38.7672C223.032 38.292 223.437 37.814 223.841 37.3334C224.052 37.0806 224.262 36.8265 224.471 36.5711C224.674 36.3281 224.861 36.0115 225.134 35.8441L224.74 35.9449L224.863 35.9298L223.943 35.0132C223.873 35.5971 224.268 36.1758 224.51 36.6891C224.733 37.166 224.951 37.647 225.153 38.133C225.58 39.1575 225.967 40.1964 226.316 41.2498C226.63 42.1996 227.763 42.2641 228.321 41.5109C230.394 38.7078 232.355 35.8209 234.444 33.0278C235.383 31.7724 236.38 30.5715 237.421 29.3978C237.945 28.809 238.487 28.2362 239.055 27.6837C239.648 27.1129 240.14 26.4737 240.715 25.8848C241.126 25.4633 240.607 24.818 240.096 25.0852C239.318 25.4885 238.594 25.8545 237.923 26.4263C237.322 26.9385 236.745 27.477 236.188 28.0346C235.028 29.1972 233.99 30.4878 232.975 31.7755C230.744 34.6079 228.56 37.4937 226.426 40.3997L228.431 40.6609C228.049 39.5181 227.618 38.3952 227.137 37.2921C226.915 36.7839 226.683 36.2797 226.44 35.7796C226.162 35.2078 225.913 34.5282 225.328 34.2116C224.781 33.9182 223.851 34.2721 223.944 35.0042C223.971 35.2129 223.56 35.6092 223.438 35.7624C223.251 36.0064 223.062 36.2498 222.873 36.4925C222.506 36.963 222.135 37.4292 221.76 37.891C220.973 38.8691 220.171 39.8357 219.356 40.791C217.745 42.6766 216.063 44.5016 214.474 46.4054C214.424 46.4584 214.396 46.5289 214.397 46.6019C214.399 46.6749 214.428 46.7446 214.48 46.7962C214.532 46.8478 214.601 46.8773 214.675 46.8783C214.748 46.8793 214.819 46.8518 214.872 46.8016V46.8158Z" fill="#F9A826"/>
<path opacity="0.51" d="M233.442 27.0969C236.386 27.0815 239.281 26.3502 241.876 24.9662L240.877 24.1999C240.46 25.2335 240.247 26.3951 240.037 27.4861C239.936 28.0097 239.843 28.5341 239.759 29.0591C239.668 29.6308 239.507 30.2499 239.81 30.7732C239.86 30.8556 239.928 30.9258 240.008 30.9784C240.089 31.031 240.18 31.0648 240.276 31.0771C240.372 31.0894 240.469 31.08 240.56 31.0495C240.652 31.0191 240.735 30.9684 240.804 30.9013C241.209 30.498 241.224 29.9212 241.305 29.3797C241.39 28.8191 241.484 28.2605 241.587 27.7039C241.789 26.5947 242.081 25.4936 242.219 24.3764C242.283 23.8652 241.591 23.5223 241.191 23.7875C238.886 25.335 236.218 26.2605 233.447 26.4737C233.052 26.5019 233.043 27.0989 233.447 27.0948L233.442 27.0969Z" fill="#F9A826"/>
</g>
<path d="M280.018 55.6347C281.925 54.0082 283.659 52.1801 285.347 50.3278C286.169 49.425 286.978 48.5112 287.774 47.5862C288.179 47.1116 288.583 46.634 288.988 46.1533C289.2 45.9006 289.41 45.6465 289.618 45.391C289.82 45.148 290.007 44.8314 290.28 44.664L289.888 44.7649L290.009 44.7497L289.089 43.8322C289.02 44.417 289.416 44.9958 289.656 45.509C289.881 45.986 290.097 46.4659 290.299 46.9529C290.726 47.9761 291.114 49.015 291.462 50.0697C291.777 51.0195 292.91 51.0841 293.468 50.3309C295.542 47.5267 297.501 44.6408 299.591 41.8478C300.529 40.5924 301.526 39.3915 302.568 38.2178C303.092 37.6289 303.634 37.0552 304.202 36.5036C304.794 35.9329 305.287 35.2936 305.861 34.7047C306.273 34.2832 305.753 33.6379 305.242 33.9041C304.465 34.3074 303.741 34.6745 303.07 35.2462C302.47 35.7574 301.891 36.2959 301.334 36.8595C300.174 38.0221 299.137 39.3128 298.122 40.6004C295.891 43.4329 293.707 46.3187 291.573 49.2247L293.578 49.4859C293.196 48.3431 292.764 47.2201 292.283 46.117C292.062 45.6088 291.83 45.1047 291.588 44.6045C291.31 44.0328 291.06 43.3532 290.475 43.0366C289.928 42.7432 288.998 43.0961 289.091 43.8281C289.118 44.0378 288.708 44.4331 288.585 44.5874C288.399 44.8314 288.21 45.0748 288.02 45.3174C287.654 45.788 287.283 46.2538 286.908 46.715C286.12 47.6944 285.319 48.6614 284.503 49.6159C282.892 51.5015 281.21 53.3266 279.622 55.2303C279.574 55.2838 279.549 55.3535 279.551 55.425C279.553 55.4965 279.583 55.5645 279.633 55.615C279.684 55.6656 279.752 55.6948 279.824 55.6968C279.896 55.6987 279.966 55.6733 280.019 55.6256L280.018 55.6347Z" fill="#F9A826"/>
<path d="M298.589 35.9168C301.532 35.9011 304.427 35.1697 307.022 33.7862L306.018 33.0168C305.601 34.0503 305.389 35.2109 305.178 36.303C305.077 36.8266 304.984 37.351 304.901 37.876C304.81 38.4467 304.648 39.0668 304.951 39.5901C305.001 39.6726 305.069 39.7427 305.15 39.7953C305.23 39.8479 305.322 39.8817 305.418 39.894C305.513 39.9063 305.611 39.8969 305.702 39.8664C305.794 39.836 305.877 39.7853 305.946 39.7182C306.351 39.3149 306.365 38.7381 306.452 38.1966C306.535 37.636 306.629 37.0774 306.733 36.5208C306.935 35.4116 307.228 34.3105 307.366 33.1933C307.429 32.683 306.737 32.3402 306.338 32.6054C304.03 34.1527 301.361 35.0781 298.589 35.2916C298.193 35.3198 298.184 35.9168 298.589 35.9127V35.9168Z" fill="#F9A826"/>
<path d="M304.848 60.2681C314.152 71.7631 321.791 84.6112 327.601 98.248C327.959 99.102 328.309 99.9621 328.656 100.82L329.182 102.107L329.677 103.406L330.664 106.005L331.588 108.627C331.741 109.064 331.9 109.5 332.048 109.938L332.477 111.259C332.762 112.142 333.057 113.022 333.333 113.907L334.129 116.573L334.331 117.24L334.432 117.574L334.523 117.908L334.889 119.252C335.883 122.827 336.709 126.448 337.456 130.084L337.983 132.818C338.027 133.046 338.075 133.273 338.114 133.502L338.229 134.188L338.46 135.561C338.786 137.39 339.026 139.232 339.293 141.07C339.364 141.53 339.409 141.991 339.467 142.452L339.631 143.836L339.796 145.219C339.825 145.45 339.846 145.681 339.867 145.913L339.933 146.607L340.199 149.381C340.274 150.307 340.336 151.235 340.401 152.162L340.502 153.552L340.571 154.946L340.703 157.732L340.765 160.522C340.774 160.986 340.791 161.451 340.793 161.917V163.313C340.807 167.035 340.622 170.757 340.334 174.47L340.071 177.251L340.003 177.946C339.979 178.178 339.947 178.408 339.92 178.639L339.746 180.025L339.57 181.411L339.472 182.105L339.371 182.798C339.303 183.259 339.234 183.72 339.158 184.18C339.081 184.64 339.011 185.102 338.928 185.562C338.605 187.401 338.243 189.234 337.828 191.057C337.412 192.88 336.938 194.687 336.403 196.486C335.868 198.285 335.28 200.06 334.614 201.814C333.948 203.567 333.22 205.297 332.41 206.99C330.782 210.37 328.84 213.609 326.527 216.561C325.374 218.036 324.124 219.433 322.786 220.743L322.28 221.228L322.027 221.47C321.942 221.55 321.853 221.627 321.767 221.704L321.246 222.17C321.071 222.323 320.902 222.485 320.719 222.63C320.358 222.923 320.001 223.223 319.637 223.511L318.524 224.351L318.335 224.121L319.334 223.167C319.661 222.845 319.978 222.512 320.301 222.185C320.464 222.025 320.616 221.852 320.771 221.681L321.237 221.177C321.314 221.092 321.393 221.01 321.469 220.924L321.692 220.663L322.139 220.142C323.316 218.747 324.41 217.285 325.417 215.763C327.412 212.723 329.107 209.498 330.478 206.132C331.845 202.766 332.973 199.31 333.856 195.787C334.303 194.026 334.702 192.253 335.053 190.467C335.404 188.682 335.712 186.888 335.977 185.086C336.25 183.286 336.477 181.477 336.674 179.661L336.83 178.301C336.855 178.074 336.885 177.847 336.907 177.62L336.968 176.938L337.222 174.211C337.27 173.757 337.295 173.303 337.329 172.846L337.43 171.48L337.531 170.115C337.571 169.659 337.583 169.207 337.608 168.747L337.75 166.011C337.764 165.783 337.769 165.555 337.775 165.326L337.793 164.642L337.831 163.272L337.873 161.902C337.884 161.445 337.88 160.988 337.885 160.532L337.901 157.79L337.849 155.048L337.821 153.676L337.759 152.307C337.716 151.393 337.68 150.479 337.632 149.565L337.436 146.827L337.387 146.143C337.371 145.915 337.355 145.686 337.33 145.459L337.196 144.093L337.062 142.727C337.014 142.272 336.979 141.819 336.919 141.361C336.688 139.546 336.486 137.724 336.196 135.916L335.993 134.557L335.892 133.878C335.857 133.652 335.814 133.427 335.776 133.201L335.305 130.494C334.629 126.894 333.883 123.302 332.965 119.753L332.633 118.418L332.55 118.084L332.459 117.752L332.277 117.09L331.549 114.437C331.296 113.555 331.024 112.679 330.762 111.8L330.366 110.482C330.229 110.044 330.082 109.61 329.94 109.171L329.084 106.556L328.163 103.961L327.701 102.663L327.21 101.378C326.88 100.521 326.558 99.6637 326.221 98.8066C320.784 85.1077 313.516 72.204 304.614 60.4455L304.848 60.2681Z" fill="#F2D6A8"/>
<path d="M41.2212 74.058C44.5259 72.1714 47.7467 70.1931 50.8461 68.0363C51.2324 67.764 51.6248 67.5028 52.0101 67.2296L53.1598 66.4058C53.5451 66.1345 53.9243 65.8542 54.3046 65.5749C54.6848 65.2956 55.066 65.0203 55.4422 64.735C56.1925 64.1632 56.951 63.6056 57.6922 63.0208C58.0633 62.7304 58.4395 62.4461 58.8046 62.1536L59.9169 61.2764C60.288 60.987 60.6521 60.6855 61.0192 60.3891C61.3862 60.0926 61.7574 59.8022 62.1204 59.5007C62.8505 58.9024 63.5786 58.3015 64.3047 57.6978C65.7609 56.4959 67.1958 55.2647 68.6388 54.0406C71.5067 51.5712 74.3827 49.0998 77.3142 46.6798C83.1794 41.8398 89.266 37.2196 95.4437 32.7597C96.2233 32.2112 97.005 31.6667 97.7776 31.1091L98.9405 30.2782C99.3278 30.0009 99.7272 29.7418 100.12 29.4715C101.704 28.4128 103.254 27.3026 104.872 26.2892C105.674 25.774 106.469 25.2466 107.268 24.7253L107.571 24.5297L107.875 24.3421L108.482 23.966L109.695 23.2138L110.908 22.4566L111.515 22.0764L111.819 21.8858L112.122 21.7043L114.594 20.2564C117.889 18.3174 121.277 16.5316 124.722 14.8547C125.149 14.6369 125.588 14.4454 126.022 14.2497L127.337 13.6589C128.211 13.2666 129.082 12.8683 129.966 12.4912L132.63 11.4083L133.962 10.8678C134.185 10.7801 134.405 10.6833 134.63 10.6026L135.305 10.3525C142.47 7.62499 149.84 5.38246 157.359 3.81551L158.767 3.51301L160.183 3.25487C161.127 3.08144 162.073 2.91809 163.014 2.75071L163.722 2.62668C163.959 2.58635 164.197 2.55711 164.43 2.52585L165.855 2.32418L168.706 1.92589C170.611 1.69297 172.52 1.48827 174.437 1.34307C174.916 1.30274 175.395 1.26644 175.875 1.24224L177.314 1.15653C177.795 1.13132 178.275 1.11418 178.755 1.09402L179.476 1.0678C179.716 1.05772 179.958 1.05772 180.197 1.05267L181.64 1.02747C182.122 1.02747 182.603 1.02747 183.084 1.03452L183.805 1.04057C184.046 1.04057 184.287 1.05368 184.527 1.05973L185.969 1.10713C186.45 1.13032 186.931 1.16359 187.411 1.19082L188.13 1.23417C188.371 1.2493 188.611 1.2735 188.851 1.29467L190.287 1.42374C190.766 1.47617 191.243 1.53466 191.72 1.59213L192.435 1.67986C192.674 1.71112 192.912 1.75044 193.149 1.78573L194.573 2.00555L195.989 2.26973L196.697 2.40586L197.399 2.56215L198.801 2.88481L200.189 3.25487L200.882 3.44243L201.568 3.6572L202.934 4.08977L202.857 4.37715C195.385 2.94632 187.814 2.77591 180.32 3.40209C172.825 4.02826 165.372 5.31086 158.021 6.93126C150.67 8.55165 143.393 10.527 136.272 12.9954L135.603 13.2212C135.378 13.2948 135.16 13.3836 134.938 13.4632L133.614 13.9563L130.962 14.9384C130.52 15.1048 130.088 15.2893 129.648 15.4638L128.333 15.9891L127.018 16.5134C126.58 16.6869 126.138 16.8533 125.704 17.0458L123.101 18.155L121.794 18.7056C121.576 18.7943 121.362 18.8941 121.147 18.9929L120.504 19.2874C118.792 20.085 117.051 20.8311 115.368 21.6943L112.826 22.9587L112.508 23.117L112.196 23.2844L111.571 23.6212L110.326 24.3008L109.08 24.9824L108.457 25.3253L108.146 25.4957C108.045 25.5542 107.944 25.6157 107.842 25.6762C107.033 26.1642 106.215 26.6452 105.406 27.1383L104.193 27.8753C103.991 27.9963 103.788 28.1204 103.592 28.2535L102.999 28.6447L101.813 29.4272L100.632 30.2167L100.042 30.611C99.8395 30.743 99.6453 30.8711 99.4562 31.0143L98.3075 31.8492C97.54 32.4038 96.7815 32.9705 96.0191 33.5321C95.6358 33.8094 95.2667 34.1058 94.8946 34.3993C94.5224 34.6927 94.1493 34.9831 93.7822 35.2805C93.0511 35.8855 92.3129 36.4754 91.5939 37.0955C90.1448 38.3156 88.728 39.575 87.3214 40.8455C84.5102 43.3886 81.7596 46.0011 78.9534 48.5593C76.1473 51.1174 73.2905 53.6383 70.3579 56.0673C67.4253 58.4964 64.4291 60.8791 61.3306 63.1257C60.553 63.6833 59.7794 64.2459 58.9856 64.7834C58.1918 65.3208 57.402 65.8593 56.6031 66.3876C54.9942 67.4272 53.3671 68.4456 51.7016 69.3894C51.286 69.6274 50.8714 69.8664 50.4487 70.0953L49.1857 70.7789C48.761 71.0007 48.3332 71.2165 47.9075 71.4353L47.2664 71.758C47.052 71.8649 46.8346 71.9657 46.6192 72.0686L45.3207 72.6816C44.8849 72.8773 44.445 73.0678 44.0061 73.2584L43.3488 73.5428L42.6824 73.809C42.2385 73.9864 41.7946 74.1629 41.3496 74.3343L41.2212 74.058Z" fill="#F2D6A8"/>
</g>
<defs>
<clipPath id="clip0_502_2705">
<rect width="351" height="242" fill="white"/>
</clipPath>
</defs>
</svg>
