<svg width="205" height="44" viewBox="0 0 205 44" fill="none" xmlns="http://www.w3.org/2000/svg">
<path d="M15.3599 29.8974C7.9322 23.1046 7.45078 19.2374 8.13852 18.1528C4.80559 20.3483 -1.40001 25.5488 0.441039 28.7865C2.28209 32.0242 5.96947 34.4207 7.58304 35.2143L15.3599 29.8974Z" fill="#F0B357"/>
<path d="M0.361904 23.6284C3.15522 18.8671 20.0421 7.94246 28.1363 3.07532C28.1363 2.96951 28.0729 2.75789 27.8189 2.75789C24.4066 1.80563 20.6769 -0.89246 17.2646 0.297873C9.80521 2.75789 4.40903 7.99536 2.18708 10.4554C0.409513 12.4234 0.0709321 14.6083 0.123837 15.4548C0.0973852 18.2587 0.107966 23.8189 0.361904 23.6284Z" fill="#F0B357"/>
<path d="M16.2157 12.4589C23.6434 19.2517 24.1248 23.119 23.437 24.2035C26.77 22.008 32.9756 16.8076 31.1345 13.5699C29.2935 10.3321 25.6061 7.93561 23.9925 7.14205L16.2157 12.4589Z" fill="#2B2C30"/>
<path d="M31.2137 18.7279C28.4203 23.4893 11.5335 34.4139 3.43922 39.281C3.43922 39.3868 3.50271 39.5984 3.75665 39.5984C7.16894 40.5507 10.8986 43.2488 14.3109 42.0584C21.7704 39.5984 27.1665 34.361 29.3885 31.9009C31.166 29.9329 31.5046 27.748 31.4517 26.9015C31.4782 24.0977 31.4676 18.5375 31.2137 18.7279Z" fill="#2B2C30"/>
<path d="M49.6958 31.0188C48.4552 31.0188 47.2889 30.7742 46.1969 30.285C45.1048 29.787 44.1438 29.1012 43.3138 28.2275C42.4926 27.3539 41.8461 26.3448 41.3743 25.2003C40.9113 24.0471 40.6798 22.8153 40.6798 21.5048C40.6798 20.1856 40.9113 18.9538 41.3743 17.8093C41.8461 16.6561 42.4926 15.647 43.3138 14.7821C44.1438 13.9084 45.1048 13.227 46.1969 12.7377C47.2889 12.2398 48.4552 11.9908 49.6958 11.9908C51.181 11.9908 52.5483 12.3359 53.7976 13.0261C55.0469 13.7075 56.0822 14.6205 56.9034 15.7649L53.6797 17.5079C53.1904 16.9313 52.6007 16.4726 51.9105 16.1319C51.2203 15.7824 50.4821 15.6077 49.6958 15.6077C48.9532 15.6077 48.2543 15.7606 47.5991 16.0663C46.9438 16.3721 46.3672 16.7958 45.8692 17.3375C45.38 17.8792 44.9956 18.5038 44.716 19.2115C44.4365 19.9191 44.2967 20.6836 44.2967 21.5048C44.2967 22.3173 44.4365 23.0817 44.716 23.7981C44.9956 24.5058 45.38 25.1304 45.8692 25.6721C46.3672 26.205 46.9438 26.6287 47.5991 26.9433C48.2543 27.249 48.9532 27.4019 49.6958 27.4019C50.4908 27.4019 51.2291 27.2272 51.9105 26.8777C52.6007 26.5283 53.1904 26.0652 53.6797 25.4886L56.9034 27.2447C56.0822 28.3804 55.0469 29.2934 53.7976 29.9836C52.5483 30.6737 51.181 31.0188 49.6958 31.0188ZM59.6237 30.6781V14.2972H69.9905V17.5266H62.8531V20.2879H68.4226V23.5173H62.8531V27.4487H69.9905V30.6781H59.6237ZM72.6163 30.6781V14.2972H76.1031L82.4917 24.8395V14.2972H85.721V30.6781H82.2343L75.8457 20.1358V30.6781H72.6163ZM100.958 14.2972V17.5266H96.1374V30.6781H92.908V17.5266H88.0873V14.2972H100.958ZM103.295 30.6781V14.2972H113.662V17.5266H106.525V20.2879H112.094V23.5173H106.525V27.4487H113.662V30.6781H103.295ZM116.288 30.6781V14.2972H122.794C123.683 14.2972 124.486 14.5234 125.204 14.9758C125.929 15.4205 126.503 16.0211 126.924 16.7777C127.353 17.5266 127.567 18.3573 127.567 19.27C127.567 19.9876 127.443 20.6546 127.193 21.2708C126.943 21.8792 126.592 22.4136 126.14 22.8738C125.688 23.334 125.161 23.6928 124.56 23.9502L128.457 30.6781H124.736L121.003 24.2428H119.517V30.6781H116.288ZM119.517 21.0134H122.407C122.758 21.0134 123.078 20.9276 123.367 20.756C123.663 20.5766 123.897 20.3386 124.069 20.0422C124.248 19.738 124.338 19.4026 124.338 19.036C124.338 18.6771 124.248 18.3495 124.069 18.0531C123.897 17.7489 123.663 17.5071 123.367 17.3277C123.078 17.1483 122.758 17.0586 122.407 17.0586H119.517V21.0134ZM136.56 30.9823C135.64 30.9823 134.758 30.838 133.916 30.5494C133.081 30.2608 132.348 29.8435 131.716 29.2974C131.092 28.7514 130.644 28.104 130.37 27.3551L133.401 26.2319C133.495 26.4971 133.69 26.7467 133.986 26.9807C134.282 27.2069 134.653 27.3941 135.098 27.5423C135.542 27.6827 136.03 27.7529 136.56 27.7529C137.067 27.7529 137.543 27.6788 137.988 27.5306C138.44 27.3746 138.803 27.1601 139.076 26.8871C139.357 26.6141 139.497 26.2943 139.497 25.9276C139.497 25.561 139.353 25.2568 139.064 25.015C138.775 24.7732 138.405 24.5821 137.953 24.4417C137.5 24.2935 137.036 24.1803 136.56 24.1023C135.382 23.9307 134.325 23.6538 133.389 23.2716C132.461 22.8816 131.728 22.3472 131.19 21.6686C130.651 20.9822 130.382 20.1124 130.382 19.0594C130.382 18.0453 130.667 17.16 131.236 16.4033C131.814 15.6467 132.57 15.0578 133.506 14.6365C134.45 14.2153 135.468 14.0047 136.56 14.0047C137.465 14.0047 138.339 14.149 139.181 14.4376C140.024 14.7262 140.757 15.1436 141.381 15.6896C142.013 16.2356 142.465 16.8909 142.738 17.6553L139.708 18.7552C139.614 18.4899 139.419 18.2442 139.123 18.018C138.826 17.7918 138.456 17.6085 138.011 17.4681C137.566 17.3277 137.083 17.2575 136.56 17.2575C136.061 17.2497 135.585 17.3238 135.133 17.4798C134.688 17.6358 134.321 17.8503 134.033 18.1233C133.752 18.3963 133.612 18.7083 133.612 19.0594C133.612 19.5196 133.744 19.8667 134.009 20.1007C134.282 20.3347 134.641 20.5024 135.086 20.6039C135.53 20.7053 136.022 20.795 136.56 20.873C137.668 21.0368 138.69 21.3293 139.626 21.7505C140.562 22.1639 141.311 22.7178 141.872 23.412C142.442 24.0984 142.726 24.937 142.726 25.9276C142.726 26.9417 142.442 27.827 141.872 28.5837C141.303 29.3403 140.55 29.9293 139.614 30.3505C138.678 30.7717 137.66 30.9823 136.56 30.9823ZM157.244 14.2972V17.5266H152.424V30.6781H149.194V17.5266H144.374V14.2972H157.244ZM166.25 30.9823C165.143 30.9823 164.101 30.7639 163.126 30.3271C162.151 29.8825 161.293 29.2701 160.552 28.4901C159.811 27.71 159.23 26.8091 158.809 25.7872C158.387 24.7576 158.177 23.6577 158.177 22.4877C158.177 21.3176 158.387 20.2216 158.809 19.1998C159.23 18.1701 159.811 17.2653 160.552 16.4852C161.293 15.7052 162.151 15.0968 163.126 14.6599C164.101 14.2153 165.143 13.993 166.25 13.993C167.366 13.993 168.411 14.2153 169.386 14.6599C170.361 15.0968 171.219 15.7052 171.96 16.4852C172.701 17.2653 173.278 18.1701 173.692 19.1998C174.113 20.2216 174.324 21.3176 174.324 22.4877C174.324 23.6577 174.113 24.7576 173.692 25.7872C173.278 26.8091 172.701 27.71 171.96 28.4901C171.219 29.2701 170.361 29.8825 169.386 30.3271C168.411 30.7639 167.366 30.9823 166.25 30.9823ZM166.25 27.7529C166.913 27.7529 167.537 27.6164 168.122 27.3434C168.707 27.0626 169.222 26.6804 169.667 26.1968C170.112 25.7131 170.459 25.1554 170.708 24.5236C170.966 23.8917 171.094 23.2131 171.094 22.4877C171.094 21.7622 170.966 21.0836 170.708 20.4517C170.459 19.8121 170.112 19.2544 169.667 18.7786C169.222 18.2949 168.707 17.9166 168.122 17.6436C167.537 17.3628 166.913 17.2224 166.25 17.2224C165.587 17.2224 164.963 17.3628 164.378 17.6436C163.793 17.9166 163.278 18.2949 162.834 18.7786C162.389 19.2622 162.038 19.8199 161.781 20.4517C161.531 21.0836 161.406 21.7622 161.406 22.4877C161.406 23.2131 161.531 23.8956 161.781 24.5353C162.038 25.1671 162.389 25.7248 162.834 26.2085C163.278 26.6843 163.793 27.0626 164.378 27.3434C164.963 27.6164 165.587 27.7529 166.25 27.7529ZM176.939 30.6781V14.2972H180.426L186.815 24.8395V14.2972H190.044V30.6781H186.557L180.169 20.1358V30.6781H176.939ZM193.107 30.6781V14.2972H203.474V17.5266H196.336V20.2879H201.906V23.5173H196.336V27.4487H203.474V30.6781H193.107Z" fill="#515151"/>
<path d="M155.429 40.8743C155.109 40.8743 154.799 40.8252 154.499 40.7271C154.199 40.6261 153.936 40.4846 153.711 40.3028C153.489 40.1181 153.333 39.8973 153.243 39.6404L153.68 39.4759C153.75 39.6722 153.875 39.841 154.057 39.9825C154.242 40.121 154.454 40.2263 154.694 40.2985C154.936 40.3706 155.181 40.4067 155.429 40.4067C155.724 40.4067 156 40.3562 156.256 40.2552C156.513 40.1542 156.721 40.0142 156.88 39.8353C157.039 39.6534 157.118 39.4384 157.118 39.1902C157.118 38.942 157.036 38.7385 156.871 38.5798C156.707 38.4182 156.494 38.2912 156.235 38.1988C155.978 38.1036 155.709 38.03 155.429 37.978C155.02 37.9059 154.653 37.8106 154.33 37.6923C154.007 37.5711 153.75 37.4008 153.559 37.1814C153.372 36.9621 153.278 36.6677 153.278 36.2983C153.278 35.9548 153.377 35.6575 153.577 35.4065C153.779 35.1554 154.043 34.9605 154.369 34.822C154.695 34.6835 155.049 34.6142 155.429 34.6142C155.738 34.6142 156.041 34.6633 156.339 34.7614C156.636 34.8566 156.899 34.9966 157.127 35.1813C157.355 35.366 157.519 35.5912 157.62 35.8567L157.174 36.0169C157.105 35.8177 156.979 35.6489 156.798 35.5104C156.616 35.3718 156.404 35.2665 156.161 35.1943C155.922 35.1222 155.678 35.0861 155.429 35.0861C155.132 35.0832 154.855 35.1337 154.598 35.2376C154.344 35.3386 154.138 35.4801 153.979 35.6619C153.823 35.8437 153.745 36.0558 153.745 36.2983C153.745 36.5782 153.819 36.7947 153.966 36.9477C154.113 37.1006 154.314 37.2161 154.568 37.294C154.822 37.369 155.109 37.4369 155.429 37.4975C155.81 37.5639 156.164 37.6663 156.49 37.8049C156.819 37.9405 157.083 38.1223 157.282 38.3503C157.484 38.5755 157.585 38.8554 157.585 39.1902C157.585 39.5308 157.484 39.828 157.282 40.082C157.083 40.3331 156.821 40.5279 156.494 40.6665C156.168 40.805 155.813 40.8743 155.429 40.8743ZM158.64 40.7617V34.7008H160.636C160.924 34.7008 161.185 34.76 161.419 34.8783C161.656 34.9937 161.844 35.164 161.982 35.3891C162.123 35.6114 162.194 35.8856 162.194 36.2117C162.194 36.408 162.158 36.5927 162.086 36.7658C162.014 36.9361 161.921 37.0804 161.809 37.1988C161.696 37.3142 161.581 37.3849 161.463 37.4109C161.639 37.46 161.793 37.5408 161.926 37.6533C162.059 37.763 162.17 37.8943 162.259 38.0473C162.349 38.1974 162.415 38.3575 162.458 38.5278C162.502 38.6981 162.523 38.8684 162.523 39.0387C162.523 39.3879 162.45 39.6924 162.302 39.9522C162.158 40.209 161.965 40.4082 161.722 40.5496C161.48 40.691 161.21 40.7617 160.913 40.7617H158.64ZM159.107 40.3331H160.882C161.105 40.3331 161.307 40.2754 161.489 40.16C161.67 40.0416 161.815 39.8814 161.921 39.6794C162.031 39.4745 162.086 39.2436 162.086 38.9867C162.086 38.7558 162.031 38.5394 161.921 38.3373C161.815 38.1353 161.67 37.9722 161.489 37.8481C161.307 37.7212 161.105 37.6577 160.882 37.6577H159.107V40.3331ZM159.107 37.2334H160.605C160.914 37.2334 161.178 37.1454 161.398 36.9693C161.617 36.7904 161.727 36.5364 161.727 36.2074C161.727 35.8408 161.617 35.5695 161.398 35.3935C161.178 35.2174 160.914 35.1294 160.605 35.1294H159.107V37.2334ZM165.194 34.7008H165.809L168.017 40.7617H167.519L167.021 39.3937H163.986L163.488 40.7617H162.99L165.194 34.7008ZM164.155 38.9261H166.848L165.501 35.2333L164.155 38.9261ZM170.96 40.7617V34.7008H171.427V40.2942H174.293V40.7617H170.96ZM175.247 40.7617V34.7008H178.9V35.1683H175.714V37.281H178.381V37.7486H175.714V40.2942H178.9V40.7617H175.247ZM180.026 40.7617V34.7008H180.537L183.931 39.9175V34.7008H184.399V40.7617H183.897L180.494 35.545V40.7617H180.026ZM185.63 40.7617V34.7008H187.634C188.053 34.7008 188.445 34.7802 188.812 34.9389C189.178 35.0947 189.5 35.3127 189.777 35.5926C190.054 35.8697 190.271 36.1915 190.427 36.558C190.585 36.9217 190.665 37.3128 190.665 37.7313C190.665 38.1497 190.585 38.5423 190.427 38.9088C190.271 39.2725 190.054 39.5943 189.777 39.8742C189.5 40.1513 189.178 40.3692 188.812 40.5279C188.445 40.6838 188.053 40.7617 187.634 40.7617H185.63ZM186.098 40.2942H187.634C187.989 40.2942 188.321 40.2278 188.63 40.095C188.939 39.9623 189.21 39.779 189.444 39.5452C189.681 39.3085 189.865 39.0358 189.998 38.727C190.131 38.4182 190.197 38.0863 190.197 37.7313C190.197 37.3763 190.131 37.0443 189.998 36.7355C189.865 36.4267 189.681 36.1554 189.444 35.9216C189.207 35.685 188.935 35.5003 188.626 35.3675C188.317 35.2347 187.987 35.1683 187.634 35.1683H186.098V40.2942ZM191.729 40.7617V34.7008H192.197V40.7617H191.729ZM193.555 40.7617V34.7008H194.066L197.46 39.9175V34.7008H197.928V40.7617H197.426L194.023 35.545V40.7617H193.555ZM201.797 40.8743C201.385 40.8743 200.996 40.7935 200.633 40.6318C200.272 40.4673 199.955 40.2408 199.68 39.9522C199.409 39.6606 199.197 39.3259 199.044 38.9478C198.891 38.5668 198.815 38.1598 198.815 37.7269C198.815 37.2911 198.892 36.8827 199.048 36.5018C199.207 36.1208 199.423 35.7874 199.698 35.5017C199.975 35.216 200.292 34.9937 200.65 34.835C201.011 34.6734 201.396 34.5926 201.806 34.5926C202.276 34.5926 202.719 34.7022 203.135 34.9216C203.551 35.1409 203.898 35.4469 204.178 35.8394L203.763 36.0645C203.52 35.7412 203.226 35.493 202.88 35.3199C202.533 35.1438 202.174 35.0558 201.802 35.0558C201.452 35.0558 201.125 35.1265 200.819 35.2679C200.516 35.4065 200.249 35.5998 200.018 35.848C199.787 36.0934 199.607 36.3776 199.477 36.7009C199.347 37.0241 199.282 37.369 199.282 37.7356C199.282 38.1021 199.347 38.447 199.477 38.7703C199.61 39.0906 199.791 39.3735 200.022 39.6188C200.253 39.8641 200.52 40.0575 200.823 40.1989C201.129 40.3375 201.457 40.4067 201.806 40.4067C202.103 40.4067 202.385 40.3548 202.65 40.2509C202.919 40.1441 203.161 39.9954 203.378 39.805C203.594 39.6145 203.776 39.3937 203.923 39.1426C204.07 38.8915 204.173 38.6202 204.23 38.3287H202.429V37.8958H204.772C204.757 38.3085 204.669 38.6952 204.507 39.056C204.346 39.4139 204.128 39.7299 203.854 40.0041C203.582 40.2754 203.271 40.489 202.919 40.6448C202.569 40.7978 202.196 40.8743 201.797 40.8743Z" fill="#555555"/>
</svg>
