<svg width="56" height="56" viewBox="0 0 56 56" fill="none" xmlns="http://www.w3.org/2000/svg">
<path d="M28 35C31.866 35 35 31.866 35 28C35 24.134 31.866 21 28 21C24.134 21 21 24.134 21 28C21 31.866 24.134 35 28 35Z" fill="#F0B357"/>
<path d="M39.667 8.16666H16.3337C9.33366 8.16666 4.66699 11.6667 4.66699 19.8333V21V35V36.1667C4.66699 44.3333 9.33366 47.8333 16.3337 47.8333H39.667C46.667 47.8333 51.3337 44.3333 51.3337 36.1667V35V21V19.8333C51.3337 11.6667 46.667 8.16666 39.667 8.16666ZM16.3337 44.3333C16.3337 37.7533 14.2103 35.3267 8.16699 35.0467V35V21V20.9533C14.2103 20.6733 16.3337 18.2467 16.3337 11.6667H39.667C39.667 18.2467 41.7903 20.6733 47.8337 20.9533V21V35V35.0467C41.7903 35.3267 39.667 37.7533 39.667 44.3333H16.3337Z" fill="#F0B357"/>
</svg>
