<svg width="56" height="56" viewBox="0 0 56 56" fill="none" xmlns="http://www.w3.org/2000/svg">
<path d="M37.3337 9.91666C37.3337 12.81 34.977 15.1667 32.0837 15.1667H23.917C22.4703 15.1667 21.1637 14.5833 20.207 13.6267C19.2503 12.67 18.667 11.3633 18.667 9.91666C18.667 7.02333 21.0237 4.66666 23.917 4.66666H32.0837C33.5303 4.66666 34.837 5.25 35.7937 6.20666C36.7503 7.16333 37.3337 8.47 37.3337 9.91666Z" fill="#F0B357"/>
<path d="M43.9363 11.7367C43.3997 11.2933 42.793 10.9433 42.1397 10.6867C41.463 10.43 40.7863 10.9667 40.6463 11.6667C39.853 15.6567 36.3297 18.6667 32.083 18.6667H23.9163C21.583 18.6667 19.3897 17.7567 17.733 16.1C16.5197 14.8867 15.6797 13.3467 15.353 11.69C15.213 10.99 14.513 10.43 13.8363 10.71C11.1297 11.8067 9.33301 14.28 9.33301 19.25V42C9.33301 49 13.5097 51.3333 18.6663 51.3333H37.333C42.4897 51.3333 46.6663 49 46.6663 42V19.25C46.6663 15.4467 45.6163 13.1133 43.9363 11.7367ZM18.6663 28.5833H27.9997C28.9563 28.5833 29.7497 29.3767 29.7497 30.3333C29.7497 31.29 28.9563 32.0833 27.9997 32.0833H18.6663C17.7097 32.0833 16.9163 31.29 16.9163 30.3333C16.9163 29.3767 17.7097 28.5833 18.6663 28.5833ZM37.333 41.4167H18.6663C17.7097 41.4167 16.9163 40.6233 16.9163 39.6667C16.9163 38.71 17.7097 37.9167 18.6663 37.9167H37.333C38.2897 37.9167 39.083 38.71 39.083 39.6667C39.083 40.6233 38.2897 41.4167 37.333 41.4167Z" fill="#F0B357"/>
</svg>
