<svg width="566" height="458" viewBox="0 0 566 458" fill="none" xmlns="http://www.w3.org/2000/svg">
<rect width="566" height="458" fill="#E5E5E5"/>
<g clip-path="url(#clip0_0_1)">
<rect width="1440" height="4591" transform="translate(-718 -155)" fill="#FEFEFE"/>
<path d="M-172.736 605.855C-176.522 606.544 -180.441 605.668 -183.753 603.709L-1252.65 -28.6331C-1275.69 -42.2598 -1286.31 -70.1464 -1276.95 -95.2195C-1241.39 -190.481 -1193.29 -276.684 -1120.54 -334.953C-1001.4 -430.395 -818.59 -425.822 -740.563 -308.407C-739.624 -306.962 -738.705 -305.502 -737.806 -304.03C-715.058 -266.755 -663.101 -240.193 -621.593 -253.757C-549.996 -277.154 -474.872 -275.76 -412.814 -238.98C-341.226 -196.553 -302.574 -116.267 -294.857 -28.2664C-290.302 23.6793 -222.859 75.3424 -170.937 70.533C-105.117 64.4363 -41.2045 82.0477 3.64396 130.217C132.633 268.755 20.7027 570.59 -172.736 605.855Z" fill="url(#paint0_linear_0_1)" fill-opacity="0.6"/>
<g opacity="0.42">
<path fill-rule="evenodd" clip-rule="evenodd" d="M603.848 -254.852C566.088 -62.5286 499.168 349.434 533.565 458.699C532.962 465.259 447.241 388.027 404.455 348.591C390.692 337.623 361.777 301.999 356.231 247.248C349.299 178.809 343.803 22.8559 409.773 -126.191C430.186 -174.524 482.052 -198.756 532.654 -222.398C554.38 -232.549 575.874 -242.591 594.544 -254.385C598.079 -258.293 602.219 -256.324 603.848 -254.852ZM557.544 262.793C564.662 288.474 630.882 334.895 838.817 315.131L812.396 508.828C777.723 522.616 689.513 546.008 614.056 529.276C538.6 512.543 544.941 344.649 557.544 262.793Z" fill="url(#paint1_linear_0_1)"/>
</g>
<path d="M113.553 317.688C113.553 291.691 92.4634 230 66.4483 230C40.4332 230 19.3438 291.691 19.3438 317.688C19.3532 330.175 24.3202 342.147 33.1529 350.973C41.9857 359.8 53.9616 364.757 66.4483 364.757C78.9351 364.757 90.9109 359.8 99.7437 350.973C108.576 342.147 113.543 330.175 113.553 317.688V317.688Z" fill="#E6E6E6"/>
<path d="M66.4482 432.211C66.4991 432.211 66.5494 432.201 66.5964 432.181C66.6434 432.162 66.6861 432.134 66.7221 432.098C66.758 432.062 66.7866 432.019 66.8061 431.972C66.8255 431.925 66.8356 431.875 66.8356 431.824V269.533C66.8352 269.43 66.7942 269.332 66.7216 269.26C66.649 269.187 66.5507 269.147 66.4482 269.147C66.3458 269.147 66.2475 269.187 66.1749 269.26C66.1023 269.332 66.0613 269.43 66.0609 269.533V431.824C66.0609 431.875 66.071 431.925 66.0904 431.972C66.1099 432.019 66.1384 432.062 66.1744 432.098C66.2104 432.134 66.2531 432.162 66.3001 432.181C66.347 432.201 66.3974 432.211 66.4482 432.211V432.211Z" fill="#3F3D56"/>
<path d="M66.4483 300.864C66.4991 300.864 66.5495 300.854 66.5965 300.835C66.6435 300.815 66.6862 300.787 66.7222 300.751L85.3661 282.12C85.4387 282.047 85.4794 281.948 85.4794 281.846C85.4793 281.743 85.4385 281.645 85.3659 281.572C85.2932 281.499 85.1947 281.459 85.092 281.459C84.9893 281.459 84.8909 281.5 84.8183 281.572L66.1744 300.203C66.1202 300.258 66.0834 300.327 66.0685 300.402C66.0535 300.477 66.0612 300.555 66.0905 300.625C66.1199 300.696 66.1695 300.756 66.2332 300.799C66.2969 300.842 66.3717 300.864 66.4483 300.864L66.4483 300.864Z" fill="#3F3D56"/>
<path d="M66.4483 333.118C66.5249 333.119 66.5997 333.096 66.6634 333.053C66.7271 333.011 66.7767 332.95 66.8061 332.88C66.8354 332.809 66.8431 332.731 66.8281 332.656C66.8132 332.581 66.7764 332.512 66.7222 332.458L35.4996 301.256C35.427 301.183 35.3286 301.143 35.2259 301.143C35.1232 301.143 35.0247 301.183 34.952 301.256C34.8794 301.328 34.8385 301.427 34.8385 301.53C34.8385 301.632 34.8792 301.731 34.9518 301.803L66.1744 333.005C66.2103 333.041 66.253 333.07 66.3001 333.089C66.3471 333.109 66.3974 333.119 66.4483 333.118V333.118Z" fill="#3F3D56"/>
<path d="M94.4701 442.351C94.4028 442.402 94.332 442.449 94.264 442.5H36.5158C35.3843 437.918 34.9847 433.332 36.6749 429.349C39.083 423.674 46.2102 420.131 51.8764 422.568C53.2187 423.161 54.3881 424.086 55.2746 425.255C57.489 421.294 61.461 418.308 66.0458 418.311C71.7898 418.315 76.5656 423.009 78.124 428.431C80.6338 424.198 85.591 421.239 90.4362 422.512C98.5404 424.641 101.1 437.23 94.4701 442.351Z" fill="#F2F2F2"/>
<path d="M312.463 457.523C452.397 457.523 565.836 448.675 565.836 437.76C565.836 426.845 452.397 417.996 312.463 417.996C172.529 417.996 59.0906 426.845 59.0906 437.76C59.0906 448.675 172.529 457.523 312.463 457.523Z" fill="#7F88A6"/>
<path d="M527.689 401.045L530.064 418.432L513.44 420.013L515.815 398.674L527.689 401.045Z" fill="#F9B8C2"/>
<path d="M449.322 162.364C449.322 162.364 450.905 183.703 450.905 184.494C450.905 185.284 439.823 239.817 439.823 239.817C439.823 239.817 423.991 269.85 439.823 269.059C455.655 268.269 450.905 240.607 450.905 240.607L467.528 194.768L460.404 162.364L449.322 162.364Z" fill="#F9B8C2"/>
<path d="M475.445 401.045L473.07 418.432L489.693 420.013L487.318 398.674L475.445 401.045Z" fill="#F9B8C2"/>
<path d="M457.238 238.236L453.28 243.769C453.28 243.769 450.905 267.479 453.28 275.382C455.655 283.285 460.404 319.641 460.404 322.012C460.404 324.383 461.196 325.963 460.404 326.754C459.613 327.544 457.238 327.544 458.821 329.125C460.404 330.705 460.404 335.447 460.404 335.447V339.399L470.695 397.883C470.695 397.883 464.362 404.996 469.112 404.996C473.861 404.996 491.276 404.996 490.485 397.093L488.901 396.303C488.901 396.303 486.527 344.141 487.318 341.77C488.11 339.399 487.318 334.657 487.318 334.657C487.318 334.657 485.735 332.286 487.318 331.496C488.901 330.705 488.901 324.383 488.901 324.383L496.026 276.172C496.026 276.172 502.358 308.576 506.316 311.737C510.274 314.899 509.483 322.802 509.483 322.802L512.649 392.351C512.649 392.351 509.483 400.254 512.649 401.835C515.815 403.416 529.272 408.948 530.064 401.045C530.856 393.141 534.814 324.383 534.814 321.221C534.814 318.06 534.022 316.479 534.814 314.108C535.605 311.737 534.022 311.737 534.814 311.737C535.605 311.737 533.23 309.366 533.23 307.786V269.059C533.23 269.059 534.022 261.156 534.814 259.575C535.605 257.995 534.022 256.414 534.814 254.043C535.605 251.672 533.23 243.769 533.23 243.769L497.609 234.285L457.238 238.236Z" fill="#2F2E41"/>
<path d="M484.944 415.271C484.944 415.271 488.902 411.319 483.361 411.319C479.803 411.392 476.299 412.199 473.07 413.69L469.112 427.916C469.112 427.916 452.884 440.957 471.091 439.376C489.297 437.795 486.527 438.981 486.527 438.981C486.527 438.981 492.068 437.4 492.86 435.819C493.651 434.239 491.276 411.319 491.276 411.319C491.276 411.319 488.902 417.642 484.944 415.271Z" fill="#2F2E41"/>
<path d="M518.982 415.271C518.982 415.271 515.024 411.319 520.565 411.319C524.122 411.392 527.626 412.199 530.855 413.69L534.813 427.916C534.813 427.916 551.041 440.957 532.834 439.376C514.628 437.795 515.024 438.981 515.024 438.981C515.024 438.981 509.483 437.4 508.691 435.819C507.899 434.239 512.649 411.319 512.649 411.319C512.649 411.319 515.024 417.642 518.982 415.271Z" fill="#2F2E41"/>
<path d="M467.528 99.9281C478.895 99.9281 488.11 90.7282 488.11 79.3795C488.11 68.0308 478.895 58.8308 467.528 58.8308C456.162 58.8308 446.947 68.0308 446.947 79.3795C446.947 90.7282 456.162 99.9281 467.528 99.9281Z" fill="#F9B8C2"/>
<path d="M460.404 94.3957C460.404 94.3957 463.571 110.202 463.571 112.573C463.571 114.944 477.028 122.057 477.028 122.057L492.068 103.089C492.068 103.089 482.569 89.6537 482.569 86.4924L460.404 94.3957Z" fill="#F9B8C2"/>
<path d="M472.278 114.944C472.278 114.944 465.379 113.111 463.287 110.076C463.287 110.076 441.406 131.541 441.406 135.493L458.821 166.316C458.821 166.316 458.821 177.381 460.404 178.171C461.988 178.961 460.404 178.171 460.404 181.332C460.404 184.494 455.655 205.042 457.238 208.204C458.821 211.365 460.404 208.994 458.821 213.736C457.238 218.478 453.28 243.769 453.28 243.769C453.28 243.769 467.529 239.027 488.11 246.93C508.691 254.833 533.23 243.769 533.23 243.769C533.23 243.769 526.898 229.543 528.481 224.801C530.064 220.059 524.523 211.365 524.523 211.365L520.565 138.654C520.565 138.654 526.106 106.251 522.148 104.67L514.232 101.509L488.883 98.398C488.883 98.398 482.569 114.154 472.278 114.944Z" fill="#17009C"/>
<path d="M449.322 129.961L441.406 135.493C441.406 135.493 437.448 147.348 441.406 152.88C445.364 158.413 446.947 166.316 446.947 166.316L462.779 164.735L449.322 129.961Z" fill="#17009C"/>
<path d="M451.815 57.6631L448.245 56.2361C448.245 56.2361 455.709 48.0309 466.095 48.7444L463.174 45.5337C463.174 45.5337 470.314 42.6797 476.805 50.1714C480.217 54.1096 484.165 58.7387 486.626 63.9534H490.45L488.854 67.4614L494.439 70.9694L488.707 70.3392C489.25 73.3678 489.064 76.4818 488.164 79.4245L488.318 82.1973C488.318 82.1973 481.673 71.9329 481.673 70.5059V74.0733C481.673 74.0733 478.103 70.8626 478.103 68.7222L476.156 71.2194L475.182 67.2952L463.174 71.2194L465.121 68.0087L457.657 69.079L460.578 65.1547C460.578 65.1547 452.139 69.7924 451.815 73.7167C451.49 77.6408 447.271 82.6353 447.271 82.6353L445.324 79.0678C445.324 79.0678 442.403 63.0142 451.815 57.6631Z" fill="#2F2E41"/>
<path d="M142.527 217.491H456.088V437.11H142.527V217.491Z" fill="white" stroke="black"/>
<path d="M247.49 301.167H168.507V438.826H247.49V301.167Z" fill="#2B2C30"/>
<path d="M204.392 309.426H183.116V329.228H204.392V309.426Z" fill="#F2F2F2"/>
<path d="M232.88 309.426H211.604V329.228H232.88V309.426Z" fill="#F2F2F2"/>
<path d="M204.392 336.428H183.116V356.95H204.392V336.428Z" fill="#F2F2F2"/>
<path d="M232.88 336.428H211.604V356.95H232.88V336.428Z" fill="#F2F2F2"/>
<path d="M237.445 384.279C240.219 384.279 242.467 382.034 242.467 379.264C242.467 376.495 240.219 374.25 237.445 374.25C234.672 374.25 232.423 376.495 232.423 379.264C232.423 382.034 234.672 384.279 237.445 384.279Z" fill="#F0B357"/>
<path d="M430.109 288.1H273.969V418.921H430.109V288.1Z" fill="#2B2C30"/>
<path d="M489.46 258.526H109.156L134.512 205.595L140.187 193.744L147.611 178.246L153.286 166.394L159.864 152.665H459.497L463.382 166.394L466.738 178.246L471.125 193.744L474.481 205.595L489.46 258.526Z" fill="#2B2C30"/>
<path d="M284.926 342.343H279.448V376.074H284.926V342.343Z" fill="#F0B357"/>
<path d="M284.926 347.357H279.448V351.459H284.926V347.357Z" fill="#F2F2F2"/>
<path d="M284.926 366.957H279.448V371.06H284.926V366.957Z" fill="#F2F2F2"/>
<path d="M300.905 342.343H287.666V376.074H300.905V342.343Z" fill="#F0B357"/>
<path d="M300.905 347.357H287.666V351.459H300.905V347.357Z" fill="#F2F2F2"/>
<path d="M300.905 366.957H287.666V371.06H300.905V366.957Z" fill="#F2F2F2"/>
<path d="M309.58 342.343H304.102V376.074H309.58V342.343Z" fill="#F0B357"/>
<path d="M309.58 347.357H304.102V351.459H309.58V347.357Z" fill="#F2F2F2"/>
<path d="M309.58 366.957H304.102V371.06H309.58V366.957Z" fill="#F2F2F2"/>
<path d="M317.798 342.343H312.319V376.074H317.798V342.343Z" fill="#F0B357"/>
<path d="M317.798 347.357H312.319V351.459H317.798V347.357Z" fill="#F2F2F2"/>
<path d="M317.798 366.957H312.319V371.06H317.798V366.957Z" fill="#F2F2F2"/>
<path d="M323.077 342.462L317.951 344.391L329.867 375.954L334.994 374.025L323.077 342.462Z" fill="#F0B357"/>
<path d="M324.849 347.154L319.722 349.083L321.172 352.922L326.298 350.993L324.849 347.154Z" fill="#F2F2F2"/>
<path d="M331.773 365.495L326.647 367.424L328.096 371.263L333.223 369.333L331.773 365.495Z" fill="#F2F2F2"/>
<path d="M425.087 342.343H411.847V376.074H425.087V342.343Z" fill="#F0B357"/>
<path d="M425.087 347.357H411.847V351.459H425.087V347.357Z" fill="#F2F2F2"/>
<path d="M425.087 366.957H411.847V371.06H425.087V366.957Z" fill="#F2F2F2"/>
<path d="M408.651 342.343H403.173V376.074H408.651V342.343Z" fill="#F0B357"/>
<path d="M408.651 347.357H403.173V351.459H408.651V347.357Z" fill="#F2F2F2"/>
<path d="M408.651 366.957H403.173V371.06H408.651V366.957Z" fill="#F2F2F2"/>
<path d="M400.433 342.343H394.955V376.074H400.433V342.343Z" fill="#F0B357"/>
<path d="M400.433 347.357H394.955V351.459H400.433V347.357Z" fill="#F2F2F2"/>
<path d="M400.433 366.957H394.955V371.06H400.433V366.957Z" fill="#F2F2F2"/>
<path d="M389.675 342.462L377.759 374.025L382.885 375.954L394.802 344.391L389.675 342.462Z" fill="#F0B357"/>
<path d="M387.904 347.154L386.455 350.993L391.581 352.922L393.03 349.083L387.904 347.154Z" fill="#F2F2F2"/>
<path d="M380.979 365.495L379.53 369.333L384.656 371.263L386.106 367.424L380.979 365.495Z" fill="#F2F2F2"/>
<path d="M430.109 376.074H273.969V379.264H430.109V376.074Z" fill="#F2F2F2"/>
<path d="M370.757 342.343H341.995V376.074H370.757V342.343Z" fill="#F0B357"/>
<path d="M363.681 349.636H349.072V356.017H363.681V349.636Z" fill="#F2F2F2"/>
<path d="M353.409 288.1H350.669V317.272H353.409V288.1Z" fill="#F2F2F2"/>
<path d="M352.039 321.831C354.561 321.831 356.605 319.79 356.605 317.272C356.605 314.755 354.561 312.714 352.039 312.714C349.518 312.714 347.474 314.755 347.474 317.272C347.474 319.79 349.518 321.831 352.039 321.831Z" fill="#F2F2F2"/>
<path d="M466.737 178.246H147.611L153.286 166.394H463.382L466.737 178.246Z" fill="#F0B357"/>
<path d="M474.48 205.595H134.512L140.187 193.744H471.125L474.48 205.595Z" fill="#F0B357"/>
<path d="M507.9 137.074C507.9 137.074 503.316 148.842 504.273 160.486C504.448 162.571 505.151 164.577 506.317 166.316V166.316L450.158 192.935C450.158 192.935 424.783 195.558 431.116 206.623C437.448 217.688 460.404 201.091 460.404 201.091C460.404 201.091 520.565 192.397 525.315 183.703C530.064 175.01 533.23 138.654 533.23 138.654L507.9 137.074Z" fill="#F9B8C2"/>
<path d="M510.274 104.67H522.148C522.148 104.67 530.855 106.251 533.23 122.057C535.605 137.864 537.98 141.816 535.605 141.816C533.23 141.816 504.733 141.025 504.733 140.235C504.733 139.445 510.274 104.67 510.274 104.67Z" fill="#17009C"/>
<g filter="url(#filter0_bd_0_1)">
<path d="M135 197C176.421 197 210 163.421 210 122C210 80.5786 176.421 47 135 47C93.5786 47 60 80.5786 60 122C60 163.421 93.5786 197 135 197Z" fill="white" fill-opacity="0.6" shape-rendering="crispEdges"/>
<path d="M209.5 122C209.5 163.145 176.145 196.5 135 196.5C93.8548 196.5 60.5 163.145 60.5 122C60.5 80.8548 93.8548 47.5 135 47.5C176.145 47.5 209.5 80.8548 209.5 122Z" stroke="url(#paint2_linear_0_1)" stroke-opacity="0.07" shape-rendering="crispEdges"/>
</g>
<path d="M134.907 174.107C163.835 174.107 187.287 150.693 187.287 121.81C187.287 92.9276 163.835 69.5134 134.907 69.5134C105.978 69.5134 82.5269 92.9276 82.5269 121.81C82.5269 150.693 105.978 174.107 134.907 174.107Z" fill="#F0B357"/>
<path d="M186.787 121.81C186.787 150.416 163.56 173.607 134.907 173.607C106.254 173.607 83.0269 150.416 83.0269 121.81C83.0269 93.2044 106.254 70.0134 134.907 70.0134C163.56 70.0134 186.787 93.2044 186.787 121.81Z" stroke="url(#paint3_linear_0_1)" stroke-opacity="0.6"/>
<path d="M132.397 152.67V145.059C128.543 144.984 124.556 143.626 122.231 141.743L123.826 136.693C126.589 138.761 129.94 139.896 133.394 139.934C138.111 139.934 141.301 136.844 141.301 132.548C141.301 128.403 138.709 125.841 133.792 123.58C127.015 120.566 122.829 117.099 122.829 110.542C122.829 104.287 126.749 99.539 132.862 98.4087V90.797H136.982V98.1073C140.054 98.1492 143.05 99.0641 145.62 100.745L143.958 105.719C141.494 104.035 138.573 103.141 135.586 103.156C130.47 103.156 128.543 106.623 128.543 109.638C128.543 113.557 131.002 115.516 136.782 118.229C143.626 121.395 147.082 125.313 147.082 132.021C147.082 137.974 143.427 143.551 136.583 144.832V152.67H132.397Z" fill="white"/>
<path d="M293.176 95.8379H287.838C283.972 95.8379 280.838 92.7039 280.838 88.8379V83.5C280.838 83.1022 280.68 82.7206 280.399 82.4393C280.117 82.158 279.736 82 279.338 82C278.94 82 278.559 82.158 278.277 82.4393C277.996 82.7206 277.838 83.1022 277.838 83.5V88.8379C277.838 92.7039 274.704 95.8379 270.838 95.8379H265.5C265.102 95.8379 264.721 95.9959 264.439 96.2772C264.158 96.5585 264 96.9401 264 97.3379C264 97.7357 264.158 98.1173 264.439 98.3986C264.721 98.6799 265.102 98.8379 265.5 98.8379H270.838C274.704 98.8379 277.838 101.972 277.838 105.838V111.176C277.838 111.574 277.996 111.955 278.277 112.236C278.559 112.518 278.94 112.676 279.338 112.676C279.736 112.676 280.117 112.518 280.399 112.236C280.68 111.955 280.838 111.574 280.838 111.176V105.838C280.838 101.972 283.972 98.8379 287.838 98.8379H293.176C293.574 98.8379 293.955 98.6799 294.236 98.3986C294.518 98.1173 294.676 97.7357 294.676 97.3379C294.676 96.9401 294.518 96.5585 294.236 96.2772C293.955 95.9959 293.574 95.8379 293.176 95.8379Z" fill="#FBE9CF"/>
<g filter="url(#filter1_bd_0_1)">
<rect x="-718" y="-155" width="1440" height="88" fill="white" fill-opacity="0.8" shape-rendering="crispEdges"/>
</g>
</g>
<defs>
<filter id="filter0_bd_0_1" x="0" y="0" width="270" height="270" filterUnits="userSpaceOnUse" color-interpolation-filters="sRGB">
<feFlood flood-opacity="0" result="BackgroundImageFix"/>
<feGaussianBlur in="BackgroundImage" stdDeviation="22.5"/>
<feComposite in2="SourceAlpha" operator="in" result="effect1_backgroundBlur_0_1"/>
<feColorMatrix in="SourceAlpha" type="matrix" values="0 0 0 0 0 0 0 0 0 0 0 0 0 0 0 0 0 0 127 0" result="hardAlpha"/>
<feOffset dy="13"/>
<feGaussianBlur stdDeviation="30"/>
<feComposite in2="hardAlpha" operator="out"/>
<feColorMatrix type="matrix" values="0 0 0 0 0 0 0 0 0 0 0 0 0 0 0 0 0 0 0.12 0"/>
<feBlend mode="normal" in2="effect1_backgroundBlur_0_1" result="effect2_dropShadow_0_1"/>
<feBlend mode="normal" in="SourceGraphic" in2="effect2_dropShadow_0_1" result="shape"/>
</filter>
<filter id="filter1_bd_0_1" x="-842" y="-279" width="1688" height="336" filterUnits="userSpaceOnUse" color-interpolation-filters="sRGB">
<feFlood flood-opacity="0" result="BackgroundImageFix"/>
<feGaussianBlur in="BackgroundImage" stdDeviation="62"/>
<feComposite in2="SourceAlpha" operator="in" result="effect1_backgroundBlur_0_1"/>
<feColorMatrix in="SourceAlpha" type="matrix" values="0 0 0 0 0 0 0 0 0 0 0 0 0 0 0 0 0 0 127 0" result="hardAlpha"/>
<feOffset dy="4"/>
<feGaussianBlur stdDeviation="40"/>
<feComposite in2="hardAlpha" operator="out"/>
<feColorMatrix type="matrix" values="0 0 0 0 0 0 0 0 0 0 0 0 0 0 0 0 0 0 0.03 0"/>
<feBlend mode="normal" in2="effect1_backgroundBlur_0_1" result="effect2_dropShadow_0_1"/>
<feBlend mode="normal" in="SourceGraphic" in2="effect2_dropShadow_0_1" result="shape"/>
</filter>
<linearGradient id="paint0_linear_0_1" x1="-396.483" y1="-229.319" x2="-706.383" y2="294.53" gradientUnits="userSpaceOnUse">
<stop stop-color="#F2F2F2"/>
<stop offset="1" stop-color="#F2F2F2" stop-opacity="0"/>
</linearGradient>
<linearGradient id="paint1_linear_0_1" x1="361.489" y1="-82.0187" x2="725.216" y2="246.942" gradientUnits="userSpaceOnUse">
<stop stop-color="#F0B357"/>
<stop offset="1" stop-color="#F0B357" stop-opacity="0.07"/>
</linearGradient>
<linearGradient id="paint2_linear_0_1" x1="67.7381" y1="68.4286" x2="162.381" y2="197" gradientUnits="userSpaceOnUse">
<stop/>
<stop offset="1" stop-opacity="0"/>
</linearGradient>
<linearGradient id="paint3_linear_0_1" x1="116.5" y1="78.0001" x2="198.5" y2="169" gradientUnits="userSpaceOnUse">
<stop stop-color="white"/>
<stop offset="1" stop-color="white" stop-opacity="0"/>
</linearGradient>
<clipPath id="clip0_0_1">
<rect width="1440" height="4591" fill="white" transform="translate(-718 -155)"/>
</clipPath>
</defs>
</svg>
