<svg width="566" height="458" viewBox="0 0 566 458" fill="none" xmlns="http://www.w3.org/2000/svg">
<path d="M312.463 457.523C452.397 457.523 565.836 448.675 565.836 437.76C565.836 426.845 452.397 417.996 312.463 417.996C172.529 417.996 59.0906 426.845 59.0906 437.76C59.0906 448.675 172.529 457.523 312.463 457.523Z" fill="#7F88A6"/>
<path d="M527.689 401.045L530.064 418.432L513.44 420.013L515.815 398.674L527.689 401.045Z" fill="#F9B8C2"/>
<path d="M449.322 162.364C449.322 162.364 450.905 183.703 450.905 184.494C450.905 185.284 439.823 239.817 439.823 239.817C439.823 239.817 423.991 269.85 439.823 269.059C455.655 268.269 450.905 240.607 450.905 240.607L467.528 194.768L460.404 162.364L449.322 162.364Z" fill="#F9B8C2"/>
<path d="M475.445 401.045L473.07 418.432L489.693 420.013L487.318 398.674L475.445 401.045Z" fill="#F9B8C2"/>
<path d="M457.238 238.236L453.28 243.769C453.28 243.769 450.905 267.479 453.28 275.382C455.655 283.285 460.404 319.641 460.404 322.012C460.404 324.383 461.196 325.963 460.404 326.754C459.613 327.544 457.238 327.544 458.821 329.125C460.404 330.705 460.404 335.447 460.404 335.447V339.399L470.695 397.883C470.695 397.883 464.362 404.996 469.112 404.996C473.861 404.996 491.276 404.996 490.485 397.093L488.901 396.303C488.901 396.303 486.527 344.141 487.318 341.77C488.11 339.399 487.318 334.657 487.318 334.657C487.318 334.657 485.735 332.286 487.318 331.496C488.901 330.705 488.901 324.383 488.901 324.383L496.026 276.172C496.026 276.172 502.358 308.576 506.316 311.737C510.274 314.899 509.483 322.802 509.483 322.802L512.649 392.351C512.649 392.351 509.483 400.254 512.649 401.835C515.815 403.416 529.272 408.948 530.064 401.045C530.856 393.141 534.814 324.383 534.814 321.221C534.814 318.06 534.022 316.479 534.814 314.108C535.605 311.737 534.022 311.737 534.814 311.737C535.605 311.737 533.23 309.366 533.23 307.786V269.059C533.23 269.059 534.022 261.156 534.814 259.575C535.605 257.995 534.022 256.414 534.814 254.043C535.605 251.672 533.23 243.769 533.23 243.769L497.609 234.285L457.238 238.236Z" fill="#2F2E41"/>
<path d="M484.944 415.271C484.944 415.271 488.902 411.319 483.361 411.319C479.803 411.392 476.299 412.199 473.07 413.69L469.112 427.916C469.112 427.916 452.884 440.957 471.091 439.376C489.297 437.795 486.527 438.981 486.527 438.981C486.527 438.981 492.068 437.4 492.86 435.819C493.651 434.239 491.276 411.319 491.276 411.319C491.276 411.319 488.902 417.642 484.944 415.271Z" fill="#2F2E41"/>
<path d="M518.982 415.271C518.982 415.271 515.024 411.319 520.565 411.319C524.122 411.392 527.626 412.199 530.855 413.69L534.813 427.916C534.813 427.916 551.041 440.957 532.834 439.376C514.628 437.795 515.024 438.981 515.024 438.981C515.024 438.981 509.483 437.4 508.691 435.819C507.899 434.239 512.649 411.319 512.649 411.319C512.649 411.319 515.024 417.642 518.982 415.271Z" fill="#2F2E41"/>
<path d="M467.528 99.9281C478.895 99.9281 488.11 90.7282 488.11 79.3795C488.11 68.0308 478.895 58.8308 467.528 58.8308C456.162 58.8308 446.947 68.0308 446.947 79.3795C446.947 90.7282 456.162 99.9281 467.528 99.9281Z" fill="#F9B8C2"/>
<path d="M460.404 94.3957C460.404 94.3957 463.571 110.202 463.571 112.573C463.571 114.944 477.028 122.057 477.028 122.057L492.068 103.089C492.068 103.089 482.569 89.6537 482.569 86.4924L460.404 94.3957Z" fill="#F9B8C2"/>
<path d="M472.278 114.944C472.278 114.944 465.379 113.111 463.287 110.076C463.287 110.076 441.406 131.541 441.406 135.493L458.821 166.316C458.821 166.316 458.821 177.381 460.404 178.171C461.988 178.961 460.404 178.171 460.404 181.332C460.404 184.494 455.655 205.042 457.238 208.204C458.821 211.365 460.404 208.994 458.821 213.736C457.238 218.478 453.28 243.769 453.28 243.769C453.28 243.769 467.529 239.027 488.11 246.93C508.691 254.833 533.23 243.769 533.23 243.769C533.23 243.769 526.898 229.543 528.481 224.801C530.064 220.059 524.523 211.365 524.523 211.365L520.565 138.654C520.565 138.654 526.106 106.251 522.148 104.67L514.232 101.509L488.883 98.398C488.883 98.398 482.569 114.154 472.278 114.944Z" fill="#17009C"/>
<path d="M449.322 129.961L441.406 135.493C441.406 135.493 437.448 147.348 441.406 152.88C445.364 158.413 446.947 166.316 446.947 166.316L462.779 164.735L449.322 129.961Z" fill="#17009C"/>
<path d="M451.815 57.6631L448.245 56.2361C448.245 56.2361 455.709 48.0309 466.095 48.7444L463.174 45.5337C463.174 45.5337 470.314 42.6797 476.805 50.1714C480.217 54.1096 484.165 58.7387 486.626 63.9534H490.45L488.854 67.4614L494.439 70.9694L488.707 70.3392C489.25 73.3678 489.064 76.4818 488.164 79.4245L488.318 82.1973C488.318 82.1973 481.673 71.9329 481.673 70.5059V74.0733C481.673 74.0733 478.103 70.8626 478.103 68.7222L476.156 71.2194L475.182 67.2952L463.174 71.2194L465.121 68.0087L457.657 69.079L460.578 65.1547C460.578 65.1547 452.139 69.7924 451.815 73.7167C451.49 77.6408 447.271 82.6353 447.271 82.6353L445.324 79.0678C445.324 79.0678 442.403 63.0142 451.815 57.6631Z" fill="#2F2E41"/>
<path d="M142.527 217.491H456.088V437.11H142.527V217.491Z" fill="white" stroke="black"/>
<path d="M247.49 301.167H168.507V438.826H247.49V301.167Z" fill="#2B2C30"/>
<path d="M204.392 309.426H183.116V329.228H204.392V309.426Z" fill="#F2F2F2"/>
<path d="M232.88 309.426H211.604V329.228H232.88V309.426Z" fill="#F2F2F2"/>
<path d="M204.392 336.428H183.116V356.95H204.392V336.428Z" fill="#F2F2F2"/>
<path d="M232.88 336.428H211.604V356.95H232.88V336.428Z" fill="#F2F2F2"/>
<path d="M237.445 384.279C240.219 384.279 242.467 382.034 242.467 379.264C242.467 376.495 240.219 374.25 237.445 374.25C234.672 374.25 232.423 376.495 232.423 379.264C232.423 382.034 234.672 384.279 237.445 384.279Z" fill="#F0B357"/>
<path d="M430.109 288.1H273.969V418.921H430.109V288.1Z" fill="#2B2C30"/>
<path d="M489.46 258.526H109.156L134.512 205.595L140.187 193.744L147.611 178.246L153.286 166.394L159.864 152.665H459.497L463.382 166.394L466.738 178.246L471.125 193.744L474.481 205.595L489.46 258.526Z" fill="#2B2C30"/>
<path d="M284.926 342.343H279.448V376.074H284.926V342.343Z" fill="#F0B357"/>
<path d="M284.926 347.357H279.448V351.459H284.926V347.357Z" fill="#F2F2F2"/>
<path d="M284.926 366.957H279.448V371.06H284.926V366.957Z" fill="#F2F2F2"/>
<path d="M300.905 342.343H287.666V376.074H300.905V342.343Z" fill="#F0B357"/>
<path d="M300.905 347.357H287.666V351.459H300.905V347.357Z" fill="#F2F2F2"/>
<path d="M300.905 366.957H287.666V371.06H300.905V366.957Z" fill="#F2F2F2"/>
<path d="M309.58 342.343H304.102V376.074H309.58V342.343Z" fill="#F0B357"/>
<path d="M309.58 347.357H304.102V351.459H309.58V347.357Z" fill="#F2F2F2"/>
<path d="M309.58 366.957H304.102V371.06H309.58V366.957Z" fill="#F2F2F2"/>
<path d="M317.798 342.343H312.319V376.074H317.798V342.343Z" fill="#F0B357"/>
<path d="M317.798 347.357H312.319V351.459H317.798V347.357Z" fill="#F2F2F2"/>
<path d="M317.798 366.957H312.319V371.06H317.798V366.957Z" fill="#F2F2F2"/>
<path d="M323.077 342.462L317.951 344.391L329.867 375.954L334.994 374.025L323.077 342.462Z" fill="#F0B357"/>
<path d="M324.849 347.154L319.722 349.083L321.172 352.922L326.298 350.993L324.849 347.154Z" fill="#F2F2F2"/>
<path d="M331.773 365.495L326.647 367.424L328.096 371.263L333.223 369.333L331.773 365.495Z" fill="#F2F2F2"/>
<path d="M425.087 342.343H411.847V376.074H425.087V342.343Z" fill="#F0B357"/>
<path d="M425.087 347.357H411.847V351.459H425.087V347.357Z" fill="#F2F2F2"/>
<path d="M425.087 366.957H411.847V371.06H425.087V366.957Z" fill="#F2F2F2"/>
<path d="M408.651 342.343H403.173V376.074H408.651V342.343Z" fill="#F0B357"/>
<path d="M408.651 347.357H403.173V351.459H408.651V347.357Z" fill="#F2F2F2"/>
<path d="M408.651 366.957H403.173V371.06H408.651V366.957Z" fill="#F2F2F2"/>
<path d="M400.433 342.343H394.955V376.074H400.433V342.343Z" fill="#F0B357"/>
<path d="M400.433 347.357H394.955V351.459H400.433V347.357Z" fill="#F2F2F2"/>
<path d="M400.433 366.957H394.955V371.06H400.433V366.957Z" fill="#F2F2F2"/>
<path d="M389.675 342.462L377.759 374.025L382.885 375.954L394.802 344.391L389.675 342.462Z" fill="#F0B357"/>
<path d="M387.904 347.154L386.455 350.993L391.581 352.922L393.03 349.083L387.904 347.154Z" fill="#F2F2F2"/>
<path d="M380.979 365.495L379.53 369.333L384.656 371.263L386.106 367.424L380.979 365.495Z" fill="#F2F2F2"/>
<path d="M430.109 376.074H273.969V379.264H430.109V376.074Z" fill="#F2F2F2"/>
<path d="M370.757 342.343H341.995V376.074H370.757V342.343Z" fill="#F0B357"/>
<path d="M363.681 349.636H349.072V356.017H363.681V349.636Z" fill="#F2F2F2"/>
<path d="M353.409 288.1H350.669V317.272H353.409V288.1Z" fill="#F2F2F2"/>
<path d="M352.039 321.831C354.561 321.831 356.605 319.79 356.605 317.272C356.605 314.755 354.561 312.714 352.039 312.714C349.518 312.714 347.474 314.755 347.474 317.272C347.474 319.79 349.518 321.831 352.039 321.831Z" fill="#F2F2F2"/>
<path d="M466.737 178.246H147.611L153.286 166.394H463.382L466.737 178.246Z" fill="#F0B357"/>
<path d="M474.48 205.595H134.512L140.187 193.744H471.125L474.48 205.595Z" fill="#F0B357"/>
<path d="M507.9 137.074C507.9 137.074 503.316 148.842 504.273 160.486C504.448 162.571 505.151 164.577 506.317 166.316V166.316L450.158 192.935C450.158 192.935 424.783 195.558 431.116 206.623C437.448 217.688 460.404 201.091 460.404 201.091C460.404 201.091 520.565 192.397 525.315 183.703C530.064 175.01 533.23 138.654 533.23 138.654L507.9 137.074Z" fill="#F9B8C2"/>
<path d="M510.274 104.67H522.148C522.148 104.67 530.855 106.251 533.23 122.057C535.605 137.864 537.98 141.816 535.605 141.816C533.23 141.816 504.733 141.025 504.733 140.235C504.733 139.445 510.274 104.67 510.274 104.67Z" fill="#17009C"/>
<g filter="url(#filter0_bd_315_2070)">
<path d="M135 197C176.421 197 210 163.421 210 122C210 80.5786 176.421 47 135 47C93.5786 47 60 80.5786 60 122C60 163.421 93.5786 197 135 197Z" fill="white" fill-opacity="0.6" shape-rendering="crispEdges"/>
<path d="M209.5 122C209.5 163.145 176.145 196.5 135 196.5C93.8548 196.5 60.5 163.145 60.5 122C60.5 80.8548 93.8548 47.5 135 47.5C176.145 47.5 209.5 80.8548 209.5 122Z" stroke="url(#paint0_linear_315_2070)" stroke-opacity="0.07" shape-rendering="crispEdges"/>
</g>
<path d="M134.907 174.107C163.835 174.107 187.287 150.693 187.287 121.81C187.287 92.9276 163.835 69.5134 134.907 69.5134C105.978 69.5134 82.5269 92.9276 82.5269 121.81C82.5269 150.693 105.978 174.107 134.907 174.107Z" fill="#F0B357"/>
<path d="M186.787 121.81C186.787 150.416 163.56 173.607 134.907 173.607C106.254 173.607 83.0269 150.416 83.0269 121.81C83.0269 93.2044 106.254 70.0134 134.907 70.0134C163.56 70.0134 186.787 93.2044 186.787 121.81Z" stroke="url(#paint1_linear_315_2070)" stroke-opacity="0.6"/>
<path d="M132.397 152.67V145.059C128.543 144.984 124.556 143.626 122.231 141.743L123.826 136.693C126.589 138.761 129.94 139.896 133.394 139.934C138.111 139.934 141.301 136.844 141.301 132.548C141.301 128.403 138.709 125.841 133.792 123.58C127.015 120.566 122.829 117.099 122.829 110.542C122.829 104.287 126.749 99.539 132.862 98.4087V90.797H136.982V98.1073C140.054 98.1492 143.05 99.0641 145.62 100.745L143.958 105.719C141.494 104.035 138.573 103.141 135.586 103.156C130.47 103.156 128.543 106.623 128.543 109.638C128.543 113.557 131.002 115.516 136.782 118.229C143.626 121.395 147.082 125.313 147.082 132.021C147.082 137.974 143.427 143.551 136.583 144.832V152.67H132.397Z" fill="white"/>
<defs>
<filter id="filter0_bd_315_2070" x="0" y="0" width="270" height="270" filterUnits="userSpaceOnUse" color-interpolation-filters="sRGB">
<feFlood flood-opacity="0" result="BackgroundImageFix"/>
<feGaussianBlur in="BackgroundImage" stdDeviation="22.5"/>
<feComposite in2="SourceAlpha" operator="in" result="effect1_backgroundBlur_315_2070"/>
<feColorMatrix in="SourceAlpha" type="matrix" values="0 0 0 0 0 0 0 0 0 0 0 0 0 0 0 0 0 0 127 0" result="hardAlpha"/>
<feOffset dy="13"/>
<feGaussianBlur stdDeviation="30"/>
<feComposite in2="hardAlpha" operator="out"/>
<feColorMatrix type="matrix" values="0 0 0 0 0 0 0 0 0 0 0 0 0 0 0 0 0 0 0.12 0"/>
<feBlend mode="normal" in2="effect1_backgroundBlur_315_2070" result="effect2_dropShadow_315_2070"/>
<feBlend mode="normal" in="SourceGraphic" in2="effect2_dropShadow_315_2070" result="shape"/>
</filter>
<linearGradient id="paint0_linear_315_2070" x1="67.7381" y1="68.4286" x2="162.381" y2="197" gradientUnits="userSpaceOnUse">
<stop/>
<stop offset="1" stop-opacity="0"/>
</linearGradient>
<linearGradient id="paint1_linear_315_2070" x1="116.5" y1="78.0001" x2="198.5" y2="169" gradientUnits="userSpaceOnUse">
<stop stop-color="white"/>
<stop offset="1" stop-color="white" stop-opacity="0"/>
</linearGradient>
</defs>
</svg>
