<svg width="31" height="31" viewBox="0 0 31 31" fill="none" xmlns="http://www.w3.org/2000/svg">
<path d="M29.1758 13.8379H23.8379C19.9719 13.8379 16.8379 10.7039 16.8379 6.83789V1.5C16.8379 1.10218 16.6799 0.720636 16.3986 0.439331C16.1173 0.158026 15.7357 0 15.3379 0C14.9401 0 14.5585 0.158026 14.2772 0.439331C13.9959 0.720636 13.8379 1.10218 13.8379 1.5V6.83789C13.8379 10.7039 10.7039 13.8379 6.83789 13.8379H1.5C1.10218 13.8379 0.720636 13.9959 0.439331 14.2772C0.158026 14.5585 0 14.9401 0 15.3379C0 15.7357 0.158026 16.1173 0.439331 16.3986C0.720636 16.6799 1.10218 16.8379 1.5 16.8379H6.83789C10.7039 16.8379 13.8379 19.9719 13.8379 23.8379V29.1758C13.8379 29.5736 13.9959 29.9551 14.2772 30.2365C14.5585 30.5178 14.9401 30.6758 15.3379 30.6758C15.7357 30.6758 16.1173 30.5178 16.3986 30.2365C16.6799 29.9551 16.8379 29.5736 16.8379 29.1758V23.8379C16.8379 19.9719 19.9719 16.8379 23.8379 16.8379H29.1758C29.5736 16.8379 29.9551 16.6799 30.2365 16.3986C30.5178 16.1173 30.6758 15.7357 30.6758 15.3379C30.6758 14.9401 30.5178 14.5585 30.2365 14.2772C29.9551 13.9959 29.5736 13.8379 29.1758 13.8379Z" fill="#FBE9CF"/>
</svg>
