<svg width="322" height="162" viewBox="0 0 322 162" fill="none" xmlns="http://www.w3.org/2000/svg">
<g clip-path="url(#clip0_315_2458)">
<path d="M321.536 8.83942H0.136719V161.834H321.536V8.83942Z" fill="#E6E6E6"/>
<path d="M312.347 21.9589H9.32812V149.607H312.347V21.9589Z" fill="white"/>
<path d="M321.4 0H0V13.6974H321.4V0Z" fill="#F0B357"/>
<path d="M10.146 10.5932C11.5436 10.5932 12.6767 9.45651 12.6767 8.05439C12.6767 6.65227 11.5436 5.51562 10.146 5.51562C8.74828 5.51562 7.61523 6.65227 7.61523 8.05439C7.61523 9.45651 8.74828 10.5932 10.146 10.5932Z" fill="white"/>
<path d="M19.7534 10.5932C21.1511 10.5932 22.2841 9.45651 22.2841 8.05439C22.2841 6.65227 21.1511 5.51562 19.7534 5.51562C18.3557 5.51562 17.2227 6.65227 17.2227 8.05439C17.2227 9.45651 18.3557 10.5932 19.7534 10.5932Z" fill="white"/>
<path d="M29.3588 10.5932C30.7565 10.5932 31.8896 9.45651 31.8896 8.05439C31.8896 6.65227 30.7565 5.51562 29.3588 5.51562C27.9612 5.51562 26.8281 6.65227 26.8281 8.05439C26.8281 9.45651 27.9612 10.5932 29.3588 10.5932Z" fill="white"/>
<path d="M226.612 41.3661H183.936V44.584H226.612V41.3661Z" fill="#E6E6E6"/>
<path d="M249.837 50.8127H183.936V54.0306H249.837V50.8127Z" fill="#F0B357"/>
<path d="M238.33 59.8093H184.621V63.0272H238.33V59.8093Z" fill="#E6E6E6"/>
<path d="M215.29 69.6806H183.936V72.8985H215.29V69.6806Z" fill="#E6E6E6"/>
<path d="M231.257 79.3228H183.936V82.5407H231.257V79.3228Z" fill="#F0B357"/>
<path d="M169.71 40.3539H164.484V45.5962H169.71V40.3539Z" fill="#E6E6E6"/>
<path d="M169.71 49.8005H164.484V55.0428H169.71V49.8005Z" fill="#F0B357"/>
<path d="M169.71 58.7971H164.484V64.0394H169.71V58.7971Z" fill="#E6E6E6"/>
<path d="M169.71 68.6684H164.484V73.9107H169.71V68.6684Z" fill="#E6E6E6"/>
<path d="M169.71 78.3106H164.484V83.5529H169.71V78.3106Z" fill="#F0B357"/>
<path d="M226.612 89.0253H183.936V92.2431H226.612V89.0253Z" fill="#E6E6E6"/>
<path d="M249.837 98.4719H183.936V101.69H249.837V98.4719Z" fill="#F0B357"/>
<path d="M238.33 107.468H184.621V110.686H238.33V107.468Z" fill="#E6E6E6"/>
<path d="M215.29 117.34H183.936V120.558H215.29V117.34Z" fill="#E6E6E6"/>
<path d="M231.257 126.982H183.936V130.2H231.257V126.982Z" fill="#E6E6E6"/>
<path d="M169.71 88.0131H164.484V93.2554H169.71V88.0131Z" fill="#E6E6E6"/>
<path d="M169.71 97.4596H164.484V102.702H169.71V97.4596Z" fill="#F0B357"/>
<path d="M169.71 106.456H164.484V111.698H169.71V106.456Z" fill="#E6E6E6"/>
<path d="M169.71 116.328H164.484V121.57H169.71V116.328Z" fill="#E6E6E6"/>
<path d="M169.71 125.97H164.484V131.212H169.71V125.97Z" fill="#E6E6E6"/>
<path d="M91.6061 114.266H48.9297V117.484H91.6061V114.266Z" fill="#3F3D56"/>
<path d="M96.9272 122.628H43.2188V125.845H96.9272V122.628Z" fill="#3F3D56"/>
<path d="M98.0054 73.6744C98.0037 78.5108 96.7516 83.2639 94.3715 87.4698C91.9915 91.6756 88.5648 95.1903 84.4261 97.6707C80.2874 100.151 75.5782 101.512 70.7584 101.621C65.9387 101.73 61.1731 100.584 56.9271 98.2929L56.9217 98.2875C52.5846 95.9435 48.9445 92.4881 46.3721 88.2733C43.7998 84.0584 42.3872 79.2348 42.2783 74.294C42.1694 69.3531 43.3681 64.4716 45.7523 60.1469C48.1364 55.8221 51.6208 52.2087 55.8504 49.6748C60.08 47.1408 64.9036 45.777 69.8297 45.7222C74.7558 45.6675 79.6083 46.9237 83.8928 49.363C88.1773 51.8022 91.7407 55.3373 94.2198 59.608C96.6989 63.8787 98.0052 68.7324 98.0054 73.6744Z" fill="#75D084"/>
<path d="M61 75.4118L68.6 82L80 66" stroke="white" stroke-width="1.75" stroke-linecap="round" stroke-linejoin="round"/>
</g>
<defs>
<clipPath id="clip0_315_2458">
<rect width="322" height="162" fill="white"/>
</clipPath>
</defs>
</svg>
