<svg width="370" height="691" viewBox="0 0 370 691" fill="none" xmlns="http://www.w3.org/2000/svg">
<path fill-rule="evenodd" clip-rule="evenodd" d="M251.848 -99.8515C214.088 92.4714 147.168 504.434 181.565 613.699C180.962 620.259 95.2406 543.027 52.4554 503.591C38.6915 492.623 9.77731 456.999 4.2312 402.248C-2.70142 333.809 -8.19695 177.856 57.7731 28.8093C78.1858 -19.5237 130.052 -43.7563 180.654 -67.3977C202.38 -77.5486 223.874 -87.5906 242.544 -99.3845C246.079 -103.293 250.219 -101.324 251.848 -99.8515ZM205.544 417.793C212.662 443.474 278.882 489.895 486.817 470.131L460.396 663.828C425.723 677.616 337.513 701.008 262.056 684.276C186.6 667.543 192.941 499.649 205.544 417.793Z" fill="url(#paint0_linear_315_2060)"/>
<defs>
<linearGradient id="paint0_linear_315_2060" x1="9.48888" y1="72.9813" x2="373.216" y2="401.942" gradientUnits="userSpaceOnUse">
<stop stop-color="#F0B357"/>
<stop offset="1" stop-color="#F0B357" stop-opacity="0.07"/>
</linearGradient>
</defs>
</svg>
